<svg width="55" height="58" viewBox="0 0 55 58" fill="none" xmlns="http://www.w3.org/2000/svg">
<path d="M34.0899 6.76866C28.03 6.02661 24.9342 15.6504 24.3168 19.8997C23.4198 15.0776 17.8507 13.3944 15.1783 13.1556C13.2354 13.1123 9.06449 14.381 7.92448 19.8027C6.78447 25.2244 14.4638 28.9525 18.4459 30.1388C11.3879 31.9703 9.10679 38.7328 8.3014 41.7385C7.94344 43.0743 8.2515 46.5932 14.1641 49.0365C20.0768 51.4799 23.7071 45.0312 24.7832 41.5015C25.0101 44.5451 27.0659 50.4891 33.4743 49.9153C39.8826 49.3416 36.5855 40.2492 34.1359 35.7747C38.4231 37.2814 47.9978 39.6334 47.8653 31.2207C47.7352 22.9531 36.238 24.5257 37.7154 22.416C38.9818 20.6076 43.9307 7.97372 34.0899 6.76866Z" fill="#6665DD" stroke="#6665DD"/>
<path d="M32.2884 30.1663C31.7588 32.1426 29.5799 33.2759 27.4216 32.6976C25.2633 32.1192 23.9429 30.0483 24.4725 28.072C25.002 26.0957 27.181 24.9625 29.3392 25.5408C31.4975 26.1191 32.8179 28.19 32.2884 30.1663Z" fill="#DCC6F1"/>
</svg>
