<svg width="521" height="300" viewBox="0 0 521 300" fill="none" xmlns="http://www.w3.org/2000/svg">
<rect x="14" y="16" width="506.944" height="283.926" rx="10" fill="black"/>
<rect x="0.555756" y="0.581055" width="505.944" height="282.926" rx="9.5" fill="#234866" stroke="black"/>
<path d="M227.217 142.9H218.101L215.624 148.581H209.916L222.738 121.898L235.421 148.581H229.674L227.217 142.9ZM225.235 138.446L222.738 132.31L220.083 138.446H225.235Z" fill="#66C6E3"/>
<path d="M240.237 146.385L241.049 141.416C243.107 143.266 245.736 144.356 248.5 144.504C250.859 144.504 252.107 143.158 252.107 141.495C252.107 140.129 251.334 138.922 248.837 138.11L247.252 137.596C242.555 136.091 240.91 133.181 240.91 129.816C240.923 128.771 241.151 127.739 241.581 126.785C242.011 125.832 242.633 124.977 243.409 124.275C244.184 123.573 245.097 123.038 246.089 122.704C247.081 122.37 248.131 122.244 249.174 122.334C251.66 122.382 254.098 123.02 256.289 124.194L255.516 129.044C253.612 127.763 251.405 127.005 249.115 126.847C248.721 126.797 248.322 126.83 247.942 126.945C247.563 127.06 247.212 127.253 246.912 127.513C246.613 127.773 246.372 128.093 246.205 128.452C246.038 128.812 245.949 129.202 245.944 129.598C245.944 131.004 246.717 132.112 249.372 132.944L250.938 133.458C255.476 134.923 257.24 137.912 257.24 141.179C257.24 145.335 254.267 149.097 248.56 149.097C245.575 149.05 242.674 148.105 240.237 146.385V146.385Z" fill="#66C6E3"/>
<path d="M280.05 143.672L279.277 148.661H264.988V123.145L270.22 122.531V143.672H280.05Z" fill="#66C6E3"/>
<path d="M189.168 165.447V186.192H183.936V165.447H177.158L177.931 160.557H195.152L195.886 165.447H189.168Z" fill="#66C6E3"/>
<path d="M200.226 173.365C200.166 170.648 200.919 167.975 202.387 165.686C203.856 163.398 205.973 161.599 208.47 160.518C210.966 159.437 213.728 159.124 216.404 159.617C219.079 160.111 221.547 161.39 223.492 163.29C225.437 165.191 226.771 167.627 227.324 170.288C227.877 172.95 227.624 175.715 226.597 178.232C225.569 180.748 223.815 182.902 221.557 184.419C219.299 185.936 216.64 186.746 213.919 186.746C212.135 186.786 210.361 186.469 208.701 185.814C207.041 185.16 205.529 184.18 204.254 182.934C202.978 181.687 201.965 180.199 201.273 178.555C200.581 176.912 200.225 175.148 200.226 173.365ZM222.243 173.365C222.231 171.723 221.733 170.122 220.811 168.762C219.889 167.403 218.585 166.347 217.063 165.726C215.542 165.106 213.87 164.95 212.259 165.277C210.649 165.605 209.171 166.401 208.013 167.566C206.855 168.732 206.068 170.213 205.752 171.824C205.435 173.435 205.604 175.104 206.235 176.62C206.867 178.135 207.934 179.43 209.301 180.341C210.669 181.252 212.276 181.738 213.919 181.738C215.02 181.746 216.11 181.535 217.128 181.116C218.145 180.697 219.068 180.08 219.844 179.3C220.619 178.52 221.231 177.593 221.642 176.574C222.054 175.555 222.258 174.464 222.243 173.365V173.365Z" fill="#66C6E3"/>
<path d="M267.149 171.227V184.312C264.447 185.883 261.377 186.709 258.251 186.707C256.478 186.736 254.718 186.412 253.072 185.754C251.426 185.097 249.928 184.119 248.665 182.877C247.401 181.635 246.398 180.155 245.713 178.521C245.028 176.888 244.676 175.136 244.676 173.365C244.691 171.572 245.064 169.799 245.772 168.152C246.481 166.504 247.511 165.014 248.802 163.768C250.093 162.522 251.62 161.546 253.294 160.896C254.967 160.246 256.753 159.936 258.548 159.983C261.079 159.977 263.574 160.582 265.821 161.745L265.048 166.714C263.121 165.532 260.908 164.895 258.647 164.873C257.514 164.844 256.387 165.042 255.332 165.456C254.278 165.87 253.317 166.492 252.508 167.284C251.698 168.076 251.056 169.022 250.62 170.067C250.183 171.112 249.961 172.233 249.967 173.365C249.956 174.474 250.168 175.575 250.588 176.602C251.009 177.628 251.631 178.561 252.417 179.344C253.203 180.128 254.139 180.747 255.167 181.165C256.196 181.583 257.298 181.791 258.409 181.778C259.768 181.821 261.119 181.571 262.373 181.045V175.681H256.586L257.299 171.227H267.149Z" fill="#66C6E3"/>
<path d="M274.402 173.365C274.343 170.647 275.096 167.973 276.565 165.684C278.034 163.396 280.153 161.597 282.65 160.516C285.148 159.436 287.911 159.123 290.587 159.619C293.264 160.114 295.731 161.395 297.675 163.297C299.62 165.2 300.952 167.638 301.503 170.301C302.053 172.963 301.797 175.729 300.767 178.245C299.737 180.762 297.979 182.914 295.719 184.429C293.458 185.943 290.797 186.75 288.076 186.746C286.292 186.786 284.519 186.469 282.861 185.814C281.202 185.159 279.691 184.179 278.417 182.933C277.143 181.686 276.131 180.197 275.442 178.554C274.752 176.911 274.399 175.147 274.402 173.365V173.365ZM296.399 173.365C296.387 171.723 295.889 170.122 294.967 168.762C294.046 167.403 292.742 166.347 291.22 165.726C289.698 165.106 288.026 164.95 286.416 165.277C284.805 165.605 283.328 166.401 282.169 167.566C281.011 168.732 280.225 170.213 279.908 171.824C279.592 173.435 279.76 175.104 280.392 176.62C281.023 178.135 282.09 179.43 283.458 180.341C284.825 181.252 286.432 181.738 288.076 181.738C289.176 181.746 290.267 181.535 291.284 181.116C292.301 180.697 293.225 180.08 294 179.3C294.775 178.52 295.387 177.593 295.799 176.574C296.211 175.555 296.415 174.464 296.399 173.365V173.365Z" fill="#66C6E3"/>
<path d="M162.548 77.3773L200.144 75.516C208.483 75.1015 216.855 74.6869 225.045 73.3712C229.971 72.5794 234.899 71.4336 239.093 69.2298C244.26 66.5146 247.956 62.9287 251.474 58.8778C255.271 54.5027 251.806 58.6614 257.517 51.4624C261.48 46.468 260.477 39.5732 265.038 34.9129C265.937 33.8877 267.149 33.1858 268.487 32.9148C269.406 32.8045 270.339 32.9411 271.187 33.3106C272.036 33.68 272.771 34.2689 273.316 35.0165C274.151 36.378 274.537 37.9661 274.423 39.5583C274.404 49.9485 272.125 52.6845 269.394 62.8458C269.096 63.9552 268.871 65.2104 269.687 66.1407C270.409 66.9631 271.737 67.279 272.979 67.449C283.395 68.8808 293.428 64.0024 303.896 62.8293C307.146 62.4653 310.766 62.5424 313.297 64.2047C316.293 66.1713 316.763 69.6378 316.779 72.727C316.8 81.7285 314.949 90.6363 311.344 98.8865C309.792 102.471 307.686 106.192 303.638 108.197C299.357 110.319 293.882 110.034 288.931 109.275C276.314 107.332 264.217 102.751 251.362 102.767C242.8 102.777 234.48 104.839 226.27 106.769C205.342 111.527 183.926 113.805 162.465 113.556" fill="#97C1B7"/>
<path d="M313.59 93.1592C313.692 93.8689 305.416 108.802 278.6 102.553C251.785 96.3031 242.318 100.026 242.318 100.026C242.318 100.026 228.659 103.996 220.888 105.761C213.117 107.527 194.614 109.735 162.467 109.735V113.561C162.467 113.561 177.214 116.23 199.304 113.561C221.394 110.893 224.952 108.763 228.07 108.013C231.188 107.264 247.046 101.618 257.375 103.34C267.743 105.069 270.248 105.788 279.318 107.594C288.388 109.399 293.147 111.834 302.052 109.403C310.956 106.972 313.59 93.1592 313.59 93.1592Z" fill="#59857A"/>
<path d="M316.481 189.021L262.821 213.645C258.826 215.479 256.503 217.352 252.23 216.488C250.11 216.06 248.162 214.98 246.087 214.333C242.456 213.202 238.59 213.445 234.814 213.698C223.381 214.462 211.807 215.255 200.909 219.014C199.816 219.391 198.51 220.141 198.623 221.359C198.713 222.323 199.669 222.887 200.526 223.211C206.399 225.434 213.066 224.254 218.881 226.644C220.493 227.307 222.146 228.418 222.589 230.198C222.75 231.143 222.628 232.115 222.237 232.99C221.847 233.865 221.205 234.606 220.394 235.117C218.8 236.036 217.005 236.552 215.165 236.62C207.725 237.4 200.212 237.159 192.837 235.902C187.9 235.062 182.977 233.763 177.98 233.934C172.983 234.105 167.731 236.02 164.813 240.348C164.315 240.983 164.038 241.764 164.025 242.571C164.139 244.382 166.213 245.141 167.89 245.454L191.888 249.961C198.386 251.182 204.919 252.406 211.517 252.499C230.121 252.763 247.859 244.083 266.398 242.393C273.077 241.784 279.797 242.09 286.495 242.393L316.35 243.758" fill="#CB544F"/>
<path d="M316.481 189.021L262.821 213.645C258.826 215.479 256.503 217.352 252.23 216.488C250.11 216.06 248.162 214.98 246.087 214.333C242.456 213.202 238.59 213.445 234.814 213.698C223.381 214.462 211.807 215.255 200.909 219.014C199.816 219.391 198.51 220.141 198.623 221.359C198.713 222.323 199.669 222.887 200.526 223.211C206.399 225.434 213.066 224.254 218.881 226.644C220.493 227.307 222.146 228.418 222.589 230.198C222.75 231.143 222.628 232.115 222.237 232.99C221.847 233.865 221.205 234.606 220.394 235.117C218.8 236.036 217.005 236.552 215.165 236.62C207.725 237.4 200.212 237.159 192.837 235.902C187.9 235.062 182.977 233.763 177.98 233.934C172.983 234.105 167.731 236.02 164.813 240.348C164.315 240.983 164.038 241.764 164.025 242.571C164.139 244.382 166.213 245.141 167.89 245.454L191.888 249.961C198.386 251.182 204.919 252.406 211.517 252.499C230.121 252.763 247.859 244.083 266.398 242.393C273.077 241.784 279.797 242.09 286.495 242.393L316.35 243.758" stroke="#CB544F" stroke-miterlimit="10"/>
<path d="M163.777 242.564C163.777 242.564 163.038 245.189 168.56 246.455C174.437 247.803 189.682 250.232 193.473 250.953C197.264 251.674 213.188 253.306 218.638 252.502C224.775 251.596 228.249 251.583 240.301 248.181C251.864 244.918 261.488 243.373 268.797 243.373C276.105 243.373 285.269 243.466 291.629 243.466C297.989 243.466 316.019 244.544 316.461 244.801L316.479 240.13C316.479 240.13 286.118 236.917 261.181 239.977C236.245 243.037 244.524 244.371 224.274 246.858C204.023 249.345 178.405 244.13 168.223 242.879C158.041 241.627 163.773 242.562 163.773 242.562" fill="#8F3B38"/>
<path d="M162.548 77.3773L200.144 75.516C208.483 75.1015 216.855 74.6869 225.045 73.3712C229.971 72.5794 234.899 71.4336 239.093 69.2298C244.26 66.5146 247.956 62.9287 251.474 58.8778C255.271 54.5027 251.806 58.6614 257.517 51.4624C261.48 46.468 260.477 39.5732 265.038 34.9129C265.937 33.8877 267.149 33.1858 268.487 32.9148C269.406 32.8045 270.339 32.9411 271.187 33.3106C272.036 33.68 272.771 34.2689 273.316 35.0165C274.151 36.378 274.537 37.9661 274.423 39.5583C274.404 49.9485 272.125 52.6845 269.394 62.8458C269.096 63.9552 268.871 65.2104 269.687 66.1407C270.409 66.9631 271.737 67.279 272.979 67.449C283.395 68.8808 293.428 64.0024 303.896 62.8293C307.146 62.4653 310.766 62.5424 313.297 64.2047C316.293 66.1713 316.763 69.6378 316.779 72.727C316.8 81.7285 314.949 90.6363 311.344 98.8865C309.792 102.471 307.686 106.192 303.638 108.197C299.357 110.319 293.882 110.034 288.931 109.275C276.314 107.332 264.217 102.751 251.362 102.767C242.8 102.777 234.48 104.839 226.27 106.769C205.342 111.527 183.926 113.805 162.465 113.556" fill="#97C1B7"/>
<path d="M313.59 93.1592C313.692 93.8689 305.416 108.802 278.6 102.553C251.785 96.3031 242.318 100.026 242.318 100.026C242.318 100.026 228.659 103.996 220.888 105.761C213.117 107.527 194.614 109.735 162.467 109.735V113.561C162.467 113.561 177.214 116.23 199.304 113.561C221.394 110.893 224.952 108.763 228.07 108.013C231.188 107.264 247.046 101.618 257.375 103.34C267.743 105.069 270.248 105.788 279.318 107.594C288.388 109.399 293.147 111.834 302.052 109.403C310.956 106.972 313.59 93.1592 313.59 93.1592Z" fill="#59857A"/>
<path d="M316.481 189.021L262.821 213.645C258.826 215.479 256.503 217.352 252.23 216.488C250.11 216.06 248.162 214.98 246.087 214.333C242.456 213.202 238.59 213.445 234.814 213.698C223.381 214.462 211.807 215.255 200.909 219.014C199.816 219.391 198.51 220.141 198.623 221.359C198.713 222.323 199.669 222.887 200.526 223.211C206.399 225.434 213.066 224.254 218.881 226.644C220.493 227.307 222.146 228.418 222.589 230.198C222.75 231.143 222.628 232.115 222.237 232.99C221.847 233.865 221.205 234.606 220.394 235.117C218.8 236.036 217.005 236.552 215.165 236.62C207.725 237.4 200.212 237.159 192.837 235.902C187.9 235.062 182.977 233.763 177.98 233.934C172.983 234.105 167.731 236.02 164.813 240.348C164.315 240.983 164.038 241.764 164.025 242.571C164.139 244.382 166.213 245.141 167.89 245.454L191.888 249.961C198.386 251.182 204.919 252.406 211.517 252.499C230.121 252.763 247.859 244.083 266.398 242.393C273.077 241.784 279.797 242.09 286.495 242.393L316.35 243.758" fill="#CB544F"/>
<path d="M316.481 189.021L262.821 213.645C258.826 215.479 256.503 217.352 252.23 216.488C250.11 216.06 248.162 214.98 246.087 214.333C242.456 213.202 238.59 213.445 234.814 213.698C223.381 214.462 211.807 215.255 200.909 219.014C199.816 219.391 198.51 220.141 198.623 221.359C198.713 222.323 199.669 222.887 200.526 223.211C206.399 225.434 213.066 224.254 218.881 226.644C220.493 227.307 222.146 228.418 222.589 230.198C222.75 231.143 222.628 232.115 222.237 232.99C221.847 233.865 221.205 234.606 220.394 235.117C218.8 236.036 217.005 236.552 215.165 236.62C207.725 237.4 200.212 237.159 192.837 235.902C187.9 235.062 182.977 233.763 177.98 233.934C172.983 234.105 167.731 236.02 164.813 240.348C164.315 240.983 164.038 241.764 164.025 242.571C164.139 244.382 166.213 245.141 167.89 245.454L191.888 249.961C198.386 251.182 204.919 252.406 211.517 252.499C230.121 252.763 247.859 244.083 266.398 242.393C273.077 241.784 279.797 242.09 286.495 242.393L316.35 243.758" stroke="#CB544F" stroke-miterlimit="10"/>
<path d="M163.777 242.564C163.777 242.564 163.038 245.189 168.56 246.455C174.437 247.803 189.682 250.232 193.473 250.953C197.264 251.674 213.188 253.306 218.638 252.502C224.775 251.596 228.249 251.583 240.301 248.181C251.864 244.918 261.488 243.373 268.797 243.373C276.105 243.373 285.269 243.466 291.629 243.466C297.989 243.466 316.019 244.544 316.461 244.801L316.479 240.13C316.479 240.13 286.118 236.917 261.181 239.977C236.245 243.037 244.524 244.371 224.274 246.858C204.023 249.345 178.405 244.13 168.223 242.879C158.041 241.627 163.773 242.562 163.773 242.562" fill="#8F3B38"/>
</svg>
