<svg width="521" height="299" viewBox="0 0 521 299" fill="none" xmlns="http://www.w3.org/2000/svg">
<rect y="15.074" width="506.944" height="283.926" fill="black"/>
<rect x="14.5558" y="0.581055" width="505.944" height="282.926" fill="#234866" stroke="black"/>
<path d="M241.217 142.9H232.101L229.624 148.581H223.916L236.738 121.898L249.421 148.581H243.674L241.217 142.9ZM239.235 138.446L236.738 132.31L234.083 138.446H239.235Z" fill="#66C6E3"/>
<path d="M254.237 146.385L255.049 141.416C257.107 143.266 259.736 144.356 262.5 144.504C264.859 144.504 266.107 143.158 266.107 141.495C266.107 140.129 265.334 138.922 262.837 138.11L261.252 137.596C256.555 136.091 254.91 133.181 254.91 129.816C254.923 128.771 255.151 127.739 255.581 126.785C256.011 125.832 256.633 124.977 257.409 124.275C258.184 123.573 259.097 123.038 260.089 122.704C261.081 122.37 262.131 122.244 263.174 122.334C265.66 122.382 268.098 123.02 270.289 124.194L269.516 129.044C267.612 127.763 265.405 127.005 263.115 126.847C262.721 126.797 262.322 126.83 261.942 126.945C261.563 127.06 261.212 127.253 260.912 127.513C260.613 127.773 260.372 128.093 260.205 128.452C260.038 128.812 259.949 129.202 259.944 129.598C259.944 131.004 260.717 132.112 263.372 132.944L264.938 133.458C269.476 134.923 271.24 137.912 271.24 141.179C271.24 145.335 268.267 149.097 262.56 149.097C259.575 149.05 256.674 148.105 254.237 146.385V146.385Z" fill="#66C6E3"/>
<path d="M294.05 143.672L293.277 148.661H278.988V123.145L284.22 122.531V143.672H294.05Z" fill="#66C6E3"/>
<path d="M203.168 165.447V186.192H197.936V165.447H191.158L191.931 160.557H209.152L209.886 165.447H203.168Z" fill="#66C6E3"/>
<path d="M214.226 173.365C214.166 170.648 214.919 167.975 216.387 165.686C217.856 163.398 219.973 161.599 222.47 160.518C224.966 159.437 227.728 159.124 230.404 159.617C233.079 160.111 235.547 161.39 237.492 163.29C239.437 165.191 240.771 167.627 241.324 170.288C241.877 172.95 241.624 175.715 240.597 178.232C239.569 180.748 237.815 182.902 235.557 184.419C233.299 185.936 230.64 186.746 227.919 186.746C226.135 186.786 224.361 186.469 222.701 185.814C221.041 185.16 219.529 184.18 218.254 182.934C216.978 181.687 215.965 180.199 215.273 178.555C214.581 176.912 214.225 175.148 214.226 173.365ZM236.243 173.365C236.231 171.723 235.733 170.122 234.811 168.762C233.889 167.403 232.585 166.347 231.063 165.726C229.542 165.106 227.87 164.95 226.259 165.277C224.649 165.605 223.171 166.401 222.013 167.566C220.855 168.732 220.068 170.213 219.752 171.824C219.435 173.435 219.604 175.104 220.235 176.62C220.867 178.135 221.934 179.43 223.301 180.341C224.669 181.252 226.276 181.738 227.919 181.738C229.02 181.746 230.11 181.535 231.128 181.116C232.145 180.697 233.068 180.08 233.844 179.3C234.619 178.52 235.231 177.593 235.642 176.574C236.054 175.555 236.258 174.464 236.243 173.365V173.365Z" fill="#66C6E3"/>
<path d="M281.149 171.227V184.312C278.447 185.883 275.377 186.709 272.251 186.707C270.478 186.736 268.718 186.412 267.072 185.754C265.426 185.097 263.928 184.119 262.665 182.877C261.401 181.635 260.398 180.155 259.713 178.521C259.028 176.888 258.676 175.136 258.676 173.365C258.691 171.572 259.064 169.799 259.772 168.152C260.481 166.504 261.511 165.014 262.802 163.768C264.093 162.522 265.62 161.546 267.294 160.896C268.967 160.246 270.753 159.936 272.548 159.983C275.079 159.977 277.574 160.582 279.821 161.745L279.048 166.714C277.121 165.532 274.908 164.895 272.647 164.873C271.514 164.844 270.387 165.042 269.332 165.456C268.278 165.87 267.317 166.492 266.508 167.284C265.698 168.076 265.056 169.022 264.62 170.067C264.183 171.112 263.961 172.233 263.967 173.365C263.956 174.474 264.168 175.575 264.588 176.602C265.009 177.628 265.631 178.561 266.417 179.344C267.203 180.128 268.139 180.747 269.167 181.165C270.196 181.583 271.298 181.791 272.409 181.778C273.768 181.821 275.119 181.571 276.373 181.045V175.681H270.586L271.299 171.227H281.149Z" fill="#66C6E3"/>
<path d="M288.402 173.365C288.343 170.647 289.096 167.973 290.565 165.684C292.034 163.396 294.153 161.597 296.65 160.516C299.148 159.436 301.911 159.123 304.587 159.619C307.264 160.114 309.731 161.395 311.675 163.297C313.62 165.2 314.952 167.638 315.503 170.301C316.053 172.963 315.797 175.729 314.767 178.245C313.737 180.762 311.979 182.914 309.719 184.429C307.458 185.943 304.797 186.75 302.076 186.746C300.292 186.786 298.519 186.469 296.861 185.814C295.202 185.159 293.691 184.179 292.417 182.933C291.143 181.686 290.131 180.197 289.442 178.554C288.752 176.911 288.399 175.147 288.402 173.365V173.365ZM310.399 173.365C310.387 171.723 309.889 170.122 308.967 168.762C308.046 167.403 306.742 166.347 305.22 165.726C303.698 165.106 302.026 164.95 300.416 165.277C298.805 165.605 297.328 166.401 296.169 167.566C295.011 168.732 294.225 170.213 293.908 171.824C293.592 173.435 293.76 175.104 294.392 176.62C295.023 178.135 296.09 179.43 297.458 180.341C298.825 181.252 300.432 181.738 302.076 181.738C303.176 181.746 304.267 181.535 305.284 181.116C306.301 180.697 307.225 180.08 308 179.3C308.775 178.52 309.387 177.593 309.799 176.574C310.211 175.555 310.415 174.464 310.399 173.365V173.365Z" fill="#66C6E3"/>
<path d="M176.548 77.3773L214.144 75.516C222.483 75.1015 230.855 74.6869 239.045 73.3712C243.971 72.5794 248.899 71.4336 253.093 69.2298C258.26 66.5146 261.956 62.9287 265.474 58.8778C269.271 54.5027 265.806 58.6614 271.517 51.4624C275.48 46.468 274.477 39.5732 279.038 34.9129C279.937 33.8877 281.149 33.1858 282.487 32.9148C283.406 32.8045 284.339 32.9411 285.187 33.3106C286.036 33.68 286.771 34.2689 287.316 35.0165C288.151 36.378 288.537 37.9661 288.423 39.5583C288.404 49.9485 286.125 52.6845 283.394 62.8458C283.096 63.9552 282.871 65.2104 283.687 66.1407C284.409 66.9631 285.737 67.279 286.979 67.449C297.395 68.8808 307.428 64.0024 317.896 62.8293C321.146 62.4653 324.766 62.5424 327.297 64.2047C330.293 66.1713 330.763 69.6378 330.779 72.727C330.8 81.7285 328.949 90.6363 325.344 98.8865C323.792 102.471 321.686 106.192 317.638 108.197C313.357 110.319 307.882 110.034 302.931 109.275C290.314 107.332 278.217 102.751 265.362 102.767C256.8 102.777 248.48 104.839 240.27 106.769C219.342 111.527 197.926 113.805 176.465 113.556" fill="#97C1B7"/>
<path d="M327.59 93.1592C327.692 93.8689 319.416 108.802 292.6 102.553C265.785 96.3031 256.318 100.026 256.318 100.026C256.318 100.026 242.659 103.996 234.888 105.761C227.117 107.527 208.614 109.735 176.467 109.735V113.561C176.467 113.561 191.214 116.23 213.304 113.561C235.394 110.893 238.952 108.763 242.07 108.013C245.188 107.264 261.046 101.618 271.375 103.34C281.743 105.069 284.248 105.788 293.318 107.594C302.388 109.399 307.147 111.834 316.052 109.403C324.956 106.972 327.59 93.1592 327.59 93.1592Z" fill="#59857A"/>
<path d="M330.481 189.021L276.821 213.645C272.826 215.479 270.503 217.352 266.23 216.488C264.11 216.06 262.162 214.98 260.087 214.333C256.456 213.202 252.59 213.445 248.814 213.698C237.381 214.462 225.807 215.255 214.909 219.014C213.816 219.391 212.51 220.141 212.623 221.359C212.713 222.323 213.669 222.887 214.526 223.211C220.399 225.434 227.066 224.254 232.881 226.644C234.493 227.307 236.146 228.418 236.589 230.198C236.75 231.143 236.628 232.115 236.237 232.99C235.847 233.865 235.205 234.606 234.394 235.117C232.8 236.036 231.005 236.552 229.165 236.62C221.725 237.4 214.212 237.159 206.837 235.902C201.9 235.062 196.977 233.763 191.98 233.934C186.983 234.105 181.731 236.02 178.813 240.348C178.315 240.983 178.038 241.764 178.025 242.571C178.139 244.382 180.213 245.141 181.89 245.454L205.888 249.961C212.386 251.182 218.919 252.406 225.517 252.499C244.121 252.763 261.859 244.083 280.398 242.393C287.077 241.784 293.797 242.09 300.495 242.393L330.35 243.758" fill="#CB544F"/>
<path d="M330.481 189.021L276.821 213.645C272.826 215.479 270.503 217.352 266.23 216.488C264.11 216.06 262.162 214.98 260.087 214.333C256.456 213.202 252.59 213.445 248.814 213.698C237.381 214.462 225.807 215.255 214.909 219.014C213.816 219.391 212.51 220.141 212.623 221.359C212.713 222.323 213.669 222.887 214.526 223.211C220.399 225.434 227.066 224.254 232.881 226.644C234.493 227.307 236.146 228.418 236.589 230.198C236.75 231.143 236.628 232.115 236.237 232.99C235.847 233.865 235.205 234.606 234.394 235.117C232.8 236.036 231.005 236.552 229.165 236.62C221.725 237.4 214.212 237.159 206.837 235.902C201.9 235.062 196.977 233.763 191.98 233.934C186.983 234.105 181.731 236.02 178.813 240.348C178.315 240.983 178.038 241.764 178.025 242.571C178.139 244.382 180.213 245.141 181.89 245.454L205.888 249.961C212.386 251.182 218.919 252.406 225.517 252.499C244.121 252.763 261.859 244.083 280.398 242.393C287.077 241.784 293.797 242.09 300.495 242.393L330.35 243.758" stroke="#CB544F" stroke-miterlimit="10"/>
<path d="M177.777 242.564C177.777 242.564 177.038 245.189 182.56 246.455C188.437 247.803 203.682 250.232 207.473 250.953C211.264 251.674 227.188 253.306 232.638 252.502C238.775 251.596 242.249 251.583 254.301 248.181C265.864 244.918 275.488 243.373 282.797 243.373C290.105 243.373 299.269 243.466 305.629 243.466C311.989 243.466 330.019 244.544 330.461 244.801L330.479 240.13C330.479 240.13 300.118 236.917 275.181 239.977C250.245 243.037 258.524 244.371 238.274 246.858C218.023 249.345 192.405 244.13 182.223 242.879C172.041 241.627 177.773 242.562 177.773 242.562" fill="#8F3B38"/>
<path d="M176.548 77.3773L214.144 75.516C222.483 75.1015 230.855 74.6869 239.045 73.3712C243.971 72.5794 248.899 71.4336 253.093 69.2298C258.26 66.5146 261.956 62.9287 265.474 58.8778C269.271 54.5027 265.806 58.6614 271.517 51.4624C275.48 46.468 274.477 39.5732 279.038 34.9129C279.937 33.8877 281.149 33.1858 282.487 32.9148C283.406 32.8045 284.339 32.9411 285.187 33.3106C286.036 33.68 286.771 34.2689 287.316 35.0165C288.151 36.378 288.537 37.9661 288.423 39.5583C288.404 49.9485 286.125 52.6845 283.394 62.8458C283.096 63.9552 282.871 65.2104 283.687 66.1407C284.409 66.9631 285.737 67.279 286.979 67.449C297.395 68.8808 307.428 64.0024 317.896 62.8293C321.146 62.4653 324.766 62.5424 327.297 64.2047C330.293 66.1713 330.763 69.6378 330.779 72.727C330.8 81.7285 328.949 90.6363 325.344 98.8865C323.792 102.471 321.686 106.192 317.638 108.197C313.357 110.319 307.882 110.034 302.931 109.275C290.314 107.332 278.217 102.751 265.362 102.767C256.8 102.777 248.48 104.839 240.27 106.769C219.342 111.527 197.926 113.805 176.465 113.556" fill="#97C1B7"/>
<path d="M327.59 93.1592C327.692 93.8689 319.416 108.802 292.6 102.553C265.785 96.3031 256.318 100.026 256.318 100.026C256.318 100.026 242.659 103.996 234.888 105.761C227.117 107.527 208.614 109.735 176.467 109.735V113.561C176.467 113.561 191.214 116.23 213.304 113.561C235.394 110.893 238.952 108.763 242.07 108.013C245.188 107.264 261.046 101.618 271.375 103.34C281.743 105.069 284.248 105.788 293.318 107.594C302.388 109.399 307.147 111.834 316.052 109.403C324.956 106.972 327.59 93.1592 327.59 93.1592Z" fill="#59857A"/>
<path d="M330.481 189.021L276.821 213.645C272.826 215.479 270.503 217.352 266.23 216.488C264.11 216.06 262.162 214.98 260.087 214.333C256.456 213.202 252.59 213.445 248.814 213.698C237.381 214.462 225.807 215.255 214.909 219.014C213.816 219.391 212.51 220.141 212.623 221.359C212.713 222.323 213.669 222.887 214.526 223.211C220.399 225.434 227.066 224.254 232.881 226.644C234.493 227.307 236.146 228.418 236.589 230.198C236.75 231.143 236.628 232.115 236.237 232.99C235.847 233.865 235.205 234.606 234.394 235.117C232.8 236.036 231.005 236.552 229.165 236.62C221.725 237.4 214.212 237.159 206.837 235.902C201.9 235.062 196.977 233.763 191.98 233.934C186.983 234.105 181.731 236.02 178.813 240.348C178.315 240.983 178.038 241.764 178.025 242.571C178.139 244.382 180.213 245.141 181.89 245.454L205.888 249.961C212.386 251.182 218.919 252.406 225.517 252.499C244.121 252.763 261.859 244.083 280.398 242.393C287.077 241.784 293.797 242.09 300.495 242.393L330.35 243.758" fill="#CB544F"/>
<path d="M330.481 189.021L276.821 213.645C272.826 215.479 270.503 217.352 266.23 216.488C264.11 216.06 262.162 214.98 260.087 214.333C256.456 213.202 252.59 213.445 248.814 213.698C237.381 214.462 225.807 215.255 214.909 219.014C213.816 219.391 212.51 220.141 212.623 221.359C212.713 222.323 213.669 222.887 214.526 223.211C220.399 225.434 227.066 224.254 232.881 226.644C234.493 227.307 236.146 228.418 236.589 230.198C236.75 231.143 236.628 232.115 236.237 232.99C235.847 233.865 235.205 234.606 234.394 235.117C232.8 236.036 231.005 236.552 229.165 236.62C221.725 237.4 214.212 237.159 206.837 235.902C201.9 235.062 196.977 233.763 191.98 233.934C186.983 234.105 181.731 236.02 178.813 240.348C178.315 240.983 178.038 241.764 178.025 242.571C178.139 244.382 180.213 245.141 181.89 245.454L205.888 249.961C212.386 251.182 218.919 252.406 225.517 252.499C244.121 252.763 261.859 244.083 280.398 242.393C287.077 241.784 293.797 242.09 300.495 242.393L330.35 243.758" stroke="#CB544F" stroke-miterlimit="10"/>
<path d="M177.777 242.564C177.777 242.564 177.038 245.189 182.56 246.455C188.437 247.803 203.682 250.232 207.473 250.953C211.264 251.674 227.188 253.306 232.638 252.502C238.775 251.596 242.249 251.583 254.301 248.181C265.864 244.918 275.488 243.373 282.797 243.373C290.105 243.373 299.269 243.466 305.629 243.466C311.989 243.466 330.019 244.544 330.461 244.801L330.479 240.13C330.479 240.13 300.118 236.917 275.181 239.977C250.245 243.037 258.524 244.371 238.274 246.858C218.023 249.345 192.405 244.13 182.223 242.879C172.041 241.627 177.773 242.562 177.773 242.562" fill="#8F3B38"/>
</svg>
