<svg width="39" height="44" viewBox="0 0 39 44" fill="none" xmlns="http://www.w3.org/2000/svg">
<path d="M17.5711 2.03793C18.1088 0.0761203 20.8912 0.0761166 21.4289 2.03793L24.8041 14.3533C24.9705 14.9605 25.4131 15.4539 25.9988 15.685L37.2861 20.1396C38.9739 20.8057 38.9739 23.1943 37.2861 23.8604L25.9988 28.315C25.4131 28.5461 24.9705 29.0395 24.8041 29.6467L21.4289 41.9621C20.8912 43.9239 18.1088 43.9239 17.5711 41.9621L14.1959 29.6467C14.0295 29.0395 13.5869 28.5461 13.0012 28.315L1.71386 23.8604C0.0261353 23.1943 0.0261333 20.8057 1.71386 20.1396L13.0012 15.685C13.5869 15.4539 14.0295 14.9605 14.1959 14.3533L17.5711 2.03793Z" fill="#62B6CB"/>
</svg>
