<svg width="90" height="108" viewBox="0 0 90 108" fill="none" xmlns="http://www.w3.org/2000/svg">
<path d="M47.048 1.22786C34.347 3.18186 33.2975 26.349 34.3552 36.133C29.9128 25.9788 17.6959 25.5557 12.1428 26.6134C8.1763 27.6712 0.401968 32.9598 1.03661 45.6526C1.67125 58.3454 19.2825 62.0475 28.0088 62.3119C14.6814 70.5622 13.7294 86.9042 13.7294 94.0439C13.7294 97.2171 16.268 104.833 29.5954 106.737C42.9228 108.641 46.7836 92.1929 47.048 83.731C49.1635 90.3419 56.5676 102.294 69.2604 97.2171C81.9532 92.14 70.3181 73.947 62.914 65.4851C72.4336 66.2784 93.1429 65.8053 88.2996 47.2392C83.5398 28.9934 61.063 39.3063 62.914 33.7532C64.5006 28.9934 67.6738 -1.94533 47.048 1.22786Z" fill="#62B6CB" stroke="#62B6CB"/>
<path d="M56.115 54.1527C56.115 58.8471 52.3094 62.6527 47.615 62.6527C42.9206 62.6527 39.115 58.8471 39.115 54.1527C39.115 49.4582 42.9206 45.6527 47.615 45.6527C52.3094 45.6527 56.115 49.4582 56.115 54.1527Z" fill="#C7D66D"/>
</svg>
