<svg width="519" height="300" viewBox="0 0 519 300" fill="none" xmlns="http://www.w3.org/2000/svg">
<rect x="11.9442" y="16" width="506.944" height="283.926" rx="10" fill="black"/>
<rect x="0.5" y="0.5" width="505.944" height="282.926" rx="9.5" fill="white" stroke="black"/>
<path d="M343.764 134.972C346.328 134.972 348.406 132.893 348.406 130.329C348.406 127.765 346.328 125.687 343.764 125.687C341.2 125.687 339.121 127.765 339.121 130.329C339.121 132.893 341.2 134.972 343.764 134.972Z" fill="#0C2167"/>
<path d="M374.944 122.935L366.863 116L343.878 142.71L334.994 135.029L327.944 143.283L344.681 157.555L374.944 122.935Z" fill="#FF951A"/>
<path d="M112.024 158.72C119.344 158.72 125.404 156.08 129.364 151.22L123.124 145.46C120.304 148.76 116.764 150.44 112.564 150.44C104.704 150.44 99.1242 144.92 99.1242 137C99.1242 129.08 104.704 123.56 112.564 123.56C116.764 123.56 120.304 125.24 123.124 128.48L129.364 122.72C125.404 117.92 119.344 115.28 112.084 115.28C99.0042 115.28 89.2842 124.34 89.2842 137C89.2842 149.66 99.0042 158.72 112.024 158.72ZM164.728 116V132.56H145.648V116H135.928V158H145.648V140.78H164.728V158H174.448V116H164.728ZM194.045 150.2V140.48H213.545V132.92H194.045V123.8H216.125V116H184.385V158H216.905V150.2H194.045ZM244.622 158.72C251.942 158.72 258.002 156.08 261.962 151.22L255.722 145.46C252.902 148.76 249.362 150.44 245.162 150.44C237.302 150.44 231.722 144.92 231.722 137C231.722 129.08 237.302 123.56 245.162 123.56C249.362 123.56 252.902 125.24 255.722 128.48L261.962 122.72C258.002 117.92 251.942 115.28 244.682 115.28C231.602 115.28 221.882 124.34 221.882 137C221.882 149.66 231.602 158.72 244.622 158.72ZM297.266 158H308.606L290.186 134.72L307.586 116H296.786L278.186 135.62V116H268.526V158H278.186V147.38L283.826 141.5L297.266 158Z" fill="#0C2167"/>
<path d="M403.844 116V141.5L382.964 116H374.924V158H384.524V132.5L405.464 158H413.444V116H403.844Z" fill="#0C2167"/>
</svg>
