<svg width="521" height="299" viewBox="0 0 521 299" fill="none" xmlns="http://www.w3.org/2000/svg">
<rect y="14.9929" width="506.944" height="283.926" fill="black"/>
<rect x="14.5558" y="0.5" width="505.944" height="282.926" fill="white" stroke="black"/>
<path d="M357.82 134.972C360.384 134.972 362.462 132.893 362.462 130.329C362.462 127.765 360.384 125.687 357.82 125.687C355.255 125.687 353.177 127.765 353.177 130.329C353.177 132.893 355.255 134.972 357.82 134.972Z" fill="#0C2167"/>
<path d="M389 122.935L380.918 116L357.934 142.71L349.05 135.029L342 143.283L358.737 157.555L389 122.935Z" fill="#FF951A"/>
<path d="M126.08 158.72C133.4 158.72 139.46 156.08 143.42 151.22L137.18 145.46C134.36 148.76 130.82 150.44 126.62 150.44C118.76 150.44 113.18 144.92 113.18 137C113.18 129.08 118.76 123.56 126.62 123.56C130.82 123.56 134.36 125.24 137.18 128.48L143.42 122.72C139.46 117.92 133.4 115.28 126.14 115.28C113.06 115.28 103.34 124.34 103.34 137C103.34 149.66 113.06 158.72 126.08 158.72ZM178.784 116V132.56H159.704V116H149.984V158H159.704V140.78H178.784V158H188.504V116H178.784ZM208.101 150.2V140.48H227.601V132.92H208.101V123.8H230.181V116H198.441V158H230.961V150.2H208.101ZM258.678 158.72C265.998 158.72 272.058 156.08 276.018 151.22L269.778 145.46C266.958 148.76 263.418 150.44 259.218 150.44C251.358 150.44 245.778 144.92 245.778 137C245.778 129.08 251.358 123.56 259.218 123.56C263.418 123.56 266.958 125.24 269.778 128.48L276.018 122.72C272.058 117.92 265.998 115.28 258.738 115.28C245.658 115.28 235.938 124.34 235.938 137C235.938 149.66 245.658 158.72 258.678 158.72ZM311.322 158H322.662L304.242 134.72L321.642 116H310.842L292.242 135.62V116H282.582V158H292.242V147.38L297.882 141.5L311.322 158Z" fill="#0C2167"/>
<path d="M417.9 116V141.5L397.02 116H388.98V158H398.58V132.5L419.52 158H427.5V116H417.9Z" fill="#0C2167"/>
</svg>
