<svg width="205" height="139" viewBox="0 0 205 139" fill="none" xmlns="http://www.w3.org/2000/svg">
<path d="M48.073 19.3964C60.918 19.4232 71.83 25.9459 75.7061 34.9513C79.6196 25.9621 90.5699 19.4849 103.404 19.5117L104.051 19.513C116.896 19.5398 127.808 26.0625 131.684 35.0679C135.609 26.0788 146.559 19.6016 159.404 19.6283L160.051 19.6297C175.474 19.6618 188.121 29.0597 189.135 40.8784C189.179 40.9916 189.201 41.1135 189.201 41.2353L189.079 99.6742C189.079 99.796 189.056 99.9178 189.011 100.031C187.949 111.854 175.263 121.19 159.84 121.158L159.193 121.157C146.348 121.13 135.436 114.607 131.56 105.602C127.646 114.6 116.696 121.068 103.862 121.042L103.215 121.04C90.3695 121.013 79.4575 114.491 75.5703 105.485C71.6567 114.483 60.7065 120.952 47.8726 120.925L47.2253 120.924C31.1328 120.89 18.0523 110.656 18.0785 98.0997L18.1951 42.0972C18.199 29.541 31.322 19.3615 47.4145 19.395L48.073 19.3964Z" fill="#F778B9"/>
<path d="M67.3569 66.292C70.0749 66.292 71.4069 63.376 72.2529 60.622L74.1609 54.412H75.6909C77.0589 54.412 77.9589 53.476 78.4809 52.036H74.8989C75.4749 50.308 76.9329 48.526 79.3989 48.526C81.9189 48.526 81.2349 50.65 83.3049 50.65C84.1689 50.65 84.7809 50.056 84.7809 49.174C84.7809 47.572 82.7109 46.6 80.8029 46.6C77.4189 46.6 75.7809 48.724 74.5029 51.424C73.9269 52.63 72.9729 53.458 71.6049 53.674L71.4429 54.106C72.6849 54.106 73.6929 54.124 73.3869 55.132L71.9649 59.758C71.2449 62.098 69.8229 63.88 67.5729 63.88C65.6649 63.88 64.8549 63.142 64.5129 62.35L64.2069 62.476C64.0089 64.42 64.8549 66.292 67.3569 66.292ZM81.1809 61.396C82.8189 61.396 84.0789 59.614 84.4389 58.102L84.0969 57.94C83.8449 58.804 82.8729 59.146 81.9729 59.146C81.0549 59.146 80.2269 58.822 80.2269 57.994C80.2269 56.878 83.1429 54.934 83.1429 53.098C83.1429 52.252 82.5309 51.64 81.5409 51.64C79.7949 51.64 79.0749 53.044 78.3909 54.682L78.6969 54.808C79.2009 54.124 79.6149 53.89 80.4789 53.89C81.3249 53.89 81.6669 54.232 81.6669 54.754C81.6669 55.798 79.0209 57.724 79.0209 59.398C79.0209 60.712 79.9569 61.396 81.1809 61.396ZM88.0713 61.396C89.7093 61.396 90.7893 59.614 91.1493 58.102L90.8073 57.94C90.5553 58.804 89.5833 59.146 88.6833 59.146C87.7113 59.146 86.9193 58.822 86.9193 57.994C86.9193 55.996 90.9513 52.378 90.9513 49.624C90.9513 48.508 90.1953 47.698 88.9353 47.698C87.0453 47.698 85.9653 49.102 85.2813 50.74L85.5873 50.866C86.0733 50.38 86.9013 50.002 87.9093 50.002C88.9713 50.002 89.6913 50.38 89.6913 51.208C89.6913 53.224 85.8213 56.896 85.8213 59.236C85.8213 60.658 86.8473 61.396 88.0713 61.396ZM91.6387 60.766V61H97.1647V60.766C96.0847 60.478 95.3827 59.524 95.6707 57.472C95.7247 57.058 95.8147 56.608 95.9227 56.158C96.6247 54.448 98.4607 53.944 99.6307 53.944C100.837 53.944 101.629 54.34 101.629 55.564C101.629 57.652 100.153 60.424 98.0647 60.766V61H103.591V60.766C102.511 60.478 101.737 59.704 101.737 57.634C101.737 57.166 101.935 56.482 102.169 55.78C102.961 54.376 104.617 53.944 105.715 53.944C106.723 53.944 107.587 54.214 107.587 54.826C107.587 55.924 105.355 58.084 105.373 59.524C105.391 60.658 106.039 61.396 107.263 61.396C108.901 61.396 109.981 59.614 110.341 58.102L109.999 57.94C109.747 58.804 108.775 59.146 107.875 59.146C106.867 59.146 106.507 58.678 106.507 58.156C106.507 57.076 108.901 54.664 108.901 53.44C108.901 52.18 107.929 51.622 106.741 51.622C105.031 51.622 103.609 52.666 102.763 53.962C102.799 53.746 102.835 53.584 102.835 53.44C102.835 52.18 101.683 51.622 100.495 51.622C98.6587 51.622 97.1287 52.99 96.3367 54.538C96.4987 53.926 96.6247 53.404 96.6247 53.098C96.6247 52.252 96.1567 51.622 95.0947 51.622C93.5287 51.622 92.2687 53.044 91.5847 54.682L91.8907 54.808C92.2687 54.142 93.0247 53.872 93.9607 53.872C94.7527 53.872 95.6167 54.214 95.6167 55.564C95.6167 57.652 93.7267 60.424 91.6387 60.766ZM120.098 61.414C123.14 61.414 126.092 57.85 126.092 54.646C126.092 52.702 124.832 51.622 123.284 51.622C121.79 51.622 120.134 53.026 119.054 54.448C120.638 51.91 121.52 50.56 121.52 49.48C121.52 48.292 120.512 47.698 119.504 47.698C117.614 47.698 116.534 49.102 115.85 50.74L116.156 50.866C116.642 50.362 117.47 50.002 118.496 50.002C119.54 50.002 120.296 50.434 120.296 51.154C120.296 52.144 117.164 55.744 117.164 58.426C117.164 60.586 118.748 61.414 120.098 61.414ZM120.854 59.02C119.198 58.93 118.118 58.138 118.208 57.382C118.388 55.6 120.8 53.908 122.96 53.998C124.634 54.07 125.606 54.7 125.498 55.744C125.336 57.346 123.104 59.128 120.854 59.02ZM126.922 66.31C130.918 66.31 137.992 59.128 137.992 54.088C137.992 52.306 137.038 51.622 135.904 51.622C134.32 51.622 132.97 52.954 132.43 54.484L132.718 54.592C133.366 54.07 134.032 53.944 134.644 53.944C135.94 53.944 136.804 54.556 136.804 55.816C136.804 57.346 135.58 59.74 133.69 61.558L131.548 56.914C130.306 54.214 130.342 52.72 132.286 52.27L132.268 52.036H126.436L126.4 52.27C128.47 52.558 130.09 54.862 131.026 56.95L133.276 61.936C131.89 63.142 130.18 63.988 128.362 63.988C127.066 63.988 125.338 63.538 125.338 62.008L125.194 61.936C124.528 62.458 124.186 63.16 124.186 63.898C124.186 65.284 125.41 66.31 126.922 66.31ZM39.9978 89.414C41.3838 89.414 42.3378 88.19 42.9318 86.156L42.6438 86.066C42.3018 86.948 41.4198 87.182 40.6098 87.182C39.5838 87.182 39.3138 86.462 39.3138 85.976C39.3138 85.562 39.5658 84.806 40.0518 83.87C41.1678 81.71 42.9678 79.064 42.9678 77.408C42.9678 76.508 42.2118 75.698 40.9518 75.698C39.0618 75.698 37.9818 77.102 37.2978 78.74L37.6038 78.866C38.0898 78.38 38.9178 78.002 39.9258 78.002C40.9338 78.002 41.7978 78.38 41.7978 79.064C41.7978 79.622 41.2218 80.756 40.5558 81.764C40.3758 80.288 39.3498 79.64 38.0898 79.64C35.1018 79.64 32.0058 83.168 32.0058 86.372C32.0058 88.316 33.1938 89.396 34.8138 89.396C36.5238 89.396 37.9098 87.938 38.5398 86.696C38.1798 88.19 38.5758 89.414 39.9978 89.414ZM35.0298 87.074C33.5538 87.074 32.5638 86.498 32.6178 85.454C32.7078 83.834 34.7958 81.962 37.0098 81.962C38.6478 81.962 39.5478 82.7 39.5118 83.456C39.4218 85.238 37.1538 87.074 35.0298 87.074ZM51.596 89.414C52.982 89.414 53.936 88.19 54.53 86.156L54.242 86.066C53.9 86.948 53.018 87.182 52.208 87.182C51.182 87.182 50.912 86.498 50.93 86.012C50.93 85.562 51.146 84.788 51.65 83.87L53.738 80.036H53.072L52.136 81.692C51.956 80.27 50.948 79.64 49.742 79.64C46.808 79.64 43.766 83.168 43.766 86.372C43.766 88.316 44.936 89.396 46.52 89.396C48.14 89.396 49.454 88.046 50.102 86.84C49.796 88.28 50.21 89.414 51.596 89.414ZM46.736 87.074C45.296 87.074 44.324 86.498 44.378 85.454C44.468 83.834 46.502 81.962 48.68 81.962C50.282 81.962 51.164 82.7 51.128 83.456C51.038 85.238 48.824 87.074 46.736 87.074ZM58.8727 89.396C61.7527 89.396 65.3707 85.166 65.3707 81.71C65.3707 80.306 64.5967 79.622 63.4627 79.622C61.5547 79.622 60.3487 81.17 59.8087 82.7L60.0967 82.808C60.6907 82.286 61.3387 81.944 62.4367 81.944C63.4987 81.944 64.1827 82.736 64.1827 83.816C64.1827 85.544 62.5267 87.074 60.0967 87.074C58.3687 87.074 57.5407 86.318 57.5407 85.058C57.5407 83.852 59.1247 81.44 60.1687 80.036H56.1007L54.3187 83.402H54.6967C55.2907 82.52 55.9207 82.43 56.8567 82.43H58.1347C57.0547 84.032 56.3347 85.49 56.3347 86.822C56.3347 88.496 57.3787 89.396 58.8727 89.396ZM70.2373 78.38C70.9393 78.38 72.0013 77.732 72.0013 76.49C72.0013 75.968 71.6413 75.176 70.7773 75.176C69.9313 75.176 68.9233 75.914 68.9233 77.03C68.9233 78.002 69.5533 78.38 70.2373 78.38ZM69.3913 89.396C71.0293 89.396 72.2893 87.614 72.6493 86.102L72.3073 85.94C72.0553 86.804 71.0833 87.146 70.1833 87.146C69.2653 87.146 68.4373 86.822 68.4373 85.994C68.4373 84.878 71.3533 82.934 71.3533 81.098C71.3533 80.252 70.6873 79.64 69.6073 79.64C67.8433 79.64 66.7453 81.044 66.0613 82.682L66.3673 82.808C66.8893 82.106 67.5553 81.89 68.5093 81.89C69.3553 81.89 69.8773 82.232 69.8773 82.754C69.8773 83.798 67.2313 85.724 67.2313 87.398C67.2313 88.712 68.1673 89.396 69.3913 89.396ZM81.4998 89.414C82.8858 89.414 83.8398 88.19 84.4338 86.156L84.1458 86.066C83.8038 86.948 82.9218 87.182 82.1118 87.182C81.0858 87.182 80.8158 86.462 80.8158 85.976C80.8158 85.562 81.0678 84.806 81.5538 83.87C82.6698 81.71 84.4698 79.064 84.4698 77.408C84.4698 76.508 83.7138 75.698 82.4538 75.698C80.5638 75.698 79.4838 77.102 78.7998 78.74L79.1058 78.866C79.5918 78.38 80.4198 78.002 81.4278 78.002C82.4358 78.002 83.2998 78.38 83.2998 79.064C83.2998 79.622 82.7238 80.756 82.0578 81.764C81.8778 80.288 80.8518 79.64 79.5918 79.64C76.6038 79.64 73.5078 83.168 73.5078 86.372C73.5078 88.316 74.6958 89.396 76.3158 89.396C78.0258 89.396 79.4118 87.938 80.0418 86.696C79.6818 88.19 80.0778 89.414 81.4998 89.414ZM76.5318 87.074C75.0558 87.074 74.0658 86.498 74.1198 85.454C74.2098 83.834 76.2978 81.962 78.5118 81.962C80.1498 81.962 81.0498 82.7 81.0138 83.456C80.9238 85.238 78.6558 87.074 76.5318 87.074ZM93.3799 89.396C95.0179 89.396 96.0979 87.614 96.4579 86.102L96.1159 85.94C95.8639 86.804 94.8919 87.146 93.9919 87.146C93.0199 87.146 92.2279 86.822 92.2279 85.994C92.2279 83.996 96.2599 80.378 96.2599 77.624C96.2599 76.508 95.5039 75.698 94.2439 75.698C92.3539 75.698 91.2739 77.102 90.5899 78.74L90.8959 78.866C91.3819 78.38 92.2099 78.002 93.2179 78.002C94.2799 78.002 94.9999 78.38 94.9999 79.208C94.9999 81.224 91.1299 84.896 91.1299 87.236C91.1299 88.658 92.1559 89.396 93.3799 89.396ZM105.297 89.414C106.683 89.414 107.637 88.19 108.231 86.156L107.943 86.066C107.601 86.948 106.719 87.182 105.909 87.182C104.883 87.182 104.613 86.498 104.631 86.012C104.631 85.562 104.847 84.788 105.351 83.87L107.439 80.036H106.773L105.837 81.692C105.657 80.27 104.649 79.64 103.443 79.64C100.509 79.64 97.4672 83.168 97.4672 86.372C97.4672 88.316 98.6372 89.396 100.221 89.396C101.841 89.396 103.155 88.046 103.803 86.84C103.497 88.28 103.911 89.414 105.297 89.414ZM100.437 87.074C98.9972 87.074 98.0252 86.498 98.0792 85.454C98.1692 83.834 100.203 81.962 102.381 81.962C103.983 81.962 104.865 82.7 104.829 83.456C104.739 85.238 102.525 87.074 100.437 87.074ZM112.394 89.396C113.69 89.396 114.842 88.694 115.778 87.668C116.264 88.658 117.02 89.396 118.154 89.396C120.692 89.396 123.968 85.796 123.968 82.088C123.968 80.324 123.068 79.622 122.024 79.622C120.728 79.622 119.414 80.99 118.928 82.52L119.18 82.628C119.738 82.106 120.404 81.944 121.25 81.944C122.168 81.944 123.014 82.736 123.014 83.816C123.014 85.724 121.358 87.074 119.18 87.074C118.154 87.074 117.38 86.768 116.804 86.3C117.758 84.77 118.316 82.952 118.316 81.656C118.316 81.008 118.154 79.622 117.326 79.622C116.21 79.622 115.13 81.944 115.13 84.392C115.13 85.076 115.22 85.85 115.4 86.588C114.878 86.894 114.212 87.074 113.438 87.074C111.908 87.074 111.242 86.318 111.242 85.292C111.242 83.492 112.826 81.44 113.87 80.036H109.802L108.02 83.402H108.398C108.992 82.52 109.622 82.43 110.558 82.43H111.71C110.63 84.032 109.892 85.49 109.892 86.822C109.892 88.496 110.9 89.396 112.394 89.396ZM115.634 83.672C115.634 82.502 116.192 81.908 116.822 81.908C117.29 81.908 117.578 82.232 117.578 82.88C117.578 83.51 117.254 84.842 116.354 85.832C115.868 85.22 115.634 84.428 115.634 83.672ZM124.861 88.766V89H130.387V88.766C129.307 88.478 128.605 87.524 128.893 85.472C128.911 85.364 128.929 85.238 128.947 85.13C129.541 83.204 131.089 81.944 132.511 81.944C133.375 81.944 134.041 82.466 133.537 83.456L133.789 83.582C134.653 82.898 135.121 82.214 135.121 81.188C135.121 80.36 134.527 79.622 133.501 79.622C131.845 79.622 130.189 81.476 129.379 83.276C129.613 82.358 129.847 81.53 129.847 81.098C129.847 80.252 129.379 79.622 128.317 79.622C126.751 79.622 125.491 81.044 124.807 82.682L125.113 82.808C125.491 82.142 126.247 81.872 127.183 81.872C127.975 81.872 128.839 82.214 128.839 83.564C128.839 85.652 126.949 88.424 124.861 88.766ZM139.016 89.396C141.734 89.396 143.408 87.182 143.966 85.364L143.66 85.22C142.742 86.66 140.744 87.092 139.43 87.092C137.666 87.092 135.974 86.282 136.01 84.878C136.01 84.536 136.136 84.194 136.316 83.852C137.198 84.608 138.476 85.256 140.114 85.238C142.544 85.22 143.966 83.762 143.966 82.214C143.966 80.954 143.318 79.622 141.014 79.622C137.774 79.622 135.542 82.88 135.542 85.67C135.542 87.542 136.46 89.396 139.016 89.396ZM140.042 81.926C141.302 81.926 142.202 82.43 142.274 83.15C142.364 84.014 141.392 84.806 140.096 84.806C138.638 84.806 137.54 84.32 136.568 83.492C137.27 82.61 138.566 81.926 140.042 81.926ZM145.023 88.766V89H150.549V88.766C149.469 88.478 148.767 87.524 149.055 85.472C149.109 85.058 149.199 84.608 149.307 84.158C150.009 82.448 151.845 81.944 153.033 81.944C154.041 81.944 154.905 82.214 154.905 82.826C154.905 83.924 152.673 86.084 152.691 87.524C152.709 88.658 153.357 89.396 154.581 89.396C156.219 89.396 157.299 87.614 157.659 86.102L157.317 85.94C157.065 86.804 156.093 87.146 155.193 87.146C154.185 87.146 153.825 86.678 153.825 86.156C153.825 85.076 156.219 82.664 156.219 81.44C156.219 80.18 155.247 79.622 154.059 79.622C152.079 79.622 150.513 80.99 149.721 82.556C149.883 81.944 150.009 81.422 150.009 81.098C150.009 80.252 149.541 79.622 148.479 79.622C146.913 79.622 145.653 81.044 144.969 82.682L145.275 82.808C145.653 82.142 146.409 81.872 147.345 81.872C148.137 81.872 149.001 82.214 149.001 83.564C149.001 85.652 147.111 88.424 145.023 88.766ZM162.277 89.396C164.869 89.396 166.543 87.182 167.101 85.364L166.867 85.256C165.733 87.002 164.095 87.074 162.403 87.074C160.567 87.056 159.145 86.12 159.145 84.77C159.145 83.672 160.315 82.178 162.763 81.926C165.247 81.674 166.129 82.394 166.129 83.42C166.129 83.636 166.057 83.87 165.985 83.996L166.255 84.14C166.813 83.6 167.101 82.916 167.101 82.214C167.101 80.954 166.273 79.622 164.167 79.622C160.801 79.622 158.731 82.826 158.551 85.4C158.389 87.668 159.739 89.396 162.277 89.396ZM171.905 89.396C174.623 89.396 176.297 87.182 176.855 85.364L176.549 85.22C175.631 86.66 173.633 87.092 172.319 87.092C170.555 87.092 168.863 86.282 168.899 84.878C168.899 84.536 169.025 84.194 169.205 83.852C170.087 84.608 171.365 85.256 173.003 85.238C175.433 85.22 176.855 83.762 176.855 82.214C176.855 80.954 176.207 79.622 173.903 79.622C170.663 79.622 168.431 82.88 168.431 85.67C168.431 87.542 169.349 89.396 171.905 89.396ZM172.931 81.926C174.191 81.926 175.091 82.43 175.163 83.15C175.253 84.014 174.281 84.806 172.985 84.806C171.527 84.806 170.429 84.32 169.457 83.492C170.159 82.61 171.455 81.926 172.931 81.926Z" fill="white"/>
<path d="M180.571 7.03793C181.109 5.07612 183.891 5.07612 184.429 7.03793L187.804 19.3533C187.971 19.9605 188.413 20.4539 188.999 20.685L200.286 25.1396C201.974 25.8057 201.974 28.1943 200.286 28.8604L188.999 33.315C188.413 33.5461 187.971 34.0395 187.804 34.6467L184.429 46.9621C183.891 48.9239 181.109 48.9239 180.571 46.9621L177.196 34.6467C177.029 34.0395 176.587 33.5461 176.001 33.315L164.714 28.8604C163.026 28.1943 163.026 25.8057 164.714 25.1396L176.001 20.685C176.587 20.4539 177.029 19.9605 177.196 19.3533L180.571 7.03793Z" fill="#C7D66D"/>
<path d="M20.5711 92.0379C21.1088 90.0761 23.8912 90.0761 24.4289 92.0379L27.8041 104.353C27.9705 104.96 28.4131 105.454 28.9988 105.685L40.2861 110.14C41.9739 110.806 41.9739 113.194 40.2861 113.86L28.9988 118.315C28.4131 118.546 27.9705 119.04 27.8041 119.647L24.4289 131.962C23.8912 133.924 21.1088 133.924 20.5711 131.962L17.1959 119.647C17.0295 119.04 16.5869 118.546 16.0012 118.315L4.71386 113.86C3.02614 113.194 3.02613 110.806 4.71386 110.14L16.0012 105.685C16.5869 105.454 17.0295 104.96 17.1959 104.353L20.5711 92.0379Z" fill="#C7D66D"/>
</svg>
