<svg width="751" height="366" viewBox="0 0 751 366" fill="none" xmlns="http://www.w3.org/2000/svg">
<circle cx="53.5" cy="209.5" r="53" fill="#D8C8EE" stroke="black"/>
<circle cx="214.5" cy="209.5" r="53" fill="#D8C8EE" stroke="black"/>
<circle cx="375.5" cy="209.5" r="53" fill="#D8C8EE" stroke="black"/>
<circle cx="536.5" cy="209.5" r="53" fill="#D8C8EE" stroke="black"/>
<circle cx="697.5" cy="209.5" r="53" fill="#D8C8EE" stroke="black"/>
<path d="M19.3062 215H25.7322V213.6H20.9862V210.912H24.6542V209.82H20.9862V207.188H25.6062V205.788H19.3062V215ZM26.9188 215H28.4868V211.626C28.4868 210.142 29.2008 209.316 30.2648 209.316C31.2028 209.316 31.7208 209.932 31.7208 210.912V215H33.2888V211.57C33.2888 210.128 33.9888 209.316 35.0808 209.316C36.0188 209.316 36.5088 209.932 36.5088 210.94V215H38.0768V210.59C38.0768 208.966 37.1948 207.972 35.6548 207.972C34.3388 207.972 33.4988 208.672 33.2468 209.792H33.2328C33.0648 208.672 32.1968 207.972 30.8528 207.972C29.5928 207.972 28.7528 208.714 28.4448 209.904H28.4308L28.4868 208.084H26.9188V215ZM39.6209 217.772H41.1889V215.056C41.1889 214.776 41.1609 214.062 41.1469 213.6H41.1609C41.4549 214.496 42.3509 215.112 43.7229 215.112C45.7109 215.112 46.9709 213.656 46.9709 211.416C46.9709 209.33 45.7249 207.972 43.7509 207.972C42.3789 207.972 41.4549 208.644 41.1749 209.694H41.1609L41.1889 208.084H39.6209V217.772ZM43.4149 213.824C42.0709 213.824 41.1889 213.068 41.1889 211.892V211.528C41.2169 210.142 42.0849 209.26 43.3869 209.26C44.6329 209.26 45.4029 210.128 45.4029 211.458C45.4029 212.9 44.6189 213.824 43.4149 213.824ZM50.4095 215.112C51.9355 215.112 52.7615 214.496 52.9855 213.474H52.9995C52.9995 214.034 52.9575 214.664 52.9295 215H54.4975V210.786C54.4975 208.966 53.2655 207.972 51.1655 207.972C49.1915 207.972 47.9875 208.798 47.9875 210.184C47.9875 210.31 48.0015 210.492 48.0155 210.59H49.4575C49.4435 210.478 49.4435 210.366 49.4435 210.324C49.4435 209.554 50.0455 209.148 51.1095 209.148C52.3275 209.148 52.9295 209.61 52.9295 210.646V211.136H50.3675C48.5195 211.136 47.7775 211.962 47.7775 213.012C47.7775 214.356 48.8275 215.112 50.4095 215.112ZM50.7315 213.936C49.7795 213.936 49.2195 213.572 49.2195 212.942C49.2195 212.396 49.6115 212.088 50.5075 212.088H52.9295V212.214C52.9295 213.278 52.0895 213.936 50.7315 213.936ZM59.0788 215.084C59.6528 215.084 60.1288 214.986 60.3388 214.916V213.67C60.1428 213.726 59.6948 213.796 59.3028 213.796C58.3508 213.796 58.0148 213.348 58.0148 212.452V209.358H60.3948V208.084H58.0148V206.516H56.7128L56.6428 207.552C56.6008 207.944 56.5028 208.084 56.2368 208.084H55.3548V209.358H56.4468V212.536C56.4468 214.062 57.1888 215.084 59.0788 215.084ZM61.6873 215H63.2553V211.724C63.2553 210.17 64.1233 209.316 65.5093 209.316C66.7553 209.316 67.3713 209.932 67.3713 211.024V215H68.9393V210.674C68.9393 208.966 67.8613 207.972 66.1113 207.972C64.4873 207.972 63.5913 208.686 63.2273 209.946H63.2133C63.2273 209.568 63.2553 208.77 63.2553 208.434V205.298H61.6873V215ZM70.4783 207.272H72.0883V205.732H70.4783V207.272ZM70.4923 215H72.0603V208.084H70.4923V215ZM73.4659 215H79.3179V213.726H75.4959V213.712L79.3179 209.05V208.084H73.5779V209.358H77.2739V209.386L73.4659 214.02V215ZM87.0098 211.29C87.0098 209.134 85.7638 207.972 83.8038 207.972C81.6198 207.972 80.2478 209.358 80.2478 211.598C80.2478 213.768 81.6198 215.112 83.8038 215.112C85.6938 215.112 86.9538 214.174 87.0098 212.634H85.5958C85.5258 213.446 84.8398 213.894 83.8318 213.894C82.6558 213.894 81.9138 213.18 81.8298 211.85H87.0098V211.29ZM85.5958 210.898H81.8718C82.0538 209.75 82.7398 209.19 83.8178 209.19C84.9518 209.19 85.5958 209.764 85.5958 210.8V210.898Z" fill="black"/>
<path d="M193.349 215H197.171C199.859 215 201.539 213.334 201.539 210.38C201.539 207.454 199.761 205.788 196.877 205.788H193.349V215ZM195.029 213.6V207.188H196.947C198.711 207.188 199.873 208.28 199.873 210.38C199.873 212.494 198.795 213.6 197.143 213.6H195.029ZM209.455 211.29C209.455 209.134 208.209 207.972 206.249 207.972C204.065 207.972 202.693 209.358 202.693 211.598C202.693 213.768 204.065 215.112 206.249 215.112C208.139 215.112 209.399 214.174 209.455 212.634H208.041C207.971 213.446 207.285 213.894 206.277 213.894C205.101 213.894 204.359 213.18 204.275 211.85H209.455V211.29ZM208.041 210.898H204.317C204.499 209.75 205.185 209.19 206.263 209.19C207.397 209.19 208.041 209.764 208.041 210.8V210.898ZM211.281 215H212.849V209.358H215.257V208.084H212.849V207.468C212.849 206.712 213.283 206.292 214.081 206.292C214.557 206.292 214.921 206.39 215.145 206.46V205.214C214.921 205.13 214.417 205.018 213.801 205.018C212.303 205.018 211.281 205.858 211.281 207.398V208.084H210.175V209.358H211.281V215ZM216.461 207.272H218.071V205.732H216.461V207.272ZM216.475 215H218.043V208.084H216.475V215ZM219.679 215H221.247V211.654C221.247 210.142 222.115 209.316 223.487 209.316C224.733 209.316 225.349 209.932 225.349 211.024V215H226.917V210.674C226.917 208.966 225.839 207.972 224.089 207.972C222.479 207.972 221.583 208.686 221.205 209.932H221.191L221.247 208.084H219.679V215ZM234.967 211.29C234.967 209.134 233.721 207.972 231.761 207.972C229.577 207.972 228.205 209.358 228.205 211.598C228.205 213.768 229.577 215.112 231.761 215.112C233.651 215.112 234.911 214.174 234.967 212.634H233.553C233.483 213.446 232.797 213.894 231.789 213.894C230.613 213.894 229.871 213.18 229.787 211.85H234.967V211.29ZM233.553 210.898H229.829C230.011 209.75 230.697 209.19 231.775 209.19C232.909 209.19 233.553 209.764 233.553 210.8V210.898Z" fill="black"/>
<path d="M355.185 215H356.851V205.788H355.185V215ZM361.65 215.112C363.064 215.112 363.932 214.412 364.198 213.32H364.226C364.198 213.992 364.184 214.594 364.156 215H365.724V205.298H364.156V209.302H364.142C363.862 208.49 363.05 207.972 361.748 207.972C359.69 207.972 358.388 209.414 358.388 211.5C358.388 213.656 359.648 215.112 361.65 215.112ZM361.972 213.824C360.74 213.824 359.942 212.872 359.942 211.5C359.942 210.184 360.754 209.26 362 209.26C363.302 209.26 364.156 210.044 364.156 211.276V211.612C364.156 212.956 363.288 213.824 361.972 213.824ZM373.887 211.29C373.887 209.134 372.641 207.972 370.681 207.972C368.497 207.972 367.125 209.358 367.125 211.598C367.125 213.768 368.497 215.112 370.681 215.112C372.571 215.112 373.831 214.174 373.887 212.634H372.473C372.403 213.446 371.717 213.894 370.709 213.894C369.533 213.894 368.791 213.18 368.707 211.85H373.887V211.29ZM372.473 210.898H368.749C368.931 209.75 369.617 209.19 370.695 209.19C371.829 209.19 372.473 209.764 372.473 210.8V210.898ZM377.687 215.112C379.213 215.112 380.039 214.496 380.263 213.474H380.277C380.277 214.034 380.235 214.664 380.207 215H381.775V210.786C381.775 208.966 380.543 207.972 378.443 207.972C376.469 207.972 375.265 208.798 375.265 210.184C375.265 210.31 375.279 210.492 375.293 210.59H376.735C376.721 210.478 376.721 210.366 376.721 210.324C376.721 209.554 377.323 209.148 378.387 209.148C379.605 209.148 380.207 209.61 380.207 210.646V211.136H377.645C375.797 211.136 375.055 211.962 375.055 213.012C375.055 214.356 376.105 215.112 377.687 215.112ZM378.009 213.936C377.057 213.936 376.497 213.572 376.497 212.942C376.497 212.396 376.889 212.088 377.785 212.088H380.207V212.214C380.207 213.278 379.367 213.936 378.009 213.936ZM386.356 215.084C386.93 215.084 387.406 214.986 387.616 214.916V213.67C387.42 213.726 386.972 213.796 386.58 213.796C385.628 213.796 385.292 213.348 385.292 212.452V209.358H387.672V208.084H385.292V206.516H383.99L383.92 207.552C383.878 207.944 383.78 208.084 383.514 208.084H382.632V209.358H383.724V212.536C383.724 214.062 384.466 215.084 386.356 215.084ZM395.201 211.29C395.201 209.134 393.955 207.972 391.995 207.972C389.811 207.972 388.439 209.358 388.439 211.598C388.439 213.768 389.811 215.112 391.995 215.112C393.885 215.112 395.145 214.174 395.201 212.634H393.787C393.717 213.446 393.031 213.894 392.023 213.894C390.847 213.894 390.105 213.18 390.021 211.85H395.201V211.29ZM393.787 210.898H390.063C390.245 209.75 390.931 209.19 392.009 209.19C393.143 209.19 393.787 209.764 393.787 210.8V210.898Z" fill="black"/>
<path d="M502.484 212H504.164V209.144H506.502C508.714 209.144 509.918 207.996 509.918 205.994C509.918 203.936 508.574 202.788 506.292 202.788H502.484V212ZM504.164 207.954V204.188H506.236C507.58 204.188 508.322 204.86 508.322 206.078C508.322 207.338 507.622 207.954 506.404 207.954H504.164ZM511.231 212H512.799V208.976C512.799 207.324 513.541 206.316 514.731 206.316C515.655 206.316 516.103 206.862 516.103 208.024C516.103 208.346 516.075 208.696 516.047 208.962H517.475C517.503 208.668 517.545 208.108 517.545 207.674C517.545 205.952 516.719 204.972 515.221 204.972C513.793 204.972 513.079 205.826 512.757 207.072H512.743L512.799 205.084H511.231V212ZM522.29 212.112C524.502 212.112 525.916 210.754 525.916 208.556C525.916 206.344 524.502 204.972 522.29 204.972C520.092 204.972 518.678 206.344 518.678 208.556C518.678 210.754 520.092 212.112 522.29 212.112ZM522.29 210.824C521.016 210.824 520.246 209.956 520.246 208.556C520.246 207.142 521.016 206.26 522.29 206.26C523.564 206.26 524.348 207.142 524.348 208.556C524.348 209.956 523.564 210.824 522.29 210.824ZM530.225 212.084C530.799 212.084 531.275 211.986 531.485 211.916V210.67C531.289 210.726 530.841 210.796 530.449 210.796C529.497 210.796 529.161 210.348 529.161 209.452V206.358H531.541V205.084H529.161V203.516H527.859L527.789 204.552C527.747 204.944 527.649 205.084 527.383 205.084H526.501V206.358H527.593V209.536C527.593 211.062 528.335 212.084 530.225 212.084ZM535.92 212.112C538.132 212.112 539.546 210.754 539.546 208.556C539.546 206.344 538.132 204.972 535.92 204.972C533.722 204.972 532.308 206.344 532.308 208.556C532.308 210.754 533.722 212.112 535.92 212.112ZM535.92 210.824C534.646 210.824 533.876 209.956 533.876 208.556C533.876 207.142 534.646 206.26 535.92 206.26C537.194 206.26 537.978 207.142 537.978 208.556C537.978 209.956 537.194 210.824 535.92 210.824ZM543.856 212.084C544.43 212.084 544.906 211.986 545.116 211.916V210.67C544.92 210.726 544.472 210.796 544.08 210.796C543.128 210.796 542.792 210.348 542.792 209.452V206.358H545.172V205.084H542.792V203.516H541.49L541.42 204.552C541.378 204.944 541.28 205.084 541.014 205.084H540.132V206.358H541.224V209.536C541.224 211.062 541.966 212.084 543.856 212.084ZM548.005 214.926C549.377 214.926 550.049 214.212 550.819 212.14L553.451 205.084H551.911L549.965 210.418H549.937L547.739 205.084H545.933L548.929 212H549.307C548.789 213.288 548.453 213.652 547.725 213.652C547.375 213.652 547.053 213.568 546.857 213.512V214.744C547.053 214.814 547.473 214.926 548.005 214.926ZM554.572 214.772H556.14V212.056C556.14 211.776 556.112 211.062 556.098 210.6H556.112C556.406 211.496 557.302 212.112 558.674 212.112C560.662 212.112 561.922 210.656 561.922 208.416C561.922 206.33 560.676 204.972 558.702 204.972C557.33 204.972 556.406 205.644 556.126 206.694H556.112L556.14 205.084H554.572V214.772ZM558.366 210.824C557.022 210.824 556.14 210.068 556.14 208.892V208.528C556.168 207.142 557.036 206.26 558.338 206.26C559.584 206.26 560.354 207.128 560.354 208.458C560.354 209.9 559.57 210.824 558.366 210.824ZM569.832 208.29C569.832 206.134 568.586 204.972 566.626 204.972C564.442 204.972 563.07 206.358 563.07 208.598C563.07 210.768 564.442 212.112 566.626 212.112C568.516 212.112 569.776 211.174 569.832 209.634H568.418C568.348 210.446 567.662 210.894 566.654 210.894C565.478 210.894 564.736 210.18 564.652 208.85H569.832V208.29ZM568.418 207.898H564.694C564.876 206.75 565.562 206.19 566.64 206.19C567.774 206.19 568.418 206.764 568.418 207.8V207.898Z" fill="black"/>
<path d="M686.006 212H687.686V204.174H690.542V202.788H683.15V204.174H686.006V212ZM697.138 208.29C697.138 206.134 695.892 204.972 693.932 204.972C691.748 204.972 690.376 206.358 690.376 208.598C690.376 210.768 691.748 212.112 693.932 212.112C695.822 212.112 697.082 211.174 697.138 209.634H695.724C695.654 210.446 694.968 210.894 693.96 210.894C692.784 210.894 692.042 210.18 691.958 208.85H697.138V208.29ZM695.724 207.898H692C692.182 206.75 692.868 206.19 693.946 206.19C695.08 206.19 695.724 206.764 695.724 207.8V207.898ZM701.526 212.112C703.738 212.112 704.914 211.286 704.914 209.886C704.914 209.326 704.648 208.794 704.186 208.542C703.696 208.262 703.136 208.164 702.156 208.066C701.316 207.982 700.658 207.912 700.322 207.8C699.916 207.66 699.846 207.38 699.846 207.086C699.846 206.498 700.462 206.106 701.554 206.106C702.702 206.106 703.192 206.54 703.206 207.436H704.62C704.62 205.868 703.668 204.972 701.512 204.972C699.636 204.972 698.292 205.812 698.292 207.198C698.292 207.73 698.516 208.234 698.894 208.514C699.314 208.822 700.042 208.962 701.12 209.06C701.89 209.13 702.548 209.2 702.884 209.326C703.248 209.452 703.346 209.69 703.346 209.956C703.346 210.586 702.786 210.978 701.512 210.978C700.168 210.978 699.706 210.488 699.706 209.69H698.292C698.292 211.048 699.146 212.112 701.526 212.112ZM709.347 212.084C709.921 212.084 710.397 211.986 710.607 211.916V210.67C710.411 210.726 709.963 210.796 709.571 210.796C708.619 210.796 708.283 210.348 708.283 209.452V206.358H710.663V205.084H708.283V203.516H706.981L706.911 204.552C706.869 204.944 706.771 205.084 706.505 205.084H705.623V206.358H706.715V209.536C706.715 211.062 707.457 212.084 709.347 212.084Z" fill="black"/>
<path d="M146.707 210.707C147.098 210.317 147.098 209.683 146.707 209.293L140.343 202.929C139.953 202.538 139.319 202.538 138.929 202.929C138.538 203.319 138.538 203.953 138.929 204.343L144.586 210L138.929 215.657C138.538 216.047 138.538 216.681 138.929 217.071C139.319 217.462 139.953 217.462 140.343 217.071L146.707 210.707ZM120 211H146V209H120V211Z" fill="black"/>
<path d="M308.707 210.707C309.098 210.317 309.098 209.683 308.707 209.293L302.343 202.929C301.953 202.538 301.319 202.538 300.929 202.929C300.538 203.319 300.538 203.953 300.929 204.343L306.586 210L300.929 215.657C300.538 216.047 300.538 216.681 300.929 217.071C301.319 217.462 301.953 217.462 302.343 217.071L308.707 210.707ZM282 211H308V209H282V211Z" fill="black"/>
<path d="M469.707 210.707C470.098 210.317 470.098 209.683 469.707 209.293L463.343 202.929C462.953 202.538 462.319 202.538 461.929 202.929C461.538 203.319 461.538 203.953 461.929 204.343L467.586 210L461.929 215.657C461.538 216.047 461.538 216.681 461.929 217.071C462.319 217.462 462.953 217.462 463.343 217.071L469.707 210.707ZM443 211H469V209H443V211Z" fill="black"/>
<path d="M629.707 210.707C630.098 210.317 630.098 209.683 629.707 209.293L623.343 202.929C622.953 202.538 622.319 202.538 621.929 202.929C621.538 203.319 621.538 203.953 621.929 204.343L627.586 210L621.929 215.657C621.538 216.047 621.538 216.681 621.929 217.071C622.319 217.462 622.953 217.462 623.343 217.071L629.707 210.707ZM603 211H629V209H603V211Z" fill="black"/>
<path d="M178.266 159.964C178.798 159.817 179.111 159.267 178.964 158.734L176.573 150.058C176.426 149.525 175.875 149.213 175.343 149.359C174.811 149.506 174.498 150.057 174.645 150.589L176.77 158.302L169.058 160.427C168.525 160.574 168.213 161.125 168.359 161.657C168.506 162.189 169.057 162.502 169.589 162.355L178.266 159.964ZM71.5436 159.839C91.7805 146.733 107.616 140.765 123.647 141.007C139.701 141.25 156.112 147.721 177.506 159.87L178.494 158.13C157.03 145.941 140.253 139.258 123.677 139.007C107.078 138.757 90.8427 144.958 70.4564 158.161L71.5436 159.839Z" fill="black"/>
<path d="M527.675 154.985C528.218 154.888 528.581 154.369 528.485 153.825L526.914 144.964C526.817 144.42 526.298 144.057 525.755 144.153C525.211 144.25 524.848 144.769 524.945 145.313L526.341 153.19L518.464 154.586C517.92 154.683 517.557 155.202 517.653 155.745C517.75 156.289 518.269 156.652 518.813 156.555L527.675 154.985ZM78.9897 154.872C163.115 107.621 234.76 79.4557 305.508 77.1532C376.222 74.8517 446.177 98.3858 526.927 154.82L528.073 153.18C447.081 96.5773 376.708 72.8348 305.443 75.1542C234.211 77.4725 162.227 105.826 78.0103 153.128L78.9897 154.872Z" fill="black"/>
<path d="M399.659 260.06C399.14 260.248 398.872 260.821 399.06 261.341L402.126 269.802C402.315 270.321 402.888 270.59 403.407 270.402C403.927 270.213 404.195 269.64 404.007 269.121L401.281 261.599L408.802 258.874C409.321 258.685 409.59 258.112 409.402 257.593C409.213 257.073 408.64 256.805 408.121 256.993L399.659 260.06ZM523.593 260.087C499.429 270.85 480.684 276.451 461.993 276.586C443.309 276.722 424.57 271.394 400.424 260.094L399.576 261.906C423.854 273.267 442.904 278.724 462.008 278.586C481.105 278.448 500.147 272.719 524.407 261.913L523.593 260.087Z" fill="black"/>
<path d="M244.966 262C244.414 262.019 243.982 262.482 244.001 263.034L244.304 272.028C244.323 272.58 244.785 273.013 245.337 272.994C245.889 272.975 246.322 272.513 246.303 271.961L246.033 263.965L254.029 263.696C254.581 263.677 255.013 263.214 254.994 262.662C254.976 262.11 254.513 261.678 253.961 261.697L244.966 262ZM688.272 261.814C620.718 333.606 540.624 362.238 462.17 358.688C383.692 355.138 306.786 319.382 245.683 262.269L244.317 263.73C305.714 321.118 383.058 357.112 462.08 360.686C541.126 364.262 621.782 335.394 689.728 263.185L688.272 261.814Z" fill="black"/>
<path d="M11.956 294.14C14.364 294.14 15.834 292.712 15.834 290.612V284.788H14.77V290.612C14.77 292.124 13.734 293.076 11.998 293.076C10.262 293.076 9.226 292.124 9.226 290.612V284.788H8.05V290.612C8.05 292.712 9.534 294.14 11.956 294.14ZM20.6368 294.112C22.7368 294.112 23.8568 293.3 23.8568 291.942C23.8568 291.424 23.6328 290.892 23.1708 290.626C22.6948 290.36 22.1628 290.262 21.0848 290.15C20.1748 290.052 19.4888 289.968 19.1528 289.828C18.7468 289.66 18.7048 289.324 18.7048 289.044C18.7048 288.358 19.4748 287.924 20.6648 287.924C21.8968 287.924 22.5128 288.4 22.5268 289.436H23.5628C23.5628 287.882 22.6948 286.972 20.6228 286.972C18.7748 286.972 17.5848 287.812 17.5848 289.114C17.5848 289.618 17.7808 290.122 18.1588 290.402C18.5788 290.71 19.2648 290.85 20.3988 290.948C21.2528 291.032 21.9808 291.116 22.3028 291.27C22.6528 291.438 22.7368 291.704 22.7368 291.984C22.7368 292.726 22.0508 293.16 20.6228 293.16C19.1808 293.16 18.6208 292.614 18.6208 291.69H17.5848C17.5848 293.02 18.3128 294.112 20.6368 294.112ZM31.7927 290.248C31.7927 288.19 30.6307 286.972 28.6567 286.972C26.5847 286.972 25.2547 288.386 25.2547 290.598C25.2547 292.74 26.5987 294.112 28.6847 294.112C30.5047 294.112 31.7227 293.16 31.7927 291.662H30.7567C30.6587 292.572 29.8607 293.16 28.6987 293.16C27.3407 293.16 26.4447 292.236 26.3747 290.766H31.7927V290.248ZM30.7567 289.954H26.4167C26.6267 288.638 27.4527 287.924 28.6847 287.924C30.0007 287.924 30.7567 288.652 30.7567 289.87V289.954ZM33.478 294H34.598V290.934C34.598 289.212 35.424 287.98 36.838 287.98C37.972 287.98 38.448 288.638 38.448 289.912C38.448 290.346 38.42 290.696 38.392 290.906H39.414C39.442 290.654 39.484 290.15 39.484 289.674C39.484 288.008 38.658 286.972 37.104 286.972C35.62 286.972 34.906 287.882 34.584 289.086H34.57L34.598 287.084H33.478V294ZM47.8602 294.14C50.8702 294.14 51.7382 292.754 51.7382 291.354C51.7382 290.514 51.3602 289.87 50.7442 289.562C50.1422 289.254 49.1762 289.1 48.2522 288.974C47.4542 288.862 46.3482 288.694 45.9002 288.47C45.5082 288.274 45.2842 287.924 45.2842 287.336C45.2842 286.328 46.3482 285.656 47.8462 285.656C49.4282 285.656 50.3242 286.356 50.3242 287.966H51.4162C51.4162 285.838 50.3942 284.648 47.8182 284.648C45.6202 284.648 44.1082 285.796 44.1082 287.434C44.1082 288.302 44.4862 288.918 45.0182 289.24C45.5222 289.548 46.5302 289.772 47.4822 289.884C48.2802 289.996 49.3302 290.108 49.8342 290.318C50.3102 290.514 50.5622 290.836 50.5622 291.424C50.5622 292.306 49.9742 293.132 47.8602 293.132C45.9002 293.132 45.2282 292.194 45.2282 290.864H44.1362C44.1362 292.53 44.9062 294.14 47.8602 294.14ZM56.2536 294.112C57.9756 294.112 58.9556 293.272 59.2496 291.97H59.2636C59.2636 292.67 59.2356 293.538 59.2076 294H60.3276V287.084H59.2076V290.206C59.2076 292.026 58.1716 293.104 56.5616 293.104C55.2456 293.104 54.4616 292.348 54.4616 291.158V287.084H53.3416V291.354C53.3416 293.034 54.4476 294.112 56.2536 294.112ZM62.2847 294H63.4047V290.934C63.4047 289.212 64.2307 287.98 65.6447 287.98C66.7787 287.98 67.2547 288.638 67.2547 289.912C67.2547 290.346 67.2267 290.696 67.1987 290.906H68.2207C68.2487 290.654 68.2907 290.15 68.2907 289.674C68.2907 288.008 67.4647 286.972 65.9107 286.972C64.4267 286.972 63.7127 287.882 63.3907 289.086H63.3767L63.4047 287.084H62.2847V294ZM72.0902 294H73.4342L76.5282 287.084H75.3242L72.8322 292.922H72.7902L70.3122 287.084H68.9962L72.0902 294ZM83.6775 290.248C83.6775 288.19 82.5155 286.972 80.5415 286.972C78.4695 286.972 77.1395 288.386 77.1395 290.598C77.1395 292.74 78.4835 294.112 80.5695 294.112C82.3895 294.112 83.6075 293.16 83.6775 291.662H82.6415C82.5435 292.572 81.7455 293.16 80.5835 293.16C79.2255 293.16 78.3295 292.236 78.2595 290.766H83.6775V290.248ZM82.6415 289.954H78.3015C78.5115 288.638 79.3375 287.924 80.5695 287.924C81.8855 287.924 82.6415 288.652 82.6415 289.87V289.954ZM86.0736 296.912C87.3896 296.912 87.9216 296.268 88.7476 294.126L91.4916 287.084H90.3576L88.1316 292.866H88.1036L85.5836 287.084H84.2676L87.3756 294H87.6696C87.0256 295.568 86.6896 295.932 85.9336 295.932C85.5836 295.932 85.2476 295.848 85.0796 295.792V296.73C85.2756 296.814 85.6816 296.912 86.0736 296.912ZM11.956 314.14C14.364 314.14 15.834 312.712 15.834 310.612V304.788H14.77V310.612C14.77 312.124 13.734 313.076 11.998 313.076C10.262 313.076 9.226 312.124 9.226 310.612V304.788H8.05V310.612C8.05 312.712 9.534 314.14 11.956 314.14ZM20.6368 314.112C22.7368 314.112 23.8568 313.3 23.8568 311.942C23.8568 311.424 23.6328 310.892 23.1708 310.626C22.6948 310.36 22.1628 310.262 21.0848 310.15C20.1748 310.052 19.4888 309.968 19.1528 309.828C18.7468 309.66 18.7048 309.324 18.7048 309.044C18.7048 308.358 19.4748 307.924 20.6648 307.924C21.8968 307.924 22.5128 308.4 22.5268 309.436H23.5628C23.5628 307.882 22.6948 306.972 20.6228 306.972C18.7748 306.972 17.5848 307.812 17.5848 309.114C17.5848 309.618 17.7808 310.122 18.1588 310.402C18.5788 310.71 19.2648 310.85 20.3988 310.948C21.2528 311.032 21.9808 311.116 22.3028 311.27C22.6528 311.438 22.7368 311.704 22.7368 311.984C22.7368 312.726 22.0508 313.16 20.6228 313.16C19.1808 313.16 18.6208 312.614 18.6208 311.69H17.5848C17.5848 313.02 18.3128 314.112 20.6368 314.112ZM31.7927 310.248C31.7927 308.19 30.6307 306.972 28.6567 306.972C26.5847 306.972 25.2547 308.386 25.2547 310.598C25.2547 312.74 26.5987 314.112 28.6847 314.112C30.5047 314.112 31.7227 313.16 31.7927 311.662H30.7567C30.6587 312.572 29.8607 313.16 28.6987 313.16C27.3407 313.16 26.4447 312.236 26.3747 310.766H31.7927V310.248ZM30.7567 309.954H26.4167C26.6267 308.638 27.4527 307.924 28.6847 307.924C30.0007 307.924 30.7567 308.652 30.7567 309.87V309.954ZM33.478 314H34.598V310.934C34.598 309.212 35.424 307.98 36.838 307.98C37.972 307.98 38.448 308.638 38.448 309.912C38.448 310.346 38.42 310.696 38.392 310.906H39.414C39.442 310.654 39.484 310.15 39.484 309.674C39.484 308.008 38.658 306.972 37.104 306.972C35.62 306.972 34.906 307.882 34.584 309.086H34.57L34.598 307.084H33.478V314ZM44.5842 314H45.7602V304.788H44.5842V314ZM47.9155 314H49.0355V310.598C49.0355 308.946 50.0575 307.98 51.6395 307.98C53.1235 307.98 53.7955 308.736 53.7955 309.912V314H54.9155V309.674C54.9155 308.022 53.8375 306.972 52.0175 306.972C50.3655 306.972 49.3995 307.742 49.0215 308.946H49.0075L49.0355 307.084H47.9155V314ZM59.5463 314.056C60.1063 314.056 60.5123 313.972 60.7223 313.888V312.936C60.5683 312.992 60.1203 313.076 59.6443 313.076C58.6083 313.076 58.2723 312.446 58.2723 311.396V308.064H60.7783V307.084H58.2723V305.516H57.3203L57.2643 306.608C57.2363 306.972 57.1523 307.084 56.9283 307.084H56.0043V308.064H57.1523V311.466C57.1523 312.992 57.8663 314.056 59.5463 314.056ZM68.2966 310.248C68.2966 308.19 67.1346 306.972 65.1606 306.972C63.0886 306.972 61.7586 308.386 61.7586 310.598C61.7586 312.74 63.1026 314.112 65.1886 314.112C67.0086 314.112 68.2266 313.16 68.2966 311.662H67.2606C67.1626 312.572 66.3646 313.16 65.2026 313.16C63.8446 313.16 62.9486 312.236 62.8786 310.766H68.2966V310.248ZM67.2606 309.954H62.9206C63.1306 308.638 63.9566 307.924 65.1886 307.924C66.5046 307.924 67.2606 308.652 67.2606 309.87V309.954ZM69.982 314H71.102V310.934C71.102 309.212 71.928 307.98 73.342 307.98C74.476 307.98 74.952 308.638 74.952 309.912C74.952 310.346 74.924 310.696 74.896 310.906H75.918C75.946 310.654 75.988 310.15 75.988 309.674C75.988 308.008 75.162 306.972 73.608 306.972C72.124 306.972 71.41 307.882 71.088 309.086H71.074L71.102 307.084H69.982V314ZM79.7874 314H81.1314L84.2254 307.084H83.0214L80.5294 312.922H80.4874L78.0094 307.084H76.6934L79.7874 314ZM85.5685 306.202H86.7725V304.788H85.5685V306.202ZM85.6105 314H86.7305V307.084H85.6105V314ZM95.0251 310.248C95.0251 308.19 93.8631 306.972 91.8891 306.972C89.8171 306.972 88.4871 308.386 88.4871 310.598C88.4871 312.74 89.8311 314.112 91.9171 314.112C93.7371 314.112 94.9551 313.16 95.0251 311.662H93.9891C93.8911 312.572 93.0931 313.16 91.9311 313.16C90.5731 313.16 89.6771 312.236 89.6071 310.766H95.0251V310.248ZM93.9891 309.954H89.6491C89.8591 308.638 90.6851 307.924 91.9171 307.924C93.2331 307.924 93.9891 308.652 93.9891 309.87V309.954ZM97.8784 314H99.2084L101.056 308.484H101.098L102.89 314H104.262L106.32 307.084H105.242L103.59 312.824H103.562L101.7 307.084H100.594L98.6624 312.824H98.6344L97.0384 307.084H95.8204L97.8784 314ZM11.452 334.14C14.462 334.14 15.33 332.754 15.33 331.354C15.33 330.514 14.952 329.87 14.336 329.562C13.734 329.254 12.768 329.1 11.844 328.974C11.046 328.862 9.94 328.694 9.492 328.47C9.1 328.274 8.876 327.924 8.876 327.336C8.876 326.328 9.94 325.656 11.438 325.656C13.02 325.656 13.916 326.356 13.916 327.966H15.008C15.008 325.838 13.986 324.648 11.41 324.648C9.212 324.648 7.7 325.796 7.7 327.434C7.7 328.302 8.078 328.918 8.61 329.24C9.114 329.548 10.122 329.772 11.074 329.884C11.872 329.996 12.922 330.108 13.426 330.318C13.902 330.514 14.154 330.836 14.154 331.424C14.154 332.306 13.566 333.132 11.452 333.132C9.492 333.132 8.82 332.194 8.82 330.864H7.728C7.728 332.53 8.498 334.14 11.452 334.14ZM19.0413 334H20.3153L22.6393 326.594H22.6813L24.9633 334H26.2233L29.2753 324.788H28.0993L25.6493 332.474H25.6073L23.2973 324.886H22.0933L19.7553 332.474H19.7133L17.2633 324.788H16.0033L19.0413 334ZM34.5238 334.14C37.1278 334.14 39.1718 332.306 39.1718 329.352C39.1718 326.454 37.1278 324.648 34.5238 324.648C31.9198 324.648 29.8758 326.454 29.8758 329.352C29.8758 332.306 31.9198 334.14 34.5238 334.14ZM34.5238 333.076C32.6338 333.076 31.0518 331.648 31.0518 329.352C31.0518 327.098 32.6338 325.712 34.5238 325.712C36.4138 325.712 37.9958 327.098 37.9958 329.352C37.9958 331.648 36.4138 333.076 34.5238 333.076ZM42.6256 334H43.8016V325.838H46.8536V324.788H39.5736V325.838H42.6256V334ZM58.5565 334H59.9285L56.0365 324.788H54.6365L50.7445 334H51.9765L52.8865 331.76H57.6605L58.5565 334ZM53.2365 330.892L55.2805 325.866H55.3085L57.3105 330.892H53.2365ZM61.2593 334H62.3793V330.598C62.3793 328.946 63.4013 327.98 64.9833 327.98C66.4673 327.98 67.1393 328.736 67.1393 329.912V334H68.2593V329.674C68.2593 328.022 67.1813 326.972 65.3613 326.972C63.7093 326.972 62.7433 327.742 62.3653 328.946H62.3513L62.3793 327.084H61.2593V334ZM72.428 334.112C74.15 334.112 75.018 333.426 75.256 332.362H75.27C75.256 333.034 75.228 333.678 75.214 334H76.334V329.786C76.334 327.98 75.158 326.972 73.128 326.972C71.252 326.972 70.076 327.798 70.076 329.17C70.076 329.296 70.09 329.492 70.104 329.59H71.14C71.126 329.478 71.126 329.38 71.126 329.338C71.126 328.4 71.826 327.924 73.1 327.924C74.514 327.924 75.214 328.498 75.214 329.688V330.192H72.4C70.552 330.192 69.866 331.032 69.866 332.012C69.866 333.314 70.86 334.112 72.428 334.112ZM72.652 333.16C71.56 333.16 70.916 332.712 70.916 332.012C70.916 331.34 71.364 331.004 72.498 331.004H75.214V331.102C75.214 332.362 74.22 333.16 72.652 333.16ZM78.2961 334H79.4161V324.298H78.2961V334ZM82.6147 336.912C83.9307 336.912 84.4627 336.268 85.2887 334.126L88.0327 327.084H86.8987L84.6727 332.866H84.6447L82.1247 327.084H80.8087L83.9167 334H84.2107C83.5667 335.568 83.2307 335.932 82.4747 335.932C82.1247 335.932 81.7887 335.848 81.6207 335.792V336.73C81.8167 336.814 82.2227 336.912 82.6147 336.912ZM91.8809 334.112C93.9809 334.112 95.1009 333.3 95.1009 331.942C95.1009 331.424 94.8769 330.892 94.4149 330.626C93.9389 330.36 93.4069 330.262 92.3289 330.15C91.4189 330.052 90.7329 329.968 90.3969 329.828C89.9909 329.66 89.9489 329.324 89.9489 329.044C89.9489 328.358 90.7189 327.924 91.9089 327.924C93.1409 327.924 93.7569 328.4 93.7709 329.436H94.8069C94.8069 327.882 93.9389 326.972 91.8669 326.972C90.0189 326.972 88.8289 327.812 88.8289 329.114C88.8289 329.618 89.0249 330.122 89.4029 330.402C89.8229 330.71 90.5089 330.85 91.6429 330.948C92.4969 331.032 93.2249 331.116 93.5469 331.27C93.8969 331.438 93.9809 331.704 93.9809 331.984C93.9809 332.726 93.2949 333.16 91.8669 333.16C90.4249 333.16 89.8649 332.614 89.8649 331.69H88.8289C88.8289 333.02 89.5569 334.112 91.8809 334.112ZM96.8068 326.202H98.0108V324.788H96.8068V326.202ZM96.8488 334H97.9688V327.084H96.8488V334ZM102.777 334.112C104.877 334.112 105.997 333.3 105.997 331.942C105.997 331.424 105.773 330.892 105.311 330.626C104.835 330.36 104.303 330.262 103.225 330.15C102.315 330.052 101.629 329.968 101.293 329.828C100.887 329.66 100.845 329.324 100.845 329.044C100.845 328.358 101.615 327.924 102.805 327.924C104.037 327.924 104.653 328.4 104.667 329.436H105.703C105.703 327.882 104.835 326.972 102.763 326.972C100.915 326.972 99.7254 327.812 99.7254 329.114C99.7254 329.618 99.9214 330.122 100.299 330.402C100.719 330.71 101.405 330.85 102.539 330.948C103.393 331.032 104.121 331.116 104.443 331.27C104.793 331.438 104.877 331.704 104.877 331.984C104.877 332.726 104.191 333.16 102.763 333.16C101.321 333.16 100.761 332.614 100.761 331.69H99.7254C99.7254 333.02 100.453 334.112 102.777 334.112Z" fill="black"/>
<path d="M178.96 292H179.968V289.396H182.296C184.06 289.396 185.128 288.448 185.128 286.768C185.128 285.124 184.012 284.104 182.104 284.104H178.96V292ZM179.968 288.628V285.016H182.068C183.4 285.016 184.144 285.652 184.144 286.828C184.144 288.028 183.424 288.628 182.212 288.628H179.968ZM191.915 288.784C191.915 287.02 190.919 285.976 189.227 285.976C187.451 285.976 186.311 287.188 186.311 289.084C186.311 290.92 187.463 292.096 189.251 292.096C190.811 292.096 191.855 291.28 191.915 289.996H191.027C190.943 290.776 190.259 291.28 189.263 291.28C188.099 291.28 187.331 290.488 187.271 289.228H191.915V288.784ZM191.027 288.532H187.307C187.487 287.404 188.195 286.792 189.251 286.792C190.379 286.792 191.027 287.416 191.027 288.46V288.532ZM193.36 292H194.32V289.372C194.32 287.896 195.028 286.84 196.24 286.84C197.212 286.84 197.62 287.404 197.62 288.496C197.62 288.868 197.596 289.168 197.572 289.348H198.448C198.472 289.132 198.508 288.7 198.508 288.292C198.508 286.864 197.8 285.976 196.468 285.976C195.196 285.976 194.584 286.756 194.308 287.788H194.296L194.32 286.072H193.36V292ZM202.321 292.096C204.121 292.096 205.081 291.4 205.081 290.236C205.081 289.792 204.889 289.336 204.493 289.108C204.085 288.88 203.629 288.796 202.705 288.7C201.925 288.616 201.337 288.544 201.049 288.424C200.701 288.28 200.665 287.992 200.665 287.752C200.665 287.164 201.325 286.792 202.345 286.792C203.401 286.792 203.929 287.2 203.941 288.088H204.829C204.829 286.756 204.085 285.976 202.309 285.976C200.725 285.976 199.705 286.696 199.705 287.812C199.705 288.244 199.873 288.676 200.197 288.916C200.557 289.18 201.145 289.3 202.117 289.384C202.849 289.456 203.473 289.528 203.749 289.66C204.049 289.804 204.121 290.032 204.121 290.272C204.121 290.908 203.533 291.28 202.309 291.28C201.073 291.28 200.593 290.812 200.593 290.02H199.705C199.705 291.16 200.329 292.096 202.321 292.096ZM209.28 292.096C211.116 292.096 212.28 290.908 212.28 289.048C212.28 287.176 211.116 285.976 209.28 285.976C207.444 285.976 206.28 287.176 206.28 289.048C206.28 290.908 207.444 292.096 209.28 292.096ZM209.28 291.232C208.032 291.232 207.24 290.38 207.24 289.048C207.24 287.704 208.032 286.84 209.28 286.84C210.528 286.84 211.32 287.704 211.32 289.048C211.32 290.38 210.528 291.232 209.28 291.232ZM213.715 292H214.675V289.084C214.675 287.668 215.551 286.84 216.907 286.84C218.179 286.84 218.755 287.488 218.755 288.496V292H219.715V288.292C219.715 286.876 218.791 285.976 217.231 285.976C215.815 285.976 214.987 286.636 214.663 287.668H214.651L214.675 286.072H213.715V292ZM223.288 292.096C224.764 292.096 225.508 291.508 225.712 290.596H225.724C225.712 291.172 225.688 291.724 225.676 292H226.636V288.388C226.636 286.84 225.628 285.976 223.888 285.976C222.28 285.976 221.272 286.684 221.272 287.86C221.272 287.968 221.284 288.136 221.296 288.22H222.184C222.172 288.124 222.172 288.04 222.172 288.004C222.172 287.2 222.772 286.792 223.864 286.792C225.076 286.792 225.676 287.284 225.676 288.304V288.736H223.264C221.68 288.736 221.092 289.456 221.092 290.296C221.092 291.412 221.944 292.096 223.288 292.096ZM223.48 291.28C222.544 291.28 221.992 290.896 221.992 290.296C221.992 289.72 222.376 289.432 223.348 289.432H225.676V289.516C225.676 290.596 224.824 291.28 223.48 291.28ZM230.634 292.096C232.434 292.096 233.394 291.4 233.394 290.236C233.394 289.792 233.202 289.336 232.806 289.108C232.398 288.88 231.942 288.796 231.018 288.7C230.238 288.616 229.65 288.544 229.362 288.424C229.014 288.28 228.978 287.992 228.978 287.752C228.978 287.164 229.638 286.792 230.658 286.792C231.714 286.792 232.242 287.2 232.254 288.088H233.142C233.142 286.756 232.398 285.976 230.622 285.976C229.038 285.976 228.018 286.696 228.018 287.812C228.018 288.244 228.186 288.676 228.51 288.916C228.87 289.18 229.458 289.3 230.43 289.384C231.162 289.456 231.786 289.528 232.062 289.66C232.362 289.804 232.434 290.032 232.434 290.272C232.434 290.908 231.846 291.28 230.622 291.28C229.386 291.28 228.906 290.812 228.906 290.02H228.018C228.018 291.16 228.642 292.096 230.634 292.096ZM182.248 309.12C184.312 309.12 185.572 307.896 185.572 306.096V301.104H184.66V306.096C184.66 307.392 183.772 308.208 182.284 308.208C180.796 308.208 179.908 307.392 179.908 306.096V301.104H178.9V306.096C178.9 307.896 180.172 309.12 182.248 309.12ZM189.689 309.096C191.489 309.096 192.449 308.4 192.449 307.236C192.449 306.792 192.257 306.336 191.861 306.108C191.453 305.88 190.997 305.796 190.073 305.7C189.293 305.616 188.705 305.544 188.417 305.424C188.069 305.28 188.033 304.992 188.033 304.752C188.033 304.164 188.693 303.792 189.713 303.792C190.769 303.792 191.297 304.2 191.309 305.088H192.197C192.197 303.756 191.453 302.976 189.677 302.976C188.093 302.976 187.073 303.696 187.073 304.812C187.073 305.244 187.241 305.676 187.565 305.916C187.925 306.18 188.513 306.3 189.485 306.384C190.217 306.456 190.841 306.528 191.117 306.66C191.417 306.804 191.489 307.032 191.489 307.272C191.489 307.908 190.901 308.28 189.677 308.28C188.441 308.28 187.961 307.812 187.961 307.02H187.073C187.073 308.16 187.697 309.096 189.689 309.096ZM199.251 305.784C199.251 304.02 198.255 302.976 196.563 302.976C194.787 302.976 193.647 304.188 193.647 306.084C193.647 307.92 194.799 309.096 196.587 309.096C198.147 309.096 199.191 308.28 199.251 306.996H198.363C198.279 307.776 197.595 308.28 196.599 308.28C195.435 308.28 194.667 307.488 194.607 306.228H199.251V305.784ZM198.363 305.532H194.643C194.823 304.404 195.531 303.792 196.587 303.792C197.715 303.792 198.363 304.416 198.363 305.46V305.532ZM200.695 309H201.655V306.372C201.655 304.896 202.363 303.84 203.575 303.84C204.547 303.84 204.955 304.404 204.955 305.496C204.955 305.868 204.931 306.168 204.907 306.348H205.783C205.807 306.132 205.843 305.7 205.843 305.292C205.843 303.864 205.135 302.976 203.803 302.976C202.531 302.976 201.919 303.756 201.643 304.788H201.631L201.655 303.072H200.695V309ZM213.023 309.12C215.603 309.12 216.347 307.932 216.347 306.732C216.347 306.012 216.023 305.46 215.495 305.196C214.979 304.932 214.151 304.8 213.359 304.692C212.675 304.596 211.727 304.452 211.343 304.26C211.007 304.092 210.815 303.792 210.815 303.288C210.815 302.424 211.727 301.848 213.011 301.848C214.367 301.848 215.135 302.448 215.135 303.828H216.071C216.071 302.004 215.195 300.984 212.987 300.984C211.103 300.984 209.807 301.968 209.807 303.372C209.807 304.116 210.131 304.644 210.587 304.92C211.019 305.184 211.883 305.376 212.699 305.472C213.383 305.568 214.283 305.664 214.715 305.844C215.123 306.012 215.339 306.288 215.339 306.792C215.339 307.548 214.835 308.256 213.023 308.256C211.343 308.256 210.767 307.452 210.767 306.312H209.831C209.831 307.74 210.491 309.12 213.023 309.12ZM220.133 309.048C220.613 309.048 220.961 308.976 221.141 308.904V308.088C221.009 308.136 220.625 308.208 220.217 308.208C219.329 308.208 219.041 307.668 219.041 306.768V303.912H221.189V303.072H219.041V301.728H218.225L218.177 302.664C218.153 302.976 218.081 303.072 217.889 303.072H217.097V303.912H218.081V306.828C218.081 308.136 218.693 309.048 220.133 309.048ZM225.03 309.096C226.866 309.096 228.03 307.908 228.03 306.048C228.03 304.176 226.866 302.976 225.03 302.976C223.194 302.976 222.03 304.176 222.03 306.048C222.03 307.908 223.194 309.096 225.03 309.096ZM225.03 308.232C223.782 308.232 222.99 307.38 222.99 306.048C222.99 304.704 223.782 303.84 225.03 303.84C226.278 303.84 227.07 304.704 227.07 306.048C227.07 307.38 226.278 308.232 225.03 308.232ZM229.465 309H230.425V306.372C230.425 304.896 231.133 303.84 232.345 303.84C233.317 303.84 233.725 304.404 233.725 305.496C233.725 305.868 233.701 306.168 233.677 306.348H234.553C234.577 306.132 234.613 305.7 234.613 305.292C234.613 303.864 233.905 302.976 232.573 302.976C231.301 302.976 230.689 303.756 230.413 304.788H230.401L230.425 303.072H229.465V309ZM236.075 302.316H237.107V301.104H236.075V302.316ZM236.111 309H237.071V303.072H236.111V309ZM244.181 305.784C244.181 304.02 243.185 302.976 241.493 302.976C239.717 302.976 238.577 304.188 238.577 306.084C238.577 307.92 239.729 309.096 241.517 309.096C243.077 309.096 244.121 308.28 244.181 306.996H243.293C243.209 307.776 242.525 308.28 241.529 308.28C240.365 308.28 239.597 307.488 239.537 306.228H244.181V305.784ZM243.293 305.532H239.573C239.753 304.404 240.461 303.792 241.517 303.792C242.645 303.792 243.293 304.416 243.293 305.46V305.532ZM248.001 309.096C249.801 309.096 250.761 308.4 250.761 307.236C250.761 306.792 250.569 306.336 250.173 306.108C249.765 305.88 249.309 305.796 248.385 305.7C247.605 305.616 247.017 305.544 246.729 305.424C246.381 305.28 246.345 304.992 246.345 304.752C246.345 304.164 247.005 303.792 248.025 303.792C249.081 303.792 249.609 304.2 249.621 305.088H250.509C250.509 303.756 249.765 302.976 247.989 302.976C246.405 302.976 245.385 303.696 245.385 304.812C245.385 305.244 245.553 305.676 245.877 305.916C246.237 306.18 246.825 306.3 247.797 306.384C248.529 306.456 249.153 306.528 249.429 306.66C249.729 306.804 249.801 307.032 249.801 307.272C249.801 307.908 249.213 308.28 247.989 308.28C246.753 308.28 246.273 307.812 246.273 307.02H245.385C245.385 308.16 246.009 309.096 248.001 309.096ZM181.816 326.12C184.396 326.12 185.14 324.932 185.14 323.732C185.14 323.012 184.816 322.46 184.288 322.196C183.772 321.932 182.944 321.8 182.152 321.692C181.468 321.596 180.52 321.452 180.136 321.26C179.8 321.092 179.608 320.792 179.608 320.288C179.608 319.424 180.52 318.848 181.804 318.848C183.16 318.848 183.928 319.448 183.928 320.828H184.864C184.864 319.004 183.988 317.984 181.78 317.984C179.896 317.984 178.6 318.968 178.6 320.372C178.6 321.116 178.924 321.644 179.38 321.92C179.812 322.184 180.676 322.376 181.492 322.472C182.176 322.568 183.076 322.664 183.508 322.844C183.916 323.012 184.132 323.288 184.132 323.792C184.132 324.548 183.628 325.256 181.816 325.256C180.136 325.256 179.56 324.452 179.56 323.312H178.624C178.624 324.74 179.284 326.12 181.816 326.12ZM186.598 319.316H187.63V318.104H186.598V319.316ZM186.634 326H187.594V320.072H186.634V326ZM191.692 326.048C192.172 326.048 192.52 325.976 192.7 325.904V325.088C192.568 325.136 192.184 325.208 191.776 325.208C190.888 325.208 190.6 324.668 190.6 323.768V320.912H192.748V320.072H190.6V318.728H189.784L189.736 319.664C189.712 319.976 189.64 320.072 189.448 320.072H188.656V320.912H189.64V323.828C189.64 325.136 190.252 326.048 191.692 326.048ZM199.192 322.784C199.192 321.02 198.196 319.976 196.504 319.976C194.728 319.976 193.588 321.188 193.588 323.084C193.588 324.92 194.74 326.096 196.528 326.096C198.088 326.096 199.132 325.28 199.192 323.996H198.304C198.22 324.776 197.536 325.28 196.54 325.28C195.376 325.28 194.608 324.488 194.548 323.228H199.192V322.784ZM198.304 322.532H194.584C194.764 321.404 195.472 320.792 196.528 320.792C197.656 320.792 198.304 321.416 198.304 322.46V322.532ZM200.637 326H201.597V323.06C201.597 321.656 202.293 320.84 203.385 320.84C204.333 320.84 204.825 321.452 204.825 322.412V326H205.785V323.012C205.785 321.644 206.481 320.84 207.573 320.84C208.521 320.84 209.001 321.464 209.001 322.448V326H209.961V322.244C209.961 320.864 209.181 319.976 207.837 319.976C206.721 319.976 205.953 320.588 205.749 321.536H205.737C205.593 320.588 204.825 319.976 203.661 319.976C202.593 319.976 201.837 320.624 201.585 321.644H201.573L201.597 320.072H200.637V326ZM213.538 326.096C215.014 326.096 215.758 325.508 215.962 324.596H215.974C215.962 325.172 215.938 325.724 215.926 326H216.886V322.388C216.886 320.84 215.878 319.976 214.138 319.976C212.53 319.976 211.522 320.684 211.522 321.86C211.522 321.968 211.534 322.136 211.546 322.22H212.434C212.422 322.124 212.422 322.04 212.422 322.004C212.422 321.2 213.022 320.792 214.114 320.792C215.326 320.792 215.926 321.284 215.926 322.304V322.736H213.514C211.93 322.736 211.342 323.456 211.342 324.296C211.342 325.412 212.194 326.096 213.538 326.096ZM213.73 325.28C212.794 325.28 212.242 324.896 212.242 324.296C212.242 323.72 212.626 323.432 213.598 323.432H215.926V323.516C215.926 324.596 215.074 325.28 213.73 325.28ZM218.568 328.376H219.528V325.988C219.528 325.712 219.504 325.088 219.492 324.692H219.504C219.756 325.496 220.596 326.096 221.856 326.096C223.596 326.096 224.664 324.86 224.664 322.94C224.664 321.128 223.608 319.976 221.88 319.976C220.596 319.976 219.756 320.612 219.516 321.596H219.504L219.528 320.072H218.568V328.376ZM221.724 325.232C220.38 325.232 219.528 324.512 219.528 323.384V323.024C219.552 321.692 220.404 320.84 221.7 320.84C222.948 320.84 223.704 321.668 223.704 322.952C223.704 324.344 222.936 325.232 221.724 325.232ZM228.396 326.096C230.196 326.096 231.156 325.4 231.156 324.236C231.156 323.792 230.964 323.336 230.568 323.108C230.16 322.88 229.704 322.796 228.78 322.7C228 322.616 227.412 322.544 227.124 322.424C226.776 322.28 226.74 321.992 226.74 321.752C226.74 321.164 227.4 320.792 228.42 320.792C229.476 320.792 230.004 321.2 230.016 322.088H230.904C230.904 320.756 230.16 319.976 228.384 319.976C226.8 319.976 225.78 320.696 225.78 321.812C225.78 322.244 225.948 322.676 226.272 322.916C226.632 323.18 227.22 323.3 228.192 323.384C228.924 323.456 229.548 323.528 229.824 323.66C230.124 323.804 230.196 324.032 230.196 324.272C230.196 324.908 229.608 325.28 228.384 325.28C227.148 325.28 226.668 324.812 226.668 324.02H225.78C225.78 325.16 226.404 326.096 228.396 326.096ZM179.008 343H180.016V335.104H179.008V343ZM181.863 343H182.823V340.084C182.823 338.668 183.699 337.84 185.055 337.84C186.327 337.84 186.903 338.488 186.903 339.496V343H187.863V339.292C187.863 337.876 186.939 336.976 185.379 336.976C183.963 336.976 183.135 337.636 182.811 338.668H182.799L182.823 337.072H181.863V343ZM189.793 343H190.753V337.912H192.961V337.072H190.753V336.484C190.753 335.728 191.185 335.308 191.941 335.308C192.349 335.308 192.649 335.38 192.865 335.452V334.6C192.649 334.528 192.277 334.444 191.821 334.444C190.585 334.444 189.793 335.188 189.793 336.484V337.072H188.797V337.912H189.793V343ZM196.389 343.096C198.225 343.096 199.389 341.908 199.389 340.048C199.389 338.176 198.225 336.976 196.389 336.976C194.553 336.976 193.389 338.176 193.389 340.048C193.389 341.908 194.553 343.096 196.389 343.096ZM196.389 342.232C195.141 342.232 194.349 341.38 194.349 340.048C194.349 338.704 195.141 337.84 196.389 337.84C197.637 337.84 198.429 338.704 198.429 340.048C198.429 341.38 197.637 342.232 196.389 342.232ZM200.824 343H201.784V340.372C201.784 338.896 202.492 337.84 203.704 337.84C204.676 337.84 205.084 338.404 205.084 339.496C205.084 339.868 205.06 340.168 205.036 340.348H205.912C205.936 340.132 205.972 339.7 205.972 339.292C205.972 337.864 205.264 336.976 203.932 336.976C202.66 336.976 202.048 337.756 201.772 338.788H201.76L201.784 337.072H200.824V343ZM207.41 343H208.37V340.06C208.37 338.656 209.066 337.84 210.158 337.84C211.106 337.84 211.598 338.452 211.598 339.412V343H212.558V340.012C212.558 338.644 213.254 337.84 214.346 337.84C215.294 337.84 215.774 338.464 215.774 339.448V343H216.734V339.244C216.734 337.864 215.954 336.976 214.61 336.976C213.494 336.976 212.726 337.588 212.522 338.536H212.51C212.366 337.588 211.598 336.976 210.434 336.976C209.366 336.976 208.61 337.624 208.358 338.644H208.346L208.37 337.072H207.41V343ZM220.312 343.096C221.788 343.096 222.532 342.508 222.736 341.596H222.748C222.736 342.172 222.712 342.724 222.7 343H223.66V339.388C223.66 337.84 222.652 336.976 220.912 336.976C219.304 336.976 218.296 337.684 218.296 338.86C218.296 338.968 218.308 339.136 218.32 339.22H219.208C219.196 339.124 219.196 339.04 219.196 339.004C219.196 338.2 219.796 337.792 220.888 337.792C222.1 337.792 222.7 338.284 222.7 339.304V339.736H220.288C218.704 339.736 218.116 340.456 218.116 341.296C218.116 342.412 218.968 343.096 220.312 343.096ZM220.504 342.28C219.568 342.28 219.016 341.896 219.016 341.296C219.016 340.72 219.4 340.432 220.372 340.432H222.7V340.516C222.7 341.596 221.848 342.28 220.504 342.28ZM227.633 343.048C228.113 343.048 228.461 342.976 228.641 342.904V342.088C228.509 342.136 228.125 342.208 227.717 342.208C226.829 342.208 226.541 341.668 226.541 340.768V337.912H228.689V337.072H226.541V335.728H225.725L225.677 336.664C225.653 336.976 225.581 337.072 225.389 337.072H224.597V337.912H225.581V340.828C225.581 342.136 226.193 343.048 227.633 343.048ZM230.016 336.316H231.048V335.104H230.016V336.316ZM230.052 343H231.012V337.072H230.052V343ZM235.518 343.096C237.354 343.096 238.518 341.908 238.518 340.048C238.518 338.176 237.354 336.976 235.518 336.976C233.682 336.976 232.518 338.176 232.518 340.048C232.518 341.908 233.682 343.096 235.518 343.096ZM235.518 342.232C234.27 342.232 233.478 341.38 233.478 340.048C233.478 338.704 234.27 337.84 235.518 337.84C236.766 337.84 237.558 338.704 237.558 340.048C237.558 341.38 236.766 342.232 235.518 342.232ZM239.953 343H240.913V340.084C240.913 338.668 241.789 337.84 243.145 337.84C244.417 337.84 244.993 338.488 244.993 339.496V343H245.953V339.292C245.953 337.876 245.029 336.976 243.469 336.976C242.053 336.976 241.225 337.636 240.901 338.668H240.889L240.913 337.072H239.953V343ZM256.492 343H257.668L254.332 335.104H253.132L249.796 343H250.852L251.632 341.08H255.724L256.492 343ZM251.932 340.336L253.684 336.028H253.708L255.424 340.336H251.932ZM258.809 343H259.769V340.372C259.769 338.896 260.477 337.84 261.689 337.84C262.661 337.84 263.069 338.404 263.069 339.496C263.069 339.868 263.045 340.168 263.021 340.348H263.897C263.921 340.132 263.957 339.7 263.957 339.292C263.957 337.864 263.249 336.976 261.917 336.976C260.645 336.976 260.033 337.756 259.757 338.788H259.745L259.769 337.072H258.809V343ZM267.987 343.096C269.631 343.096 270.687 342.136 270.687 340.648H269.799C269.787 341.62 269.091 342.232 268.011 342.232C266.859 342.232 266.115 341.38 266.115 340.036C266.115 338.692 266.883 337.84 268.071 337.84C269.103 337.84 269.763 338.464 269.775 339.448H270.663C270.663 337.936 269.643 336.976 268.059 336.976C266.283 336.976 265.155 338.164 265.155 340.036C265.155 341.908 266.259 343.096 267.987 343.096ZM272.252 343H273.212V340.204C273.212 338.704 274.088 337.84 275.444 337.84C276.716 337.84 277.292 338.488 277.292 339.496V343H278.252V339.292C278.252 337.876 277.328 336.976 275.768 336.976C274.352 336.976 273.524 337.648 273.2 338.68H273.188C273.188 338.464 273.212 337.756 273.212 337.432V334.684H272.252V343ZM279.891 336.316H280.923V335.104H279.891V336.316ZM279.927 343H280.887V337.072H279.927V343ZM284.985 343.048C285.465 343.048 285.813 342.976 285.993 342.904V342.088C285.861 342.136 285.477 342.208 285.069 342.208C284.181 342.208 283.893 341.668 283.893 340.768V337.912H286.041V337.072H283.893V335.728H283.077L283.029 336.664C283.005 336.976 282.933 337.072 282.741 337.072H281.949V337.912H282.933V340.828C282.933 342.136 283.545 343.048 284.985 343.048ZM292.485 339.784C292.485 338.02 291.489 336.976 289.797 336.976C288.021 336.976 286.881 338.188 286.881 340.084C286.881 341.92 288.033 343.096 289.821 343.096C291.381 343.096 292.425 342.28 292.485 340.996H291.597C291.513 341.776 290.829 342.28 289.833 342.28C288.669 342.28 287.901 341.488 287.841 340.228H292.485V339.784ZM291.597 339.532H287.877C288.057 338.404 288.765 337.792 289.821 337.792C290.949 337.792 291.597 338.416 291.597 339.46V339.532ZM296.522 343.096C298.166 343.096 299.222 342.136 299.222 340.648H298.334C298.322 341.62 297.626 342.232 296.546 342.232C295.394 342.232 294.65 341.38 294.65 340.036C294.65 338.692 295.418 337.84 296.606 337.84C297.638 337.84 298.298 338.464 298.31 339.448H299.198C299.198 337.936 298.178 336.976 296.594 336.976C294.818 336.976 293.69 338.164 293.69 340.036C293.69 341.908 294.794 343.096 296.522 343.096ZM302.915 343.048C303.395 343.048 303.743 342.976 303.923 342.904V342.088C303.791 342.136 303.407 342.208 302.999 342.208C302.111 342.208 301.823 341.668 301.823 340.768V337.912H303.971V337.072H301.823V335.728H301.007L300.959 336.664C300.935 336.976 300.863 337.072 300.671 337.072H299.879V337.912H300.863V340.828C300.863 342.136 301.475 343.048 302.915 343.048ZM307.71 343.096C309.186 343.096 310.026 342.376 310.278 341.26H310.29C310.29 341.86 310.266 342.604 310.242 343H311.202V337.072H310.242V339.748C310.242 341.308 309.354 342.232 307.974 342.232C306.846 342.232 306.174 341.584 306.174 340.564V337.072H305.214V340.732C305.214 342.172 306.162 343.096 307.71 343.096ZM312.879 343H313.839V340.372C313.839 338.896 314.547 337.84 315.759 337.84C316.731 337.84 317.139 338.404 317.139 339.496C317.139 339.868 317.115 340.168 317.091 340.348H317.967C317.991 340.132 318.027 339.7 318.027 339.292C318.027 337.864 317.319 336.976 315.987 336.976C314.715 336.976 314.103 337.756 313.827 338.788H313.815L313.839 337.072H312.879V343ZM324.829 339.784C324.829 338.02 323.833 336.976 322.141 336.976C320.365 336.976 319.225 338.188 319.225 340.084C319.225 341.92 320.377 343.096 322.165 343.096C323.725 343.096 324.769 342.28 324.829 340.996H323.941C323.857 341.776 323.173 342.28 322.177 342.28C321.013 342.28 320.245 341.488 320.185 340.228H324.829V339.784ZM323.941 339.532H320.221C320.401 338.404 321.109 337.792 322.165 337.792C323.293 337.792 323.941 338.416 323.941 339.46V339.532Z" fill="black"/>
<path d="M351.816 293.12C354.396 293.12 355.14 291.932 355.14 290.732C355.14 290.012 354.816 289.46 354.288 289.196C353.772 288.932 352.944 288.8 352.152 288.692C351.468 288.596 350.52 288.452 350.136 288.26C349.8 288.092 349.608 287.792 349.608 287.288C349.608 286.424 350.52 285.848 351.804 285.848C353.16 285.848 353.928 286.448 353.928 287.828H354.864C354.864 286.004 353.988 284.984 351.78 284.984C349.896 284.984 348.6 285.968 348.6 287.372C348.6 288.116 348.924 288.644 349.38 288.92C349.812 289.184 350.676 289.376 351.492 289.472C352.176 289.568 353.076 289.664 353.508 289.844C353.916 290.012 354.132 290.288 354.132 290.792C354.132 291.548 353.628 292.256 351.816 292.256C350.136 292.256 349.56 291.452 349.56 290.312H348.624C348.624 291.74 349.284 293.12 351.816 293.12ZM356.634 293H357.594V291.44L358.95 290.264L361.47 293H362.838L359.67 289.652L362.67 287.072H361.326L357.606 290.384H357.594V284.684H356.634V293ZM368.923 289.784C368.923 288.02 367.927 286.976 366.235 286.976C364.459 286.976 363.319 288.188 363.319 290.084C363.319 291.92 364.471 293.096 366.259 293.096C367.819 293.096 368.863 292.28 368.923 290.996H368.035C367.951 291.776 367.267 292.28 366.271 292.28C365.107 292.28 364.339 291.488 364.279 290.228H368.923V289.784ZM368.035 289.532H364.315C364.495 288.404 365.203 287.792 366.259 287.792C367.387 287.792 368.035 288.416 368.035 289.46V289.532ZM372.719 293.048C373.199 293.048 373.547 292.976 373.727 292.904V292.088C373.595 292.136 373.211 292.208 372.803 292.208C371.915 292.208 371.627 291.668 371.627 290.768V287.912H373.775V287.072H371.627V285.728H370.811L370.763 286.664C370.739 286.976 370.667 287.072 370.475 287.072H369.683V287.912H370.667V290.828C370.667 292.136 371.279 293.048 372.719 293.048ZM377.448 293.096C379.092 293.096 380.148 292.136 380.148 290.648H379.26C379.248 291.62 378.552 292.232 377.472 292.232C376.32 292.232 375.576 291.38 375.576 290.036C375.576 288.692 376.344 287.84 377.532 287.84C378.564 287.84 379.224 288.464 379.236 289.448H380.124C380.124 287.936 379.104 286.976 377.52 286.976C375.744 286.976 374.616 288.164 374.616 290.036C374.616 291.908 375.72 293.096 377.448 293.096ZM381.713 293H382.673V290.204C382.673 288.704 383.549 287.84 384.905 287.84C386.177 287.84 386.753 288.488 386.753 289.496V293H387.713V289.292C387.713 287.876 386.789 286.976 385.229 286.976C383.812 286.976 382.985 287.648 382.661 288.68H382.649C382.649 288.464 382.673 287.756 382.673 287.432V284.684H381.713V293ZM389.352 286.316H390.384V285.104H389.352V286.316ZM389.388 293H390.348V287.072H389.388V293ZM392.094 293H393.054V290.084C393.054 288.668 393.93 287.84 395.286 287.84C396.558 287.84 397.134 288.488 397.134 289.496V293H398.094V289.292C398.094 287.876 397.17 286.976 395.61 286.976C394.194 286.976 393.366 287.636 393.042 288.668H393.03L393.054 287.072H392.094V293ZM403.695 292.184H401.775C401.271 292.184 401.019 291.932 401.019 291.536C401.019 291.308 401.091 291.128 401.187 291.032C401.511 291.14 401.871 291.2 402.279 291.2C403.827 291.2 404.811 290.372 404.811 289.088C404.811 288.608 404.679 288.2 404.427 287.864C404.331 287.624 404.271 287.396 404.271 287.216C404.271 286.868 404.487 286.688 404.883 286.688C405.075 286.688 405.219 286.724 405.303 286.76V285.992C405.195 285.956 405.015 285.92 404.763 285.92C404.091 285.92 403.671 286.232 403.671 286.712C403.671 286.976 403.767 287.204 403.899 287.372V287.384C403.479 287.12 402.927 286.976 402.279 286.976C400.743 286.976 399.759 287.804 399.759 289.088C399.759 289.808 400.071 290.396 400.623 290.756V290.78C400.395 290.912 400.203 291.26 400.203 291.704C400.203 292.112 400.383 292.46 400.683 292.688V292.7C399.939 292.7 399.471 293.192 399.471 293.78C399.471 294.908 400.635 295.544 402.591 295.544C404.463 295.544 405.579 294.788 405.579 293.612C405.579 292.712 404.895 292.184 403.695 292.184ZM402.279 287.792C403.251 287.792 403.875 288.296 403.875 289.088C403.875 289.88 403.251 290.384 402.279 290.384C401.307 290.384 400.695 289.88 400.695 289.088C400.695 288.296 401.307 287.792 402.279 287.792ZM402.579 294.728C401.271 294.728 400.431 294.416 400.431 293.756C400.431 293.216 400.959 293 401.787 293H403.551C404.271 293 404.619 293.24 404.619 293.708C404.619 294.272 404.103 294.728 402.579 294.728ZM350.868 310H351.96L353.952 303.652H353.988L355.944 310H357.024L359.64 302.104H358.632L356.532 308.692H356.496L354.516 302.188H353.484L351.48 308.692H351.444L349.344 302.104H348.264L350.868 310ZM360.77 303.316H361.802V302.104H360.77V303.316ZM360.806 310H361.766V304.072H360.806V310ZM363.512 310H364.472V307.372C364.472 305.896 365.18 304.84 366.392 304.84C367.364 304.84 367.772 305.404 367.772 306.496C367.772 306.868 367.748 307.168 367.724 307.348H368.6C368.624 307.132 368.66 306.7 368.66 306.292C368.66 304.864 367.952 303.976 366.62 303.976C365.348 303.976 364.736 304.756 364.46 305.788H364.448L364.472 304.072H363.512V310ZM375.462 306.784C375.462 305.02 374.466 303.976 372.774 303.976C370.998 303.976 369.858 305.188 369.858 307.084C369.858 308.92 371.01 310.096 372.798 310.096C374.358 310.096 375.402 309.28 375.462 307.996H374.574C374.49 308.776 373.806 309.28 372.81 309.28C371.646 309.28 370.878 308.488 370.818 307.228H375.462V306.784ZM374.574 306.532H370.854C371.034 305.404 371.742 304.792 372.798 304.792C373.926 304.792 374.574 305.416 374.574 306.46V306.532ZM377.218 310H378.178V304.912H380.386V304.072H378.178V303.484C378.178 302.728 378.61 302.308 379.366 302.308C379.774 302.308 380.074 302.38 380.29 302.452V301.6C380.074 301.528 379.702 301.444 379.246 301.444C378.01 301.444 377.218 302.188 377.218 303.484V304.072H376.222V304.912H377.218V310ZM381.606 310H382.566V307.372C382.566 305.896 383.274 304.84 384.486 304.84C385.458 304.84 385.866 305.404 385.866 306.496C385.866 306.868 385.842 307.168 385.818 307.348H386.694C386.718 307.132 386.754 306.7 386.754 306.292C386.754 304.864 386.046 303.976 384.714 303.976C383.442 303.976 382.83 304.756 382.554 305.788H382.542L382.566 304.072H381.606V310ZM390.148 310.096C391.624 310.096 392.368 309.508 392.572 308.596H392.584C392.572 309.172 392.548 309.724 392.536 310H393.496V306.388C393.496 304.84 392.488 303.976 390.748 303.976C389.14 303.976 388.132 304.684 388.132 305.86C388.132 305.968 388.144 306.136 388.156 306.22H389.044C389.032 306.124 389.032 306.04 389.032 306.004C389.032 305.2 389.632 304.792 390.724 304.792C391.936 304.792 392.536 305.284 392.536 306.304V306.736H390.124C388.54 306.736 387.952 307.456 387.952 308.296C387.952 309.412 388.804 310.096 390.148 310.096ZM390.34 309.28C389.404 309.28 388.852 308.896 388.852 308.296C388.852 307.72 389.236 307.432 390.208 307.432H392.536V307.516C392.536 308.596 391.684 309.28 390.34 309.28ZM395.117 310H396.077V307.06C396.077 305.656 396.773 304.84 397.865 304.84C398.813 304.84 399.305 305.452 399.305 306.412V310H400.265V307.012C400.265 305.644 400.961 304.84 402.053 304.84C403.001 304.84 403.481 305.464 403.481 306.448V310H404.441V306.244C404.441 304.864 403.661 303.976 402.317 303.976C401.201 303.976 400.433 304.588 400.229 305.536H400.217C400.073 304.588 399.305 303.976 398.141 303.976C397.073 303.976 396.317 304.624 396.065 305.644H396.053L396.077 304.072H395.117V310ZM411.427 306.784C411.427 305.02 410.431 303.976 408.739 303.976C406.963 303.976 405.823 305.188 405.823 307.084C405.823 308.92 406.975 310.096 408.763 310.096C410.323 310.096 411.367 309.28 411.427 307.996H410.539C410.455 308.776 409.771 309.28 408.775 309.28C407.611 309.28 406.843 308.488 406.783 307.228H411.427V306.784ZM410.539 306.532H406.819C406.999 305.404 407.707 304.792 408.763 304.792C409.891 304.792 410.539 305.416 410.539 306.46V306.532ZM415.247 310.096C417.047 310.096 418.007 309.4 418.007 308.236C418.007 307.792 417.815 307.336 417.419 307.108C417.011 306.88 416.555 306.796 415.631 306.7C414.851 306.616 414.263 306.544 413.975 306.424C413.627 306.28 413.591 305.992 413.591 305.752C413.591 305.164 414.251 304.792 415.271 304.792C416.327 304.792 416.855 305.2 416.867 306.088H417.755C417.755 304.756 417.011 303.976 415.235 303.976C413.651 303.976 412.631 304.696 412.631 305.812C412.631 306.244 412.799 306.676 413.123 306.916C413.483 307.18 414.071 307.3 415.043 307.384C415.775 307.456 416.399 307.528 416.675 307.66C416.975 307.804 417.047 308.032 417.047 308.272C417.047 308.908 416.459 309.28 415.235 309.28C413.999 309.28 413.519 308.812 413.519 308.02H412.631C412.631 309.16 413.255 310.096 415.247 310.096Z" fill="black"/>
<path d="M501.96 294H507.12V293.088H502.968V286.104H501.96V294ZM510.858 294.096C512.694 294.096 513.858 292.908 513.858 291.048C513.858 289.176 512.694 287.976 510.858 287.976C509.022 287.976 507.858 289.176 507.858 291.048C507.858 292.908 509.022 294.096 510.858 294.096ZM510.858 293.232C509.61 293.232 508.818 292.38 508.818 291.048C508.818 289.704 509.61 288.84 510.858 288.84C512.106 288.84 512.898 289.704 512.898 291.048C512.898 292.38 512.106 293.232 510.858 293.232ZM516.294 294H517.434L519.018 289.272H519.054L520.59 294H521.766L523.53 288.072H522.606L521.19 292.992H521.166L519.57 288.072H518.622L516.966 292.992H516.942L515.574 288.072H514.53L516.294 294ZM524.248 290.952H526.912V290.256H524.248V290.952ZM528.496 294H529.456V288.912H531.664V288.072H529.456V287.484C529.456 286.728 529.888 286.308 530.644 286.308C531.052 286.308 531.352 286.38 531.568 286.452V285.6C531.352 285.528 530.98 285.444 530.524 285.444C529.288 285.444 528.496 286.188 528.496 287.484V288.072H527.5V288.912H528.496V294ZM532.912 287.316H533.944V286.104H532.912V287.316ZM532.948 294H533.908V288.072H532.948V294ZM538.534 294H539.542V291.396H541.87C543.634 291.396 544.702 290.448 544.702 288.768C544.702 287.124 543.586 286.104 541.678 286.104H538.534V294ZM539.542 290.628V287.016H541.642C542.974 287.016 543.718 287.652 543.718 288.828C543.718 290.028 542.998 290.628 541.786 290.628H539.542ZM546.125 294H547.085V291.372C547.085 289.896 547.793 288.84 549.005 288.84C549.977 288.84 550.385 289.404 550.385 290.496C550.385 290.868 550.361 291.168 550.337 291.348H551.213C551.237 291.132 551.273 290.7 551.273 290.292C551.273 288.864 550.565 287.976 549.233 287.976C547.961 287.976 547.349 288.756 547.073 289.788H547.061L547.085 288.072H546.125V294ZM555.471 294.096C557.307 294.096 558.471 292.908 558.471 291.048C558.471 289.176 557.307 287.976 555.471 287.976C553.635 287.976 552.471 289.176 552.471 291.048C552.471 292.908 553.635 294.096 555.471 294.096ZM555.471 293.232C554.223 293.232 553.431 292.38 553.431 291.048C553.431 289.704 554.223 288.84 555.471 288.84C556.719 288.84 557.511 289.704 557.511 291.048C557.511 292.38 556.719 293.232 555.471 293.232ZM562.094 294.048C562.574 294.048 562.922 293.976 563.102 293.904V293.088C562.97 293.136 562.586 293.208 562.178 293.208C561.29 293.208 561.002 292.668 561.002 291.768V288.912H563.15V288.072H561.002V286.728H560.186L560.138 287.664C560.114 287.976 560.042 288.072 559.85 288.072H559.058V288.912H560.042V291.828C560.042 293.136 560.654 294.048 562.094 294.048ZM566.991 294.096C568.827 294.096 569.991 292.908 569.991 291.048C569.991 289.176 568.827 287.976 566.991 287.976C565.155 287.976 563.991 289.176 563.991 291.048C563.991 292.908 565.155 294.096 566.991 294.096ZM566.991 293.232C565.743 293.232 564.951 292.38 564.951 291.048C564.951 289.704 565.743 288.84 566.991 288.84C568.239 288.84 569.031 289.704 569.031 291.048C569.031 292.38 568.239 293.232 566.991 293.232ZM573.614 294.048C574.094 294.048 574.442 293.976 574.622 293.904V293.088C574.49 293.136 574.106 293.208 573.698 293.208C572.81 293.208 572.522 292.668 572.522 291.768V288.912H574.67V288.072H572.522V286.728H571.706L571.658 287.664C571.634 287.976 571.562 288.072 571.37 288.072H570.578V288.912H571.562V291.828C571.562 293.136 572.174 294.048 573.614 294.048ZM576.969 296.496C578.097 296.496 578.553 295.944 579.261 294.108L581.613 288.072H580.641L578.733 293.028H578.709L576.549 288.072H575.421L578.085 294H578.337C577.785 295.344 577.497 295.656 576.849 295.656C576.549 295.656 576.261 295.584 576.117 295.536V296.34C576.285 296.412 576.633 296.496 576.969 296.496ZM582.806 296.376H583.766V293.988C583.766 293.712 583.742 293.088 583.73 292.692H583.742C583.994 293.496 584.834 294.096 586.094 294.096C587.834 294.096 588.902 292.86 588.902 290.94C588.902 289.128 587.846 287.976 586.118 287.976C584.834 287.976 583.994 288.612 583.754 289.596H583.742L583.766 288.072H582.806V296.376ZM585.962 293.232C584.618 293.232 583.766 292.512 583.766 291.384V291.024C583.79 289.692 584.642 288.84 585.938 288.84C587.186 288.84 587.942 289.668 587.942 290.952C587.942 292.344 587.174 293.232 585.962 293.232ZM595.704 290.784C595.704 289.02 594.708 287.976 593.016 287.976C591.24 287.976 590.1 289.188 590.1 291.084C590.1 292.92 591.252 294.096 593.04 294.096C594.6 294.096 595.644 293.28 595.704 291.996H594.816C594.732 292.776 594.048 293.28 593.052 293.28C591.888 293.28 591.12 292.488 591.06 291.228H595.704V290.784ZM594.816 290.532H591.096C591.276 289.404 591.984 288.792 593.04 288.792C594.168 288.792 594.816 289.416 594.816 290.46V290.532ZM504.816 311.12C507.396 311.12 508.14 309.932 508.14 308.732C508.14 308.012 507.816 307.46 507.288 307.196C506.772 306.932 505.944 306.8 505.152 306.692C504.468 306.596 503.52 306.452 503.136 306.26C502.8 306.092 502.608 305.792 502.608 305.288C502.608 304.424 503.52 303.848 504.804 303.848C506.16 303.848 506.928 304.448 506.928 305.828H507.864C507.864 304.004 506.988 302.984 504.78 302.984C502.896 302.984 501.6 303.968 501.6 305.372C501.6 306.116 501.924 306.644 502.38 306.92C502.812 307.184 503.676 307.376 504.492 307.472C505.176 307.568 506.076 307.664 506.508 307.844C506.916 308.012 507.132 308.288 507.132 308.792C507.132 309.548 506.628 310.256 504.816 310.256C503.136 310.256 502.56 309.452 502.56 308.312H501.624C501.624 309.74 502.284 311.12 504.816 311.12ZM511.926 311.048C512.406 311.048 512.754 310.976 512.934 310.904V310.088C512.802 310.136 512.418 310.208 512.01 310.208C511.122 310.208 510.834 309.668 510.834 308.768V305.912H512.982V305.072H510.834V303.728H510.018L509.97 304.664C509.946 304.976 509.874 305.072 509.682 305.072H508.89V305.912H509.874V308.828C509.874 310.136 510.486 311.048 511.926 311.048ZM515.281 313.496C516.409 313.496 516.865 312.944 517.573 311.108L519.925 305.072H518.953L517.045 310.028H517.021L514.861 305.072H513.733L516.397 311H516.649C516.097 312.344 515.809 312.656 515.161 312.656C514.861 312.656 514.573 312.584 514.429 312.536V313.34C514.597 313.412 514.945 313.496 515.281 313.496ZM521.119 311H522.079V302.684H521.119V311ZM529.188 307.784C529.188 306.02 528.192 304.976 526.5 304.976C524.724 304.976 523.584 306.188 523.584 308.084C523.584 309.92 524.736 311.096 526.524 311.096C528.084 311.096 529.128 310.28 529.188 308.996H528.3C528.216 309.776 527.532 310.28 526.536 310.28C525.372 310.28 524.604 309.488 524.544 308.228H529.188V307.784ZM528.3 307.532H524.58C524.76 306.404 525.468 305.792 526.524 305.792C527.652 305.792 528.3 306.416 528.3 307.46V307.532ZM537.071 311.12C538.643 311.12 539.519 310.436 539.759 309.536H539.771C539.747 310.112 539.711 310.676 539.675 311H540.623V307.208H536.843V307.952H539.615V308.18C539.615 309.368 538.643 310.256 537.071 310.256C535.487 310.256 534.167 309.044 534.167 307.136C534.167 305.168 535.463 303.896 537.131 303.896C538.559 303.896 539.615 304.64 539.615 305.9C539.615 306.02 539.615 306.164 539.603 306.32H540.539C540.551 306.128 540.551 305.948 540.551 305.852C540.551 304.052 539.123 302.984 537.131 302.984C534.887 302.984 533.159 304.652 533.159 307.124C533.159 309.572 534.827 311.12 537.071 311.12ZM544.741 311.096C546.217 311.096 547.057 310.376 547.309 309.26H547.321C547.321 309.86 547.297 310.604 547.273 311H548.233V305.072H547.273V307.748C547.273 309.308 546.385 310.232 545.005 310.232C543.877 310.232 543.205 309.584 543.205 308.564V305.072H542.245V308.732C542.245 310.172 543.193 311.096 544.741 311.096ZM549.934 304.316H550.966V303.104H549.934V304.316ZM549.97 311H550.93V305.072H549.97V311ZM555.256 311.096C556.576 311.096 557.368 310.436 557.596 309.416H557.62C557.608 309.944 557.596 310.472 557.56 311H558.52V302.684H557.56V306.26H557.548C557.332 305.48 556.576 304.976 555.34 304.976C553.54 304.976 552.436 306.236 552.436 308C552.436 309.848 553.54 311.096 555.256 311.096ZM555.412 310.232C554.188 310.232 553.396 309.32 553.396 308C553.396 306.764 554.188 305.84 555.424 305.84C556.732 305.84 557.56 306.608 557.56 307.808V308.108C557.56 309.404 556.72 310.232 555.412 310.232ZM565.622 307.784C565.622 306.02 564.626 304.976 562.934 304.976C561.158 304.976 560.018 306.188 560.018 308.084C560.018 309.92 561.17 311.096 562.958 311.096C564.518 311.096 565.562 310.28 565.622 308.996H564.734C564.65 309.776 563.966 310.28 562.97 310.28C561.806 310.28 561.038 309.488 560.978 308.228H565.622V307.784ZM564.734 307.532H561.014C561.194 306.404 561.902 305.792 562.958 305.792C564.086 305.792 564.734 306.416 564.734 307.46V307.532ZM501.96 328H502.968V324.304H507.816V328H508.824V320.104H507.816V323.464H502.968V320.104H501.96V328ZM510.797 328H511.805V320.104H510.797V328ZM517.637 327.184H515.717C515.213 327.184 514.961 326.932 514.961 326.536C514.961 326.308 515.033 326.128 515.129 326.032C515.453 326.14 515.812 326.2 516.221 326.2C517.769 326.2 518.753 325.372 518.753 324.088C518.753 323.608 518.621 323.2 518.369 322.864C518.273 322.624 518.213 322.396 518.213 322.216C518.213 321.868 518.429 321.688 518.825 321.688C519.017 321.688 519.161 321.724 519.245 321.76V320.992C519.137 320.956 518.957 320.92 518.705 320.92C518.033 320.92 517.613 321.232 517.613 321.712C517.613 321.976 517.709 322.204 517.841 322.372V322.384C517.421 322.12 516.869 321.976 516.221 321.976C514.685 321.976 513.701 322.804 513.701 324.088C513.701 324.808 514.013 325.396 514.565 325.756V325.78C514.337 325.912 514.145 326.26 514.145 326.704C514.145 327.112 514.325 327.46 514.625 327.688V327.7C513.881 327.7 513.413 328.192 513.413 328.78C513.413 329.908 514.576 330.544 516.533 330.544C518.405 330.544 519.521 329.788 519.521 328.612C519.521 327.712 518.837 327.184 517.637 327.184ZM516.221 322.792C517.193 322.792 517.817 323.296 517.817 324.088C517.817 324.88 517.193 325.384 516.221 325.384C515.249 325.384 514.637 324.88 514.637 324.088C514.637 323.296 515.249 322.792 516.221 322.792ZM516.521 329.728C515.213 329.728 514.373 329.416 514.373 328.756C514.373 328.216 514.901 328 515.729 328H517.493C518.213 328 518.561 328.24 518.561 328.708C518.561 329.272 518.045 329.728 516.521 329.728ZM520.92 328H521.88V325.204C521.88 323.704 522.756 322.84 524.112 322.84C525.384 322.84 525.96 323.488 525.96 324.496V328H526.92V324.292C526.92 322.876 525.996 321.976 524.436 321.976C523.02 321.976 522.192 322.648 521.868 323.68H521.856C521.856 323.464 521.88 322.756 521.88 322.432V319.684H520.92V328ZM528.127 324.952H530.791V324.256H528.127V324.952ZM532.183 328H533.191V324.568H536.719V323.8H533.191V321.016H537.307V320.104H532.183V328ZM538.532 321.316H539.564V320.104H538.532V321.316ZM538.568 328H539.528V322.072H538.568V328ZM544.159 328H545.167V325.396H547.495C549.259 325.396 550.327 324.448 550.327 322.768C550.327 321.124 549.211 320.104 547.303 320.104H544.159V328ZM545.167 324.628V321.016H547.267C548.599 321.016 549.343 321.652 549.343 322.828C549.343 324.028 548.623 324.628 547.411 324.628H545.167ZM551.75 328H552.71V325.372C552.71 323.896 553.418 322.84 554.63 322.84C555.602 322.84 556.01 323.404 556.01 324.496C556.01 324.868 555.986 325.168 555.962 325.348H556.838C556.862 325.132 556.898 324.7 556.898 324.292C556.898 322.864 556.19 321.976 554.858 321.976C553.586 321.976 552.974 322.756 552.698 323.788H552.686L552.71 322.072H551.75V328ZM561.096 328.096C562.932 328.096 564.096 326.908 564.096 325.048C564.096 323.176 562.932 321.976 561.096 321.976C559.26 321.976 558.096 323.176 558.096 325.048C558.096 326.908 559.26 328.096 561.096 328.096ZM561.096 327.232C559.848 327.232 559.056 326.38 559.056 325.048C559.056 323.704 559.848 322.84 561.096 322.84C562.344 322.84 563.136 323.704 563.136 325.048C563.136 326.38 562.344 327.232 561.096 327.232ZM567.719 328.048C568.199 328.048 568.547 327.976 568.727 327.904V327.088C568.595 327.136 568.211 327.208 567.803 327.208C566.915 327.208 566.627 326.668 566.627 325.768V322.912H568.775V322.072H566.627V320.728H565.811L565.763 321.664C565.739 321.976 565.667 322.072 565.475 322.072H564.683V322.912H565.667V325.828C565.667 327.136 566.279 328.048 567.719 328.048ZM572.616 328.096C574.452 328.096 575.616 326.908 575.616 325.048C575.616 323.176 574.452 321.976 572.616 321.976C570.78 321.976 569.616 323.176 569.616 325.048C569.616 326.908 570.78 328.096 572.616 328.096ZM572.616 327.232C571.368 327.232 570.576 326.38 570.576 325.048C570.576 323.704 571.368 322.84 572.616 322.84C573.864 322.84 574.656 323.704 574.656 325.048C574.656 326.38 573.864 327.232 572.616 327.232ZM579.239 328.048C579.719 328.048 580.067 327.976 580.247 327.904V327.088C580.115 327.136 579.731 327.208 579.323 327.208C578.435 327.208 578.147 326.668 578.147 325.768V322.912H580.295V322.072H578.147V320.728H577.331L577.283 321.664C577.259 321.976 577.187 322.072 576.995 322.072H576.203V322.912H577.187V325.828C577.187 327.136 577.799 328.048 579.239 328.048ZM582.594 330.496C583.722 330.496 584.178 329.944 584.886 328.108L587.238 322.072H586.266L584.358 327.028H584.334L582.174 322.072H581.046L583.71 328H583.962C583.41 329.344 583.122 329.656 582.474 329.656C582.174 329.656 581.886 329.584 581.742 329.536V330.34C581.91 330.412 582.258 330.496 582.594 330.496ZM588.431 330.376H589.391V327.988C589.391 327.712 589.367 327.088 589.355 326.692H589.367C589.619 327.496 590.459 328.096 591.719 328.096C593.459 328.096 594.527 326.86 594.527 324.94C594.527 323.128 593.471 321.976 591.743 321.976C590.459 321.976 589.619 322.612 589.379 323.596H589.367L589.391 322.072H588.431V330.376ZM591.587 327.232C590.243 327.232 589.391 326.512 589.391 325.384V325.024C589.415 323.692 590.267 322.84 591.563 322.84C592.811 322.84 593.567 323.668 593.567 324.952C593.567 326.344 592.799 327.232 591.587 327.232ZM601.329 324.784C601.329 323.02 600.333 321.976 598.641 321.976C596.865 321.976 595.725 323.188 595.725 325.084C595.725 326.92 596.877 328.096 598.665 328.096C600.225 328.096 601.269 327.28 601.329 325.996H600.441C600.357 326.776 599.673 327.28 598.677 327.28C597.513 327.28 596.745 326.488 596.685 325.228H601.329V324.784ZM600.441 324.532H596.721C596.901 323.404 597.609 322.792 598.665 322.792C599.793 322.792 600.441 323.416 600.441 324.46V324.532Z" fill="black"/>
<path d="M654.248 311.12C656.312 311.12 657.572 309.896 657.572 308.096V303.104H656.66V308.096C656.66 309.392 655.772 310.208 654.284 310.208C652.796 310.208 651.908 309.392 651.908 308.096V303.104H650.9V308.096C650.9 309.896 652.172 311.12 654.248 311.12ZM661.689 311.096C663.489 311.096 664.449 310.4 664.449 309.236C664.449 308.792 664.257 308.336 663.861 308.108C663.453 307.88 662.997 307.796 662.073 307.7C661.293 307.616 660.705 307.544 660.417 307.424C660.069 307.28 660.033 306.992 660.033 306.752C660.033 306.164 660.693 305.792 661.713 305.792C662.769 305.792 663.297 306.2 663.309 307.088H664.197C664.197 305.756 663.453 304.976 661.677 304.976C660.093 304.976 659.073 305.696 659.073 306.812C659.073 307.244 659.241 307.676 659.565 307.916C659.925 308.18 660.513 308.3 661.485 308.384C662.217 308.456 662.841 308.528 663.117 308.66C663.417 308.804 663.489 309.032 663.489 309.272C663.489 309.908 662.901 310.28 661.677 310.28C660.441 310.28 659.961 309.812 659.961 309.02H659.073C659.073 310.16 659.697 311.096 661.689 311.096ZM667.843 311.096C669.319 311.096 670.063 310.508 670.267 309.596H670.279C670.267 310.172 670.243 310.724 670.231 311H671.191V307.388C671.191 305.84 670.183 304.976 668.443 304.976C666.835 304.976 665.827 305.684 665.827 306.86C665.827 306.968 665.839 307.136 665.851 307.22H666.739C666.727 307.124 666.727 307.04 666.727 307.004C666.727 306.2 667.327 305.792 668.419 305.792C669.631 305.792 670.231 306.284 670.231 307.304V307.736H667.819C666.235 307.736 665.647 308.456 665.647 309.296C665.647 310.412 666.499 311.096 667.843 311.096ZM668.035 310.28C667.099 310.28 666.547 309.896 666.547 309.296C666.547 308.72 666.931 308.432 667.903 308.432H670.231V308.516C670.231 309.596 669.379 310.28 668.035 310.28ZM676.245 311.096C677.901 311.096 678.969 309.86 678.969 307.928C678.969 306.128 677.925 304.976 676.221 304.976C674.949 304.976 674.085 305.588 673.821 306.536H673.809C673.821 306.248 673.833 305.768 673.833 305.528V302.684H672.873V311H673.833C673.809 310.688 673.785 310.1 673.785 309.632H673.797C674.049 310.52 674.901 311.096 676.245 311.096ZM676.005 310.232C674.685 310.232 673.833 309.5 673.833 308.36V308.048C673.833 306.704 674.697 305.84 676.041 305.84C677.265 305.84 678.009 306.668 678.009 307.952C678.009 309.344 677.229 310.232 676.005 310.232ZM680.43 304.316H681.462V303.104H680.43V304.316ZM680.466 311H681.426V305.072H680.466V311ZM683.232 311H684.192V302.684H683.232V311ZM685.962 304.316H686.994V303.104H685.962V304.316ZM685.998 311H686.958V305.072H685.998V311ZM691.055 311.048C691.535 311.048 691.883 310.976 692.063 310.904V310.088C691.931 310.136 691.547 310.208 691.139 310.208C690.251 310.208 689.963 309.668 689.963 308.768V305.912H692.111V305.072H689.963V303.728H689.147L689.099 304.664C689.075 304.976 689.003 305.072 688.811 305.072H688.019V305.912H689.003V308.828C689.003 310.136 689.615 311.048 691.055 311.048ZM694.41 313.496C695.538 313.496 695.994 312.944 696.702 311.108L699.054 305.072H698.082L696.174 310.028H696.15L693.99 305.072H692.862L695.526 311H695.778C695.226 312.344 694.938 312.656 694.29 312.656C693.99 312.656 693.702 312.584 693.558 312.536V313.34C693.726 313.412 694.074 313.496 694.41 313.496ZM704.993 311H706.001V304.004H708.617V303.104H702.377V304.004H704.993V311ZM714.27 307.784C714.27 306.02 713.274 304.976 711.582 304.976C709.806 304.976 708.666 306.188 708.666 308.084C708.666 309.92 709.818 311.096 711.606 311.096C713.166 311.096 714.21 310.28 714.27 308.996H713.382C713.298 309.776 712.614 310.28 711.618 310.28C710.454 310.28 709.686 309.488 709.626 308.228H714.27V307.784ZM713.382 307.532H709.662C709.842 306.404 710.55 305.792 711.606 305.792C712.734 305.792 713.382 306.416 713.382 307.46V307.532ZM718.091 311.096C719.891 311.096 720.851 310.4 720.851 309.236C720.851 308.792 720.659 308.336 720.263 308.108C719.855 307.88 719.399 307.796 718.475 307.7C717.695 307.616 717.107 307.544 716.819 307.424C716.471 307.28 716.435 306.992 716.435 306.752C716.435 306.164 717.095 305.792 718.115 305.792C719.171 305.792 719.699 306.2 719.711 307.088H720.599C720.599 305.756 719.855 304.976 718.079 304.976C716.495 304.976 715.475 305.696 715.475 306.812C715.475 307.244 715.643 307.676 715.967 307.916C716.327 308.18 716.915 308.3 717.887 308.384C718.619 308.456 719.243 308.528 719.519 308.66C719.819 308.804 719.891 309.032 719.891 309.272C719.891 309.908 719.303 310.28 718.079 310.28C716.843 310.28 716.363 309.812 716.363 309.02H715.475C715.475 310.16 716.099 311.096 718.091 311.096ZM724.641 311.048C725.121 311.048 725.469 310.976 725.649 310.904V310.088C725.517 310.136 725.133 310.208 724.725 310.208C723.837 310.208 723.549 309.668 723.549 308.768V305.912H725.697V305.072H723.549V303.728H722.733L722.685 304.664C722.661 304.976 722.589 305.072 722.397 305.072H721.605V305.912H722.589V308.828C722.589 310.136 723.201 311.048 724.641 311.048ZM727.024 304.316H728.056V303.104H727.024V304.316ZM727.06 311H728.02V305.072H727.06V311ZM729.766 311H730.726V308.084C730.726 306.668 731.602 305.84 732.958 305.84C734.23 305.84 734.806 306.488 734.806 307.496V311H735.766V307.292C735.766 305.876 734.842 304.976 733.282 304.976C731.866 304.976 731.038 305.636 730.714 306.668H730.702L730.726 305.072H729.766V311ZM741.367 310.184H739.447C738.943 310.184 738.691 309.932 738.691 309.536C738.691 309.308 738.763 309.128 738.859 309.032C739.183 309.14 739.543 309.2 739.951 309.2C741.499 309.2 742.483 308.372 742.483 307.088C742.483 306.608 742.351 306.2 742.099 305.864C742.003 305.624 741.943 305.396 741.943 305.216C741.943 304.868 742.159 304.688 742.555 304.688C742.747 304.688 742.891 304.724 742.975 304.76V303.992C742.867 303.956 742.687 303.92 742.435 303.92C741.763 303.92 741.343 304.232 741.343 304.712C741.343 304.976 741.439 305.204 741.571 305.372V305.384C741.151 305.12 740.599 304.976 739.951 304.976C738.415 304.976 737.431 305.804 737.431 307.088C737.431 307.808 737.743 308.396 738.295 308.756V308.78C738.067 308.912 737.875 309.26 737.875 309.704C737.875 310.112 738.055 310.46 738.355 310.688V310.7C737.611 310.7 737.143 311.192 737.143 311.78C737.143 312.908 738.307 313.544 740.263 313.544C742.135 313.544 743.251 312.788 743.251 311.612C743.251 310.712 742.567 310.184 741.367 310.184ZM739.951 305.792C740.923 305.792 741.547 306.296 741.547 307.088C741.547 307.88 740.923 308.384 739.951 308.384C738.979 308.384 738.367 307.88 738.367 307.088C738.367 306.296 738.979 305.792 739.951 305.792ZM740.251 312.728C738.943 312.728 738.103 312.416 738.103 311.756C738.103 311.216 738.631 311 739.459 311H741.223C741.943 311 742.291 311.24 742.291 311.708C742.291 312.272 741.775 312.728 740.251 312.728Z" fill="black"/>
<path d="M2.304 35H12.132C19.044 35 23.364 30.716 23.364 23.12C23.364 15.596 18.792 11.312 11.376 11.312H2.304V35ZM6.624 31.4V14.912H11.556C16.092 14.912 19.08 17.72 19.08 23.12C19.08 28.556 16.308 31.4 12.06 31.4H6.624ZM43.7195 25.46C43.7195 19.916 40.5155 16.928 35.4755 16.928C29.8595 16.928 26.3315 20.492 26.3315 26.252C26.3315 31.832 29.8595 35.288 35.4755 35.288C40.3355 35.288 43.5755 32.876 43.7195 28.916H40.0835C39.9035 31.004 38.1395 32.156 35.5475 32.156C32.5235 32.156 30.6155 30.32 30.3995 26.9H43.7195V25.46ZM40.0835 24.452H30.5075C30.9755 21.5 32.7395 20.06 35.5115 20.06C38.4275 20.06 40.0835 21.536 40.0835 24.2V24.452ZM55.0029 35.288C60.6909 35.288 63.7149 33.164 63.7149 29.564C63.7149 28.124 63.0309 26.756 61.8429 26.108C60.5829 25.388 59.1429 25.136 56.6229 24.884C54.4629 24.668 52.7709 24.488 51.9069 24.2C50.8629 23.84 50.6829 23.12 50.6829 22.364C50.6829 20.852 52.2669 19.844 55.0749 19.844C58.0269 19.844 59.2869 20.96 59.3229 23.264H62.9589C62.9589 19.232 60.5109 16.928 54.9669 16.928C50.1429 16.928 46.6869 19.088 46.6869 22.652C46.6869 24.02 47.2629 25.316 48.2349 26.036C49.3149 26.828 51.1869 27.188 53.9589 27.44C55.9389 27.62 57.6309 27.8 58.4949 28.124C59.4309 28.448 59.6829 29.06 59.6829 29.744C59.6829 31.364 58.2429 32.372 54.9669 32.372C51.5109 32.372 50.3229 31.112 50.3229 29.06H46.6869C46.6869 32.552 48.8829 35.288 55.0029 35.288ZM67.3037 15.128H71.4437V11.168H67.3037V15.128ZM67.3397 35H71.3717V17.216H67.3397V35ZM87.946 32.192H82.186C80.89 32.192 80.17 31.58 80.17 30.572C80.17 29.96 80.386 29.456 80.602 29.204C81.538 29.456 82.582 29.6 83.734 29.6C88.63 29.6 91.654 27.188 91.654 23.264C91.654 21.932 91.294 20.744 90.61 19.808C90.394 19.124 90.214 18.512 90.214 18.008C90.214 17.036 90.79 16.532 91.978 16.532C92.482 16.532 92.878 16.604 93.166 16.712V13.868C92.734 13.76 92.23 13.688 91.366 13.688C89.242 13.688 87.874 14.588 87.874 16.028C87.874 16.784 88.198 17.468 88.738 18.044L88.702 18.08C87.406 17.324 85.75 16.928 83.734 16.928C78.838 16.928 75.814 19.376 75.814 23.264C75.814 25.496 76.786 27.26 78.55 28.34V28.412C77.578 28.88 76.894 29.924 76.894 31.436C76.894 32.696 77.434 33.668 78.442 34.352V34.388C76.318 34.496 74.986 35.828 74.986 37.628C74.986 40.832 78.586 42.668 84.598 42.668C90.466 42.668 93.958 40.436 93.958 36.692C93.958 33.848 91.762 32.192 87.946 32.192ZM83.734 19.808C86.254 19.808 87.802 21.14 87.802 23.264C87.802 25.388 86.254 26.72 83.734 26.72C81.214 26.72 79.666 25.388 79.666 23.264C79.666 21.14 81.214 19.808 83.734 19.808ZM84.562 39.824C81.142 39.824 78.982 38.996 78.982 37.304C78.982 35.936 80.278 35.324 82.294 35.324H87.118C89.026 35.324 89.926 35.972 89.926 37.16C89.926 38.744 88.342 39.824 84.562 39.824ZM97.1137 35H101.146V26.396C101.146 22.508 103.378 20.384 106.906 20.384C110.11 20.384 111.694 21.968 111.694 24.776V35H115.726V23.876C115.726 19.484 112.954 16.928 108.454 16.928C104.314 16.928 102.01 18.764 101.038 21.968H101.002L101.146 17.216H97.1137V35ZM128.163 35H132.483V27.656H138.495C144.183 27.656 147.279 24.704 147.279 19.556C147.279 14.264 143.823 11.312 137.955 11.312H128.163V35ZM132.483 24.596V14.912H137.811C141.267 14.912 143.175 16.64 143.175 19.772C143.175 23.012 141.375 24.596 138.243 24.596H132.483ZM150.657 35H154.689V27.224C154.689 22.976 156.597 20.384 159.657 20.384C162.033 20.384 163.185 21.788 163.185 24.776C163.185 25.604 163.113 26.504 163.041 27.188H166.713C166.785 26.432 166.893 24.992 166.893 23.876C166.893 19.448 164.769 16.928 160.917 16.928C157.245 16.928 155.409 19.124 154.581 22.328H154.545L154.689 17.216H150.657V35ZM179.092 35.288C184.78 35.288 188.416 31.796 188.416 26.144C188.416 20.456 184.78 16.928 179.092 16.928C173.44 16.928 169.804 20.456 169.804 26.144C169.804 31.796 173.44 35.288 179.092 35.288ZM179.092 31.976C175.816 31.976 173.836 29.744 173.836 26.144C173.836 22.508 175.816 20.24 179.092 20.24C182.368 20.24 184.384 22.508 184.384 26.144C184.384 29.744 182.368 31.976 179.092 31.976ZM200.032 35.288C205.108 35.288 208.492 32.516 208.492 27.764H204.856C204.82 30.392 203.056 31.976 200.212 31.976C197.224 31.976 195.352 29.744 195.352 26.108C195.352 22.436 197.26 20.24 200.356 20.24C203.056 20.24 204.784 21.86 204.82 24.524H208.456C208.456 19.808 205.216 16.928 200.248 16.928C194.884 16.928 191.32 20.42 191.32 26.108C191.32 31.796 194.812 35.288 200.032 35.288ZM228.923 25.46C228.923 19.916 225.719 16.928 220.679 16.928C215.063 16.928 211.535 20.492 211.535 26.252C211.535 31.832 215.063 35.288 220.679 35.288C225.539 35.288 228.779 32.876 228.923 28.916H225.287C225.107 31.004 223.343 32.156 220.751 32.156C217.727 32.156 215.819 30.32 215.603 26.9H228.923V25.46ZM225.287 24.452H215.711C216.179 21.5 217.943 20.06 220.715 20.06C223.631 20.06 225.287 21.536 225.287 24.2V24.452ZM240.206 35.288C245.894 35.288 248.918 33.164 248.918 29.564C248.918 28.124 248.234 26.756 247.046 26.108C245.786 25.388 244.346 25.136 241.826 24.884C239.666 24.668 237.974 24.488 237.11 24.2C236.066 23.84 235.886 23.12 235.886 22.364C235.886 20.852 237.47 19.844 240.278 19.844C243.23 19.844 244.49 20.96 244.526 23.264H248.162C248.162 19.232 245.714 16.928 240.17 16.928C235.346 16.928 231.89 19.088 231.89 22.652C231.89 24.02 232.466 25.316 233.438 26.036C234.518 26.828 236.39 27.188 239.162 27.44C241.142 27.62 242.834 27.8 243.698 28.124C244.634 28.448 244.886 29.06 244.886 29.744C244.886 31.364 243.446 32.372 240.17 32.372C236.714 32.372 235.526 31.112 235.526 29.06H231.89C231.89 32.552 234.086 35.288 240.206 35.288ZM260.175 35.288C265.863 35.288 268.887 33.164 268.887 29.564C268.887 28.124 268.203 26.756 267.015 26.108C265.755 25.388 264.315 25.136 261.795 24.884C259.635 24.668 257.943 24.488 257.079 24.2C256.035 23.84 255.855 23.12 255.855 22.364C255.855 20.852 257.439 19.844 260.247 19.844C263.199 19.844 264.459 20.96 264.495 23.264H268.131C268.131 19.232 265.683 16.928 260.139 16.928C255.315 16.928 251.859 19.088 251.859 22.652C251.859 24.02 252.435 25.316 253.407 26.036C254.487 26.828 256.359 27.188 259.131 27.44C261.111 27.62 262.803 27.8 263.667 28.124C264.603 28.448 264.855 29.06 264.855 29.744C264.855 31.364 263.415 32.372 260.139 32.372C256.683 32.372 255.495 31.112 255.495 29.06H251.859C251.859 32.552 254.055 35.288 260.175 35.288Z" fill="black"/>
</svg>
