<svg width="140" height="136" viewBox="0 0 140 136" fill="none" xmlns="http://www.w3.org/2000/svg">
<path d="M113.038 37.8522C103.814 28.9049 84.7091 42.051 77.5466 48.7997C82.9613 39.1289 75.925 29.1329 71.73 25.3437C68.4926 22.8196 59.5835 19.8131 49.8464 27.98C40.1094 36.147 47.7872 52.4231 52.8433 59.5403C38.2212 53.8938 24.617 62.9983 18.9244 67.3075C16.3944 69.2228 11.8545 75.8434 18.3805 87.6187C24.9064 99.3939 40.3507 92.5448 47.257 87.6483C43.2629 93.3251 38.202 106.443 49.911 113.498C61.62 120.554 69.103 100.297 71.3809 89.2859C76.4941 97.3548 89.3708 113.581 101.25 98.5135C112.925 83.7058 91.1364 72.0093 96.6812 70.1335C101.434 68.5257 128.017 52.3821 113.038 37.8522Z" fill="#C7D66D" stroke="#C7D66D"/>
<path d="M75.1649 74.3265C71.422 77.1599 66.0909 76.4226 63.2575 72.6796C60.4241 68.9367 61.1614 63.6056 64.9043 60.7722C68.6472 57.9388 73.9784 58.6761 76.8118 62.419C79.6452 66.1619 78.9079 71.4931 75.1649 74.3265Z" fill="#6665DD"/>
</svg>
