<svg width="75" height="74" viewBox="0 0 75 74" fill="none" xmlns="http://www.w3.org/2000/svg">
<path d="M17.4828 18.9474C13.7229 24.9926 22.382 32.9919 26.5734 35.7311C21.0327 34.3124 16.5183 39.3765 14.9537 42.0858C13.9539 44.1196 13.2481 49.154 18.423 53.0216C23.5978 56.8892 31.3112 50.5971 34.521 46.9676C32.9929 55.3321 39.0257 61.0649 41.8094 63.3924C43.0467 64.4269 46.9198 65.8286 52.4069 60.7744C57.8941 55.7202 52.8557 48.7144 49.6505 45.8432C52.9812 47.0976 60.2774 47.8413 62.8168 40.7815C65.3561 33.7218 54.1204 32.7452 48.1851 33.1393C51.8836 29.3445 59.072 20.3721 50.1089 16.3819C41.3003 12.4606 37.3191 25.3933 35.8129 22.7948C34.522 20.5675 23.5888 9.13044 17.4828 18.9474Z" fill="#0B7A75" stroke="#0B7A75"/>
<path d="M41.3461 32.34C43.1764 33.8704 43.3054 36.7314 41.6341 38.7303C39.9627 40.7292 37.1241 41.109 35.2938 39.5787C33.4634 38.0483 33.3345 35.1873 35.0058 33.1884C36.6771 31.1895 39.5158 30.8096 41.3461 32.34Z" fill="#DCC6F1"/>
</svg>
