<svg width="56" height="52" viewBox="0 0 56 52" fill="none" xmlns="http://www.w3.org/2000/svg">
<path d="M5.40556 29.3341C7.40245 35.1033 17.4075 33.6543 21.4957 32.3412C17.5586 35.2663 18.4945 41.0084 19.4546 43.5138C20.2696 45.2781 23.2424 48.4669 28.6134 47.1079C33.9844 45.7489 33.9579 37.2126 33.2732 33.1142C38.0205 38.649 45.0973 37.7257 48.1512 37.1281C49.5084 36.8625 52.5337 35.0392 52.1297 28.6543C51.7257 22.2695 44.3376 21.843 40.6941 22.4278C43.3283 20.8862 47.7638 16.4271 44.4318 10.9231C41.0999 5.41913 34.3819 12.377 31.4395 16.5439C30.9085 12.0307 28.8129 2.39674 21.3146 6.21327C13.9455 9.964 20.4114 19.6 17.867 19.2002C15.686 18.8575 2.16273 19.9651 5.40556 29.3341Z" fill="#6665DD" stroke="#6665DD"/>
<path d="M27.2139 20.6684C29.2218 20.2755 31.1974 21.7346 31.6266 23.9274C32.0557 26.1202 30.7759 28.2164 28.768 28.6094C26.7601 29.0024 24.7844 27.5433 24.3553 25.3504C23.9261 23.1576 25.2059 21.0614 27.2139 20.6684Z" fill="#DCC6F1"/>
</svg>
