<svg width="55" height="52" viewBox="0 0 55 52" fill="none" xmlns="http://www.w3.org/2000/svg">
<path d="M4.93468 29.452C6.93156 35.2213 16.9366 33.7722 21.0248 32.4591C17.0877 35.3842 18.0236 41.1263 18.9837 43.6317C19.7987 45.396 22.7715 48.5848 28.1425 47.2258C33.5135 45.8669 33.487 37.3305 32.8023 33.2322C37.5496 38.767 44.6264 37.8437 47.6803 37.246C49.0375 36.9804 52.0629 35.1571 51.6588 28.7723C51.2548 22.3874 43.8668 21.9609 40.2232 22.5457C42.8575 21.0041 47.2929 16.545 43.9609 11.041C40.629 5.53705 33.9111 12.4949 30.9686 16.6618C30.4376 12.1487 28.342 2.51466 20.8437 6.33119C13.4746 10.0819 19.9405 19.7179 17.3961 19.3181C15.2152 18.9754 1.69185 20.083 4.93468 29.452Z" fill="#6665DD" stroke="#6665DD"/>
<path d="M26.7429 20.7864C28.7508 20.3934 30.7265 21.8525 31.1556 24.0453C31.5848 26.2381 30.3049 28.3343 28.297 28.7273C26.2891 29.1203 24.3135 27.6612 23.8843 25.4684C23.4552 23.2755 24.735 21.1793 26.7429 20.7864Z" fill="#C7D66D"/>
</svg>
