<svg width="481" height="415" viewBox="0 0 481 415" fill="none" xmlns="http://www.w3.org/2000/svg">
<g clip-path="url(#clip0)">
<path d="M35.2404 0.617561H179.046C198.459 0.617561 214.286 16.4271 214.286 35.8185V379.058C214.286 398.449 198.459 414.259 179.046 414.259H35.2404C15.8272 414.259 0 398.449 0 379.058V35.8185C0 16.4271 15.8272 0.617561 35.2404 0.617561Z" fill="#211E1E"/>
<path d="M173.729 10.2515H172.74V13.2158C172.74 17.6623 169.154 21.2441 164.702 21.2441H48.9655C44.5141 21.2441 40.9283 17.6623 40.9283 13.2158V10.2515C22.8753 10.2515 8.4082 24.826 8.4082 42.7352V371.524C8.4082 389.557 22.999 404.008 40.9283 404.008H173.852C191.905 404.008 206.372 389.433 206.372 371.524V42.8587C206.249 24.826 191.658 10.2515 173.729 10.2515Z" fill="#234866"/>
<path d="M74.1903 404.131H59.7231V409.071H74.1903V404.131Z" fill="#211E1E"/>
<path d="M44.8262 137.571L75.4871 136.053C82.288 135.715 89.1154 135.377 95.7945 134.304C99.812 133.658 103.831 132.724 107.251 130.926C111.466 128.712 114.479 125.788 117.349 122.484C120.446 118.916 117.619 122.307 122.277 116.436C125.509 112.363 124.691 106.74 128.41 102.94C129.144 102.103 130.132 101.531 131.223 101.31C131.973 101.22 132.733 101.331 133.426 101.633C134.118 101.934 134.717 102.414 135.162 103.024C135.842 104.134 136.158 105.43 136.064 106.728C136.049 115.202 134.19 117.433 131.963 125.72C131.72 126.625 131.537 127.648 132.202 128.407C132.79 129.078 133.874 129.335 134.887 129.474C143.381 130.642 151.564 126.663 160.101 125.706C162.751 125.41 165.703 125.472 167.767 126.828C170.211 128.432 170.594 131.259 170.607 133.778C170.624 141.119 169.115 148.384 166.175 155.112C164.909 158.036 163.191 161.071 159.891 162.706C156.399 164.436 151.934 164.204 147.896 163.585C137.607 162 127.741 158.264 117.257 158.277C110.274 158.285 103.49 159.967 96.7936 161.541C79.7264 165.421 62.261 167.279 44.7585 167.076" fill="#97C1B7"/>
<path d="M168.007 150.442C168.09 151.02 161.34 163.199 139.471 158.102C117.602 153.006 109.882 156.041 109.882 156.041C109.882 156.041 98.7417 159.28 92.4045 160.719C86.0672 162.159 70.9768 163.96 44.7599 163.96V167.08C44.7599 167.08 56.7866 169.257 74.802 167.08C92.8174 164.904 95.7187 163.167 98.2619 162.556C100.805 161.944 113.737 157.34 122.161 158.744C130.617 160.155 132.66 160.741 140.056 162.213C147.453 163.686 151.335 165.671 158.597 163.689C165.858 161.706 168.007 150.442 168.007 150.442Z" fill="#59857A"/>
<path d="M170.364 228.621L126.603 248.703C123.344 250.198 121.45 251.726 117.965 251.021C116.236 250.672 114.648 249.79 112.956 249.263C109.994 248.341 106.841 248.539 103.762 248.745C94.438 249.369 84.9984 250.015 76.1105 253.081C75.2197 253.388 74.1542 254 74.247 254.993C74.3201 255.779 75.0999 256.239 75.7984 256.503C80.5883 258.316 86.0253 257.354 90.7677 259.303C92.0823 259.844 93.4307 260.75 93.7915 262.202C93.9233 262.972 93.8237 263.765 93.5051 264.479C93.1866 265.193 92.6634 265.796 92.0017 266.214C90.7015 266.963 89.2375 267.384 87.7372 267.439C81.6693 268.075 75.5427 267.878 69.5282 266.854C65.5013 266.168 61.4865 265.109 57.4115 265.249C53.3364 265.388 49.0529 266.95 46.6736 270.48C46.267 270.998 46.0412 271.634 46.0305 272.292C46.1233 273.769 47.8149 274.388 49.1829 274.644L68.7538 278.32C74.0534 279.315 79.3814 280.313 84.7622 280.389C99.9345 280.604 114.401 273.526 129.52 272.148C134.967 271.651 140.447 271.9 145.909 272.148L170.257 273.261" fill="#CB544F"/>
<path d="M170.364 228.621L126.603 248.703C123.344 250.198 121.45 251.726 117.965 251.021C116.236 250.672 114.648 249.79 112.956 249.263C109.994 248.341 106.841 248.539 103.762 248.745C94.438 249.369 84.9984 250.015 76.1105 253.081C75.2197 253.388 74.1542 254 74.247 254.993C74.3201 255.779 75.0999 256.239 75.7984 256.503C80.5883 258.316 86.0253 257.354 90.7677 259.303C92.0823 259.844 93.4307 260.75 93.7915 262.202C93.9233 262.972 93.8237 263.765 93.5051 264.479C93.1866 265.193 92.6634 265.796 92.0017 266.214C90.7015 266.963 89.2375 267.384 87.7372 267.439C81.6693 268.075 75.5427 267.878 69.5282 266.854C65.5013 266.168 61.4865 265.109 57.4115 265.249C53.3364 265.388 49.0529 266.95 46.6736 270.48C46.267 270.998 46.0412 271.634 46.0305 272.292C46.1233 273.769 47.8149 274.388 49.1829 274.644L68.7538 278.32C74.0534 279.315 79.3814 280.313 84.7622 280.389C99.9345 280.604 114.401 273.526 129.52 272.148C134.967 271.651 140.447 271.9 145.909 272.148L170.257 273.261" stroke="#CB544F" stroke-miterlimit="10"/>
<path d="M45.8281 272.287C45.8281 272.287 45.2257 274.428 49.7292 275.46C54.5217 276.56 66.9553 278.54 70.0468 279.128C73.1382 279.716 86.1248 281.047 90.5694 280.391C95.5745 279.653 98.4074 279.642 108.237 276.868C117.667 274.207 125.516 272.946 131.476 272.946C137.436 272.946 144.91 273.023 150.097 273.023C155.283 273.023 169.988 273.902 170.348 274.111L170.363 270.302C170.363 270.302 145.602 267.681 125.265 270.177C104.929 272.672 111.681 273.76 95.1657 275.789C78.6504 277.817 57.758 273.563 49.4543 272.543C41.1506 271.523 45.8254 272.285 45.8254 272.285" fill="#8F3B38"/>
<path d="M44.8262 137.571L75.4871 136.053C82.288 135.715 89.1154 135.377 95.7945 134.304C99.812 133.658 103.831 132.724 107.251 130.926C111.466 128.712 114.479 125.788 117.349 122.484C120.446 118.916 117.619 122.307 122.277 116.436C125.509 112.363 124.691 106.74 128.41 102.94C129.144 102.103 130.132 101.531 131.223 101.31C131.973 101.22 132.733 101.331 133.426 101.633C134.118 101.934 134.717 102.414 135.162 103.024C135.842 104.134 136.158 105.43 136.064 106.728C136.049 115.202 134.19 117.433 131.963 125.72C131.72 126.625 131.537 127.648 132.202 128.407C132.79 129.078 133.874 129.335 134.887 129.474C143.381 130.642 151.564 126.663 160.101 125.706C162.751 125.41 165.703 125.472 167.767 126.828C170.211 128.432 170.594 131.259 170.607 133.778C170.624 141.119 169.115 148.384 166.175 155.112C164.909 158.036 163.191 161.071 159.891 162.706C156.399 164.436 151.934 164.204 147.896 163.585C137.607 162 127.741 158.264 117.257 158.277C110.274 158.285 103.49 159.967 96.7936 161.541C79.7264 165.421 62.261 167.279 44.7585 167.076" fill="#97C1B7"/>
<path d="M168.007 150.442C168.09 151.02 161.34 163.199 139.471 158.102C117.602 153.006 109.882 156.041 109.882 156.041C109.882 156.041 98.7417 159.28 92.4045 160.719C86.0672 162.159 70.9768 163.96 44.7599 163.96V167.08C44.7599 167.08 56.7866 169.257 74.802 167.08C92.8174 164.904 95.7187 163.167 98.2619 162.556C100.805 161.944 113.737 157.34 122.161 158.744C130.617 160.155 132.66 160.741 140.056 162.213C147.453 163.686 151.335 165.671 158.597 163.689C165.858 161.706 168.007 150.442 168.007 150.442Z" fill="#59857A"/>
<path d="M170.364 228.621L126.603 248.703C123.344 250.198 121.45 251.726 117.965 251.021C116.236 250.672 114.648 249.79 112.956 249.263C109.994 248.341 106.841 248.539 103.762 248.745C94.438 249.369 84.9984 250.015 76.1105 253.081C75.2197 253.388 74.1542 254 74.247 254.993C74.3201 255.779 75.0999 256.239 75.7984 256.503C80.5883 258.316 86.0253 257.354 90.7677 259.303C92.0823 259.844 93.4307 260.75 93.7915 262.202C93.9233 262.972 93.8237 263.765 93.5051 264.479C93.1866 265.193 92.6634 265.796 92.0017 266.214C90.7015 266.963 89.2375 267.384 87.7372 267.439C81.6693 268.075 75.5427 267.878 69.5282 266.854C65.5013 266.168 61.4865 265.109 57.4115 265.249C53.3364 265.388 49.0529 266.95 46.6736 270.48C46.267 270.998 46.0412 271.634 46.0305 272.292C46.1233 273.769 47.8149 274.388 49.1829 274.644L68.7538 278.32C74.0534 279.315 79.3814 280.313 84.7622 280.389C99.9345 280.604 114.401 273.526 129.52 272.148C134.967 271.651 140.447 271.9 145.909 272.148L170.257 273.261" fill="#CB544F"/>
<path d="M170.364 228.621L126.603 248.703C123.344 250.198 121.45 251.726 117.965 251.021C116.236 250.672 114.648 249.79 112.956 249.263C109.994 248.341 106.841 248.539 103.762 248.745C94.438 249.369 84.9984 250.015 76.1105 253.081C75.2197 253.388 74.1542 254 74.247 254.993C74.3201 255.779 75.0999 256.239 75.7984 256.503C80.5883 258.316 86.0253 257.354 90.7677 259.303C92.0823 259.844 93.4307 260.75 93.7915 262.202C93.9233 262.972 93.8237 263.765 93.5051 264.479C93.1866 265.193 92.6634 265.796 92.0017 266.214C90.7015 266.963 89.2375 267.384 87.7372 267.439C81.6693 268.075 75.5427 267.878 69.5282 266.854C65.5013 266.168 61.4865 265.109 57.4115 265.249C53.3364 265.388 49.0529 266.95 46.6736 270.48C46.267 270.998 46.0412 271.634 46.0305 272.292C46.1233 273.769 47.8149 274.388 49.1829 274.644L68.7538 278.32C74.0534 279.315 79.3814 280.313 84.7622 280.389C99.9345 280.604 114.401 273.526 129.52 272.148C134.967 271.651 140.447 271.9 145.909 272.148L170.257 273.261" stroke="#CB544F" stroke-miterlimit="10"/>
<path d="M45.8281 272.287C45.8281 272.287 45.2257 274.428 49.7292 275.46C54.5217 276.56 66.9553 278.54 70.0468 279.128C73.1382 279.716 86.1248 281.047 90.5694 280.391C95.5745 279.653 98.4074 279.642 108.237 276.868C117.667 274.207 125.516 272.946 131.476 272.946C137.436 272.946 144.91 273.023 150.097 273.023C155.283 273.023 169.988 273.902 170.348 274.111L170.363 270.302C170.363 270.302 145.602 267.681 125.265 270.177C104.929 272.672 111.681 273.76 95.1657 275.789C78.6504 277.817 57.758 273.563 49.4543 272.543C41.1506 271.523 45.8254 272.285 45.8254 272.285" fill="#8F3B38"/>
<mask id="mask0" mask-type="alpha" maskUnits="userSpaceOnUse" x="7" y="10" width="199" height="395">
<path d="M172.74 10.2515H171.75V13.2158C171.75 17.6623 168.165 21.2441 163.713 21.2441H47.9764C43.525 21.2441 39.9391 17.6623 39.9391 13.2158V10.2515C21.8862 10.2515 7.41907 24.826 7.41907 42.7352V371.524C7.41907 389.557 22.0098 404.008 39.9391 404.008H172.863C190.916 404.008 205.383 389.433 205.383 371.524V42.8587C205.26 24.826 190.669 10.2515 172.74 10.2515Z" fill="#234866"/>
</mask>
<g mask="url(#mask0)">
<path d="M195.616 -90.6146C149.903 -104.008 102.532 -79.7429 89.8085 -36.4162C77.0854 6.91049 103.829 52.8915 149.542 66.2852C195.255 79.6789 242.626 55.4135 255.349 12.0868C268.072 -31.2399 241.329 -77.2208 195.616 -90.6146Z" fill="#66C6E3"/>
<path d="M252.855 0.385095C214.414 -10.8778 174.112 11.1189 162.836 49.5162C151.561 87.9135 173.582 128.171 212.022 139.434C250.463 150.697 290.765 128.7 302.041 90.3029C313.316 51.9056 291.295 11.648 252.855 0.385095Z" fill="#CB544F"/>
</g>
<path d="M301.089 0.617561H444.894C464.307 0.617561 480.135 16.4271 480.135 35.8185V379.058C480.135 398.449 464.307 414.259 444.894 414.259H301.089C281.676 414.259 265.848 398.449 265.848 379.058V35.8185C265.848 16.4271 281.552 0.617561 301.089 0.617561Z" fill="#211E1E"/>
<path d="M439.453 10.2515H438.464V13.2158C438.464 17.6623 434.878 21.2441 430.427 21.2441H314.567C310.115 21.2441 306.529 17.6623 306.529 13.2158V10.2515C288.476 10.2515 273.886 24.826 273.886 42.8587V371.647C273.886 389.68 288.476 404.131 306.406 404.131H439.33C457.383 404.131 471.85 389.557 471.85 371.647V42.8587C471.974 24.826 457.383 10.2515 439.453 10.2515Z" fill="#234866"/>
<path d="M430.761 145.571H312.304C308.022 145.571 304.551 149.038 304.551 153.315V165.21C304.551 169.487 308.022 172.954 312.304 172.954H430.761C435.043 172.954 438.514 169.487 438.514 165.21V153.315C438.514 149.038 435.043 145.571 430.761 145.571Z" fill="white"/>
<path d="M431.8 200.336H313.342C309.061 200.336 305.59 203.803 305.59 208.08V219.975C305.59 224.252 309.061 227.719 313.342 227.719H431.8C436.081 227.719 439.552 224.252 439.552 219.975V208.08C439.552 203.803 436.081 200.336 431.8 200.336Z" fill="white"/>
<path d="M311.389 132.664H315.89V133.393H312.254V135.666H315.197V136.308H312.254V138.63H315.964V139.408H311.389V132.664Z" fill="#97C1B7"/>
<path d="M317.077 134.356H317.905V135.715C317.981 135.302 318.203 134.93 318.529 134.665C318.855 134.4 319.265 134.26 319.686 134.27C320.1 134.223 320.517 134.336 320.85 134.587C321.184 134.837 321.409 135.205 321.479 135.616V135.616C321.564 135.213 321.793 134.855 322.122 134.607C322.452 134.36 322.86 134.24 323.271 134.27C323.526 134.258 323.78 134.301 324.016 134.396C324.252 134.491 324.464 134.637 324.639 134.823C324.813 135.008 324.944 135.23 325.024 135.471C325.104 135.713 325.131 135.969 325.102 136.221V139.457H324.224V136.407C324.224 135.554 323.816 135.023 322.987 135.023C322.159 135.023 321.441 135.715 321.441 136.888V139.457H320.613V136.37C320.629 136.198 320.608 136.026 320.553 135.863C320.498 135.7 320.409 135.55 320.293 135.423C320.176 135.297 320.035 135.196 319.877 135.127C319.719 135.058 319.549 135.023 319.377 135.023C318.437 135.023 317.843 135.715 317.843 136.925V139.396H317.015L317.077 134.356Z" fill="#97C1B7"/>
<path d="M326.301 137.988C326.301 137.271 326.808 136.654 328.168 136.654H330.245V136.283C330.245 135.406 329.738 134.974 328.687 134.974C327.636 134.974 327.228 135.332 327.228 136.024C327.224 136.085 327.224 136.147 327.228 136.209H326.462C326.455 136.106 326.455 136.003 326.462 135.9C326.462 134.887 327.34 134.27 328.724 134.27C330.109 134.27 331.086 135.023 331.086 136.345V139.457H330.258C330.258 139.223 330.258 138.741 330.258 138.222C330.085 139.013 329.442 139.457 328.168 139.457C326.894 139.457 326.301 138.951 326.301 137.988ZM330.245 137.321V137.247H328.242C327.401 137.247 327.08 137.494 327.08 137.988C327.08 138.482 327.55 138.84 328.316 138.84C329.516 138.84 330.245 138.247 330.245 137.321V137.321Z" fill="#97C1B7"/>
<path d="M332.496 132.664H333.386V133.702H332.496V132.664ZM332.496 134.356H333.324V139.457H332.496V134.356Z" fill="#97C1B7"/>
<path d="M334.907 132.306H335.735V139.457H334.907V132.306Z" fill="#97C1B7"/>
<path d="M313.095 155.996H317.151V156.7H313.837V158.75H316.495V159.33H313.837V161.418H317.2V162.122H313.095V155.996Z" fill="#9F9D9D"/>
<path d="M318.177 157.515H318.919V158.75C319 158.389 319.205 158.067 319.499 157.841C319.792 157.616 320.156 157.5 320.526 157.515C320.902 157.475 321.278 157.582 321.577 157.811C321.876 158.041 322.076 158.377 322.134 158.75C322.206 158.382 322.41 158.052 322.709 157.825C323.007 157.597 323.379 157.487 323.754 157.515C323.981 157.496 324.21 157.527 324.425 157.606C324.64 157.684 324.835 157.808 324.997 157.969C325.159 158.129 325.284 158.323 325.364 158.537C325.444 158.751 325.477 158.979 325.46 159.207V162.109H324.718V159.33C324.718 158.577 324.335 158.095 323.605 158.095C322.876 158.095 322.22 158.725 322.22 159.787V162.097H321.479V159.33C321.503 159.172 321.491 159.011 321.445 158.857C321.399 158.704 321.319 158.563 321.211 158.445C321.103 158.326 320.97 158.234 320.822 158.173C320.673 158.113 320.513 158.086 320.353 158.095C319.513 158.095 318.968 158.737 318.968 159.824V162.097H318.227L318.177 157.515Z" fill="#9F9D9D"/>
<path d="M326.486 160.788C326.486 160.133 326.944 159.553 328.168 159.553H330.035V159.219C330.035 158.429 329.578 158.058 328.638 158.058C327.698 158.058 327.327 158.367 327.327 158.985V159.157H326.697C326.689 159.063 326.689 158.968 326.697 158.873C326.697 157.972 327.476 157.416 328.725 157.416C329.973 157.416 330.777 158.095 330.777 159.33V162.122H330.035C330.035 161.912 330.035 161.479 330.035 161.035C329.887 161.739 329.306 162.196 328.168 162.196C327.031 162.196 326.486 161.652 326.486 160.788ZM330.035 160.183H328.23C327.476 160.183 327.179 160.405 327.179 160.85C327.179 161.294 327.612 161.615 328.341 161.615C329.38 161.554 330.035 161.022 330.035 160.183V160.183Z" fill="#9F9D9D"/>
<path d="M332.063 155.996H332.879V156.934H332.088L332.063 155.996ZM332.063 157.515H332.879V162.109H332.137L332.063 157.515Z" fill="#9F9D9D"/>
<path d="M334.227 155.625H334.969V162.06H334.227V155.625Z" fill="#9F9D9D"/>
<path d="M335.983 160.158C335.942 159.617 336.013 159.074 336.19 158.562C336.367 158.05 336.647 157.579 337.013 157.179C337.379 156.779 337.823 156.457 338.318 156.235C338.813 156.012 339.348 155.893 339.89 155.884C342.227 155.884 343.352 157.008 343.352 158.787C343.352 160.565 342.487 161.924 341.436 161.924C340.669 161.924 340.385 161.43 340.533 160.689C340.471 161.041 340.285 161.359 340.008 161.586C339.731 161.812 339.382 161.932 339.025 161.924C338.821 161.924 338.619 161.881 338.433 161.796C338.247 161.712 338.082 161.59 337.947 161.437C337.812 161.283 337.712 161.103 337.653 160.908C337.593 160.714 337.576 160.508 337.603 160.306C337.603 159.009 338.443 157.552 339.717 157.552C339.964 157.522 340.214 157.568 340.434 157.682C340.655 157.797 340.836 157.975 340.954 158.194V158.194L341.114 157.626H341.77L341.312 160.096C341.253 160.394 341.216 160.695 341.201 160.998C341.201 161.331 341.324 161.517 341.646 161.517C342.301 161.517 342.957 160.281 342.957 158.836C342.957 157.391 341.98 156.366 339.915 156.366C339.426 156.378 338.945 156.489 338.501 156.693C338.057 156.898 337.66 157.19 337.334 157.554C337.007 157.917 336.758 158.343 336.602 158.806C336.447 159.268 336.387 159.758 336.428 160.244C336.394 160.671 336.456 161.1 336.611 161.499C336.765 161.898 337.008 162.258 337.32 162.55C337.632 162.843 338.006 163.062 338.415 163.191C338.824 163.32 339.256 163.356 339.68 163.295C340.52 163.306 341.356 163.176 342.153 162.912V163.295C341.356 163.562 340.52 163.691 339.68 163.678C337.417 163.592 335.983 162.43 335.983 160.158ZM340.669 159.454L340.805 158.725C340.703 158.547 340.552 158.401 340.371 158.305C340.189 158.209 339.984 158.166 339.779 158.182C338.876 158.182 338.307 159.417 338.307 160.281C338.307 160.899 338.604 161.307 339.148 161.307C339.89 161.307 340.459 160.565 340.669 159.454V159.454Z" fill="#9F9D9D"/>
<path d="M348.459 159.96H344.861C344.849 160.168 344.88 160.377 344.953 160.572C345.026 160.768 345.138 160.946 345.284 161.096C345.429 161.246 345.604 161.364 345.797 161.442C345.99 161.521 346.198 161.559 346.407 161.554C346.708 161.578 347.008 161.49 347.25 161.308C347.491 161.126 347.658 160.862 347.717 160.565H348.41C348.41 161.566 347.557 162.196 346.345 162.196C346.036 162.213 345.728 162.163 345.44 162.051C345.152 161.939 344.891 161.767 344.676 161.545C344.46 161.324 344.295 161.059 344.19 160.769C344.085 160.479 344.044 160.169 344.07 159.861C344.028 159.545 344.056 159.223 344.152 158.919C344.248 158.615 344.409 158.335 344.625 158.1C344.84 157.864 345.105 157.679 345.4 157.556C345.695 157.434 346.013 157.378 346.332 157.391C346.619 157.371 346.906 157.414 347.174 157.518C347.442 157.622 347.684 157.783 347.883 157.99C348.081 158.198 348.231 158.447 348.322 158.719C348.413 158.991 348.443 159.28 348.41 159.565L348.459 159.96ZM347.717 159.33C347.718 159.156 347.682 158.984 347.612 158.824C347.542 158.665 347.438 158.522 347.308 158.405C347.179 158.289 347.026 158.201 346.86 158.147C346.694 158.094 346.518 158.076 346.345 158.095C345.967 158.078 345.598 158.21 345.316 158.461C345.034 158.713 344.862 159.065 344.836 159.442H347.717V159.33Z" fill="#9F9D9D"/>
<path d="M349.584 157.515H350.326V158.75C350.409 158.39 350.615 158.07 350.908 157.844C351.201 157.619 351.564 157.502 351.934 157.515C352.31 157.478 352.686 157.585 352.987 157.814C353.287 158.043 353.49 158.378 353.554 158.75V158.75C353.628 158.383 353.833 158.055 354.131 157.828C354.429 157.601 354.799 157.489 355.173 157.515C355.403 157.504 355.632 157.544 355.845 157.63C356.057 157.717 356.249 157.849 356.405 158.017C356.562 158.185 356.68 158.385 356.751 158.604C356.822 158.822 356.845 159.053 356.818 159.281V162.183H356.076V159.33C356.076 158.577 355.705 158.095 354.976 158.095C354.246 158.095 353.591 158.725 353.591 159.787V162.097H352.836V159.33C352.836 158.589 352.465 158.095 351.723 158.095C350.982 158.095 350.339 158.738 350.339 159.824V162.097H349.597L349.584 157.515Z" fill="#9F9D9D"/>
<path d="M357.881 160.788C357.881 160.133 358.339 159.553 359.575 159.553H361.442V159.219C361.442 158.429 360.973 158.058 360.033 158.058C359.093 158.058 358.722 158.367 358.722 158.985C358.717 159.042 358.717 159.1 358.722 159.157H358.03C358.023 159.063 358.023 158.968 358.03 158.873C358.03 157.972 358.809 157.416 360.058 157.416C361.306 157.416 362.184 158.095 362.184 159.33V162.122H361.442C361.442 161.912 361.442 161.479 361.442 161.035C361.282 161.739 360.713 162.196 359.563 162.196C358.413 162.196 357.881 161.652 357.881 160.788ZM361.442 160.183H359.637C358.883 160.183 358.586 160.405 358.586 160.85C358.586 161.294 359.007 161.615 359.736 161.615C360.775 161.554 361.442 161.022 361.442 160.183V160.183Z" fill="#9F9D9D"/>
<path d="M363.458 155.996H364.262V156.934H363.458V155.996ZM363.458 157.515H364.2V162.109H363.458V157.515Z" fill="#9F9D9D"/>
<path d="M365.634 155.625H366.376V162.06H365.634V155.625Z" fill="#9F9D9D"/>
<path d="M367.86 161.047H368.651V162.109H367.86V161.047Z" fill="#9F9D9D"/>
<path d="M369.9 159.812C369.87 159.503 369.906 159.19 370.007 158.896C370.109 158.602 370.272 158.333 370.487 158.108C370.702 157.883 370.963 157.707 371.252 157.592C371.541 157.476 371.852 157.425 372.163 157.441C372.423 157.416 372.686 157.447 372.933 157.531C373.181 157.616 373.407 157.752 373.598 157.931C373.789 158.11 373.939 158.327 374.039 158.568C374.139 158.809 374.187 159.069 374.178 159.33H373.486C373.486 159.161 373.452 158.993 373.384 158.837C373.317 158.681 373.218 158.541 373.094 158.425C372.97 158.309 372.823 158.22 372.663 158.163C372.503 158.107 372.332 158.083 372.163 158.095C371.947 158.093 371.733 158.138 371.536 158.226C371.339 158.313 371.163 158.442 371.02 158.604C370.877 158.766 370.77 158.956 370.707 159.162C370.644 159.369 370.626 159.586 370.654 159.8C370.654 160.837 371.223 161.504 372.114 161.504C372.289 161.527 372.467 161.512 372.636 161.461C372.805 161.409 372.961 161.322 373.094 161.205C373.226 161.087 373.332 160.943 373.404 160.782C373.476 160.621 373.512 160.446 373.511 160.269H374.191C374.196 160.536 374.144 160.801 374.038 161.046C373.933 161.291 373.775 161.511 373.577 161.69C373.379 161.869 373.145 162.003 372.89 162.084C372.636 162.165 372.366 162.191 372.101 162.159C371.796 162.169 371.493 162.114 371.211 161.998C370.93 161.882 370.676 161.706 370.468 161.484C370.259 161.262 370.101 160.998 370.003 160.709C369.905 160.421 369.87 160.115 369.9 159.812V159.812Z" fill="#9F9D9D"/>
<path d="M375.18 159.824C375.187 159.367 375.33 158.922 375.59 158.545C375.85 158.168 376.215 157.876 376.64 157.706C377.066 157.536 377.532 157.495 377.98 157.589C378.429 157.682 378.84 157.906 379.161 158.233C379.482 158.559 379.7 158.973 379.787 159.422C379.874 159.871 379.825 160.336 379.649 160.758C379.472 161.181 379.174 161.541 378.792 161.795C378.411 162.048 377.963 162.183 377.505 162.183C377.191 162.202 376.878 162.153 376.585 162.041C376.292 161.928 376.026 161.754 375.806 161.531C375.586 161.308 375.416 161.04 375.308 160.745C375.2 160.451 375.157 160.137 375.18 159.824V159.824ZM379.087 159.824C379.087 159.405 378.921 159.003 378.624 158.707C378.327 158.41 377.924 158.243 377.505 158.243C377.085 158.243 376.682 158.41 376.385 158.707C376.089 159.003 375.922 159.405 375.922 159.824C375.922 160.244 376.089 160.646 376.385 160.942C376.682 161.239 377.085 161.405 377.505 161.405C377.924 161.405 378.327 161.239 378.624 160.942C378.921 160.646 379.087 160.244 379.087 159.824V159.824Z" fill="#9F9D9D"/>
<path d="M380.942 157.515H381.696V158.75C381.779 158.39 381.985 158.07 382.278 157.844C382.572 157.619 382.934 157.502 383.304 157.515C383.679 157.475 384.055 157.582 384.355 157.811C384.654 158.041 384.853 158.377 384.911 158.75V158.75C384.985 158.383 385.191 158.055 385.489 157.828C385.787 157.601 386.157 157.489 386.531 157.515C386.761 157.504 386.99 157.544 387.203 157.63C387.415 157.717 387.607 157.849 387.763 158.017C387.92 158.185 388.037 158.385 388.109 158.604C388.18 158.822 388.203 159.053 388.176 159.281V162.183H387.434V159.33C387.434 158.577 387.063 158.095 386.321 158.095C385.579 158.095 384.936 158.725 384.936 159.787V162.097H384.194V159.33C384.218 159.173 384.207 159.013 384.161 158.86C384.116 158.708 384.037 158.568 383.93 158.45C383.824 158.332 383.692 158.239 383.546 158.177C383.399 158.116 383.24 158.088 383.081 158.095C382.228 158.095 381.696 158.737 381.696 159.824V162.097H380.942V157.515Z" fill="#9F9D9D"/>
<path d="M313.095 209.723H315.568C317.052 209.723 317.917 210.514 317.917 211.786C317.935 212.072 317.888 212.359 317.781 212.625C317.675 212.891 317.51 213.13 317.299 213.325C317.089 213.52 316.838 213.666 316.564 213.752C316.29 213.838 316.001 213.863 315.716 213.824H313.837V215.837H313.095V209.723ZM315.568 213.231C315.763 213.259 315.961 213.244 316.149 213.185C316.336 213.126 316.508 213.026 316.652 212.892C316.796 212.758 316.907 212.594 316.979 212.411C317.05 212.228 317.079 212.031 317.064 211.835C317.064 210.921 316.483 210.427 315.457 210.427H313.837V213.231H315.568Z" fill="#9F9D9D"/>
<path d="M318.771 214.516C318.771 213.873 319.228 213.28 320.452 213.28H322.319V212.947C322.319 212.156 321.85 211.774 320.91 211.774C319.97 211.774 319.599 212.082 319.599 212.712C319.595 212.766 319.595 212.819 319.599 212.873H318.907C318.907 212.873 318.907 212.675 318.907 212.601C318.907 211.687 319.686 211.144 320.935 211.144C322.183 211.144 323.061 211.811 323.061 213.009V215.8H322.319C322.319 215.59 322.319 215.158 322.319 214.713C322.159 215.417 321.59 215.874 320.44 215.874C319.29 215.874 318.771 215.38 318.771 214.516ZM322.319 213.923V213.849H320.514C319.76 213.849 319.463 214.071 319.463 214.516C319.463 214.96 319.896 215.281 320.613 215.281C321.664 215.281 322.319 214.75 322.319 213.923V213.923Z" fill="#9F9D9D"/>
<path d="M324.137 214.306H324.83C324.83 214.923 325.2 215.281 326.153 215.281C327.105 215.281 327.562 214.997 327.562 214.503C327.568 214.405 327.544 214.308 327.493 214.224C327.443 214.14 327.367 214.074 327.278 214.034C326.877 213.908 326.461 213.833 326.041 213.812C325.524 213.825 325.012 213.702 324.557 213.453C324.433 213.349 324.335 213.219 324.268 213.071C324.202 212.923 324.17 212.763 324.174 212.601C324.174 211.737 324.966 211.181 326.19 211.181C327.414 211.181 328.143 211.786 328.143 212.811H327.463C327.463 212.119 327.043 211.811 326.227 211.811C325.411 211.811 324.916 212.095 324.916 212.552C324.904 212.658 324.926 212.766 324.98 212.859C325.033 212.953 325.115 213.027 325.213 213.07C325.616 213.187 326.03 213.258 326.449 213.28C326.928 213.291 327.4 213.4 327.834 213.602C327.981 213.695 328.1 213.825 328.181 213.979C328.261 214.133 328.299 214.305 328.292 214.478C328.292 215.38 327.55 215.911 326.153 215.911C324.755 215.911 324.137 215.195 324.137 214.306Z" fill="#9F9D9D"/>
<path d="M329.244 214.306H329.924C329.924 214.923 330.295 215.281 331.259 215.281C332.224 215.281 332.669 214.997 332.669 214.503C332.676 214.404 332.651 214.304 332.598 214.22C332.544 214.136 332.465 214.07 332.372 214.034C331.972 213.905 331.556 213.831 331.136 213.812C330.618 213.825 330.106 213.702 329.652 213.453C329.526 213.351 329.425 213.221 329.359 213.073C329.292 212.925 329.261 212.763 329.269 212.601C329.269 211.737 330.06 211.181 331.284 211.181C332.508 211.181 333.238 211.786 333.238 212.811H332.545C332.545 212.119 332.125 211.811 331.309 211.811C330.493 211.811 330.011 212.095 330.011 212.552C329.994 212.659 330.015 212.768 330.069 212.863C330.123 212.957 330.207 213.03 330.307 213.07C330.71 213.187 331.125 213.258 331.544 213.28C332.022 213.292 332.494 213.402 332.929 213.602C333.075 213.695 333.195 213.825 333.275 213.979C333.355 214.133 333.394 214.305 333.386 214.478C333.386 215.38 332.644 215.911 331.247 215.911C329.85 215.911 329.244 215.195 329.244 214.306Z" fill="#9F9D9D"/>
<path d="M333.93 211.205H334.746L335.797 215.01L337.034 211.205H337.825L339.062 215.01L340.15 211.205H340.867L339.507 215.788H338.592L337.355 212.082L336.119 215.788H335.352L333.93 211.205Z" fill="#9F9D9D"/>
<path d="M341.436 213.552C341.443 213.095 341.586 212.649 341.845 212.272C342.105 211.895 342.471 211.604 342.896 211.434C343.322 211.263 343.788 211.223 344.236 211.316C344.685 211.41 345.095 211.634 345.417 211.96C345.738 212.287 345.956 212.7 346.043 213.15C346.129 213.599 346.081 214.064 345.904 214.486C345.727 214.908 345.429 215.269 345.048 215.522C344.666 215.776 344.219 215.911 343.76 215.911C343.447 215.932 343.132 215.885 342.838 215.773C342.544 215.661 342.278 215.487 342.057 215.263C341.837 215.039 341.667 214.771 341.56 214.475C341.452 214.18 341.41 213.865 341.436 213.552V213.552ZM345.343 213.552C345.321 213.245 345.21 212.951 345.024 212.706C344.837 212.461 344.583 212.276 344.293 212.173C344.002 212.07 343.688 212.054 343.389 212.127C343.09 212.2 342.818 212.359 342.608 212.584C342.397 212.809 342.257 213.09 342.205 213.394C342.152 213.697 342.189 214.009 342.312 214.291C342.434 214.574 342.636 214.814 342.894 214.984C343.151 215.153 343.452 215.244 343.76 215.244C343.98 215.251 344.198 215.21 344.4 215.126C344.602 215.041 344.784 214.915 344.934 214.755C345.084 214.595 345.198 214.405 345.268 214.198C345.339 213.99 345.364 213.77 345.343 213.552V213.552Z" fill="#9F9D9D"/>
<path d="M347.21 211.205H347.952V212.527C348.03 212.146 348.241 211.804 348.546 211.563C348.851 211.321 349.232 211.195 349.621 211.205C350.648 211.205 351.204 211.885 351.204 212.996C351.204 213.305 351.204 213.639 351.204 213.812H350.524C350.524 213.676 350.524 213.441 350.524 213.157C350.524 212.305 350.203 211.922 349.448 211.922C348.509 211.922 347.964 212.737 347.964 213.886V215.911H347.223L347.21 211.205Z" fill="#9F9D9D"/>
<path d="M352.132 213.515C352.11 213.212 352.154 212.907 352.258 212.621C352.363 212.336 352.527 212.075 352.74 211.857C352.952 211.639 353.208 211.469 353.491 211.356C353.774 211.244 354.078 211.193 354.382 211.205C355.347 211.205 355.928 211.588 356.101 212.194V209.427H356.855V215.862H356.101C356.101 215.454 356.101 215.047 356.101 214.627C356.012 215.029 355.777 215.384 355.441 215.624C355.105 215.863 354.693 215.97 354.283 215.924C353.978 215.924 353.676 215.86 353.398 215.735C353.119 215.611 352.87 215.429 352.667 215.201C352.464 214.974 352.311 214.706 352.219 214.415C352.126 214.125 352.097 213.818 352.132 213.515V213.515ZM356.101 213.602V213.367C356.108 213.154 356.068 212.942 355.986 212.745C355.903 212.548 355.778 212.372 355.621 212.228C355.464 212.084 355.277 211.975 355.074 211.909C354.871 211.844 354.656 211.823 354.444 211.848C354.107 211.838 353.774 211.929 353.488 212.108C353.202 212.287 352.976 212.547 352.838 212.854C352.7 213.162 352.656 213.503 352.713 213.836C352.769 214.168 352.923 214.476 353.154 214.721C353.386 214.966 353.685 215.137 354.014 215.213C354.343 215.288 354.686 215.264 355.002 215.145C355.317 215.025 355.59 214.814 355.786 214.54C355.981 214.265 356.091 213.938 356.101 213.602V213.602Z" fill="#9F9D9D"/>
<path d="M367.415 232.61H370.729V233.203H368.07V235.006H370.345V235.5H368.07V237.711H367.415V232.61Z" fill="#97C1B7"/>
<path d="M371.211 235.809C371.216 235.426 371.334 235.053 371.551 234.737C371.768 234.421 372.073 234.177 372.429 234.034C372.785 233.891 373.175 233.857 373.55 233.936C373.926 234.015 374.269 234.202 374.538 234.476C374.806 234.749 374.988 235.096 375.059 235.472C375.131 235.848 375.089 236.237 374.94 236.59C374.79 236.943 374.539 237.243 374.219 237.454C373.899 237.664 373.523 237.775 373.14 237.773C372.879 237.788 372.619 237.747 372.376 237.653C372.132 237.559 371.912 237.414 371.729 237.228C371.547 237.042 371.406 236.819 371.316 236.575C371.227 236.33 371.191 236.069 371.211 235.809V235.809ZM374.463 235.809C374.481 235.626 374.46 235.44 374.402 235.265C374.344 235.091 374.25 234.93 374.126 234.793C374.002 234.657 373.85 234.548 373.682 234.473C373.513 234.398 373.331 234.36 373.146 234.36C372.961 234.36 372.779 234.398 372.61 234.473C372.442 234.548 372.29 234.657 372.166 234.793C372.042 234.93 371.948 235.091 371.89 235.265C371.832 235.44 371.811 235.626 371.829 235.809C371.811 235.992 371.832 236.178 371.89 236.353C371.948 236.528 372.042 236.688 372.166 236.825C372.29 236.961 372.442 237.07 372.61 237.145C372.779 237.22 372.961 237.258 373.146 237.258C373.331 237.258 373.513 237.22 373.682 237.145C373.85 237.07 374.002 236.961 374.126 236.825C374.25 236.688 374.344 236.528 374.402 236.353C374.46 236.178 374.481 235.992 374.463 235.809V235.809Z" fill="#97C1B7"/>
<path d="M376.008 233.882H376.627V234.994C376.678 234.662 376.847 234.361 377.104 234.145C377.361 233.929 377.688 233.814 378.024 233.821C378.89 233.821 379.347 234.401 379.347 235.315C379.347 235.587 379.347 235.858 379.347 236.007H378.778C378.778 235.883 378.778 235.686 378.778 235.451C378.778 234.747 378.519 234.376 377.888 234.376C377.257 234.376 376.651 235.068 376.651 236.019V237.711H376.033L376.008 233.882Z" fill="#97C1B7"/>
<path d="M383.984 238.106C383.984 238.872 383.254 239.342 382.043 239.342C380.831 239.342 380.027 238.934 380.027 238.205C380.03 238.106 380.053 238.009 380.095 237.919C380.137 237.829 380.197 237.749 380.271 237.683C380.345 237.617 380.432 237.567 380.526 237.536C380.62 237.505 380.72 237.493 380.818 237.501V237.501C380.719 237.426 380.64 237.329 380.586 237.217C380.532 237.106 380.506 236.983 380.509 236.859C380.501 236.745 380.522 236.631 380.569 236.528C380.617 236.424 380.69 236.334 380.781 236.266C380.602 236.151 380.455 235.992 380.355 235.803C380.256 235.615 380.207 235.404 380.213 235.191C380.213 234.364 380.856 233.821 381.845 233.821C382.214 233.81 382.578 233.904 382.896 234.092V234.092C382.8 233.969 382.747 233.817 382.747 233.66C382.747 233.351 383.019 233.154 383.452 233.154C383.567 233.135 383.684 233.135 383.798 233.154V233.648C383.709 233.629 383.616 233.629 383.526 233.648C383.267 233.648 383.131 233.771 383.131 233.993C383.139 234.138 383.172 234.28 383.23 234.413C383.401 234.641 383.488 234.92 383.477 235.204C383.477 236.031 382.846 236.562 381.845 236.562C381.605 236.566 381.367 236.528 381.14 236.451C381.062 236.545 381.022 236.664 381.029 236.785C381.029 237.032 381.189 237.192 381.523 237.192H382.76C383.576 237.143 383.984 237.526 383.984 238.106ZM383.353 238.168C383.353 237.872 383.131 237.711 382.673 237.711H381.523C380.992 237.711 380.658 237.847 380.658 238.205C380.658 238.563 381.189 238.823 382.043 238.823C382.896 238.823 383.353 238.539 383.353 238.168ZM380.88 235.191C380.88 235.698 381.276 236.019 381.907 236.019C382.537 236.019 382.945 235.698 382.945 235.191C382.945 234.685 382.537 234.352 381.907 234.352C381.276 234.352 380.818 234.673 380.818 235.191H380.88Z" fill="#97C1B7"/>
<path d="M384.491 235.809C384.496 235.427 384.614 235.054 384.83 234.739C385.046 234.423 385.351 234.178 385.706 234.035C386.061 233.892 386.451 233.857 386.826 233.935C387.201 234.013 387.544 234.199 387.813 234.471C388.082 234.743 388.265 235.089 388.338 235.464C388.411 235.84 388.371 236.229 388.223 236.581C388.076 236.934 387.827 237.236 387.508 237.448C387.189 237.66 386.815 237.773 386.432 237.773C386.171 237.788 385.91 237.747 385.666 237.653C385.423 237.559 385.202 237.414 385.018 237.229C384.834 237.043 384.692 236.82 384.602 236.575C384.511 236.331 384.473 236.069 384.491 235.809V235.809ZM387.755 235.809C387.755 235.459 387.616 235.122 387.368 234.875C387.12 234.627 386.783 234.488 386.432 234.488C386.081 234.488 385.745 234.627 385.497 234.875C385.249 235.122 385.109 235.459 385.109 235.809C385.109 236.16 385.249 236.496 385.497 236.744C385.745 236.991 386.081 237.131 386.432 237.131C386.783 237.131 387.12 236.991 387.368 236.744C387.616 236.496 387.755 236.16 387.755 235.809Z" fill="#97C1B7"/>
<path d="M389.387 236.315V234.426H388.757V233.882H389.264C389.387 233.882 389.437 233.821 389.449 233.623V233.018H389.969V233.882H391.366V234.426H390.006V236.278C390.006 236.847 390.191 237.205 390.772 237.205C390.974 237.208 391.174 237.179 391.366 237.118V237.649C391.155 237.723 390.933 237.756 390.71 237.748C389.758 237.748 389.387 237.143 389.387 236.315Z" fill="#97C1B7"/>
<path d="M394.111 232.61H396.139C397.375 232.61 398.093 233.277 398.093 234.339C398.106 234.577 398.066 234.814 397.977 235.035C397.887 235.255 397.75 235.453 397.575 235.615C397.401 235.776 397.192 235.897 396.966 235.969C396.739 236.041 396.499 236.063 396.263 236.031H394.705V237.711H394.062L394.111 232.61ZM396.201 235.537C396.992 235.537 397.437 235.142 397.437 234.376C397.437 233.611 396.967 233.203 396.102 233.203H394.705V235.537H396.201Z" fill="#97C1B7"/>
<path d="M398.859 236.612C398.859 236.068 399.242 235.611 400.269 235.611H401.827V235.327C401.827 234.673 401.431 234.352 400.59 234.352C399.749 234.352 399.502 234.611 399.502 235.13V235.278H398.933C398.927 235.2 398.927 235.121 398.933 235.043C398.933 234.278 399.576 233.808 400.615 233.808C401.654 233.808 402.396 234.364 402.396 235.364V237.699H401.777C401.777 237.526 401.777 237.168 401.777 236.797C401.641 237.378 401.159 237.761 400.207 237.761C399.255 237.761 398.859 237.328 398.859 236.612ZM401.827 236.105H400.318C399.688 236.105 399.44 236.291 399.44 236.661C399.44 237.032 399.799 237.304 400.405 237.304C401.27 237.254 401.827 236.81 401.827 236.105Z" fill="#97C1B7"/>
<path d="M403.36 236.439H403.941C403.941 236.945 404.25 237.254 405.042 237.254C405.833 237.254 406.278 237.007 406.278 236.6C406.285 236.517 406.266 236.435 406.224 236.364C406.182 236.293 406.119 236.238 406.043 236.204C405.698 236.099 405.341 236.037 404.98 236.019C404.549 236.03 404.123 235.927 403.743 235.723C403.638 235.636 403.555 235.526 403.499 235.402C403.443 235.278 403.417 235.142 403.422 235.006C403.422 234.29 404.09 233.771 405.103 233.771C406.117 233.771 406.736 234.278 406.736 235.142H406.167C406.167 234.562 405.808 234.302 405.128 234.302C404.448 234.302 404.04 234.537 404.04 234.92C404.025 235.009 404.042 235.101 404.087 235.18C404.132 235.258 404.203 235.319 404.287 235.352C404.638 235.454 404.999 235.517 405.363 235.537C405.76 235.543 406.152 235.631 406.513 235.797C406.635 235.874 406.735 235.982 406.802 236.11C406.869 236.238 406.902 236.381 406.896 236.525C406.896 237.279 406.278 237.761 405.116 237.761C403.953 237.761 403.36 237.143 403.36 236.439Z" fill="#97C1B7"/>
<path d="M407.589 236.439H408.158C408.158 236.945 408.467 237.254 409.271 237.254C410.074 237.254 410.507 237.007 410.507 236.6C410.515 236.516 410.495 236.431 410.451 236.36C410.406 236.289 410.339 236.234 410.26 236.204C409.919 236.098 409.566 236.035 409.209 236.019C408.778 236.03 408.351 235.927 407.972 235.723C407.867 235.636 407.784 235.526 407.728 235.402C407.672 235.278 407.646 235.142 407.651 235.006C407.651 234.29 408.306 233.771 409.332 233.771C410.359 233.771 410.965 234.278 410.965 235.142H410.383C410.383 234.562 410.037 234.302 409.357 234.302C408.677 234.302 408.269 234.537 408.269 234.92C408.254 235.009 408.271 235.101 408.316 235.18C408.361 235.258 408.432 235.319 408.516 235.352C408.867 235.454 409.228 235.517 409.592 235.537C409.989 235.543 410.381 235.631 410.742 235.797C410.864 235.874 410.964 235.982 411.031 236.11C411.098 236.238 411.131 236.381 411.125 236.525C411.125 237.279 410.507 237.761 409.345 237.761C408.182 237.761 407.589 237.143 407.589 236.439Z" fill="#97C1B7"/>
<path d="M411.496 233.882H412.176L413.054 237.057L414.118 233.882H414.736L415.762 237.057L416.677 233.882H417.283L416.133 237.711H415.379L414.489 234.673L413.462 237.724H412.72L411.496 233.882Z" fill="#97C1B7"/>
<path d="M417.753 235.809C417.758 235.427 417.876 235.054 418.092 234.739C418.308 234.423 418.613 234.178 418.968 234.035C419.323 233.892 419.713 233.857 420.088 233.935C420.463 234.013 420.806 234.199 421.075 234.471C421.344 234.743 421.527 235.089 421.6 235.464C421.673 235.84 421.633 236.229 421.485 236.581C421.338 236.934 421.089 237.236 420.77 237.448C420.451 237.66 420.077 237.773 419.694 237.773C419.433 237.788 419.172 237.747 418.928 237.653C418.685 237.559 418.464 237.414 418.28 237.229C418.096 237.043 417.954 236.82 417.864 236.575C417.773 236.331 417.735 236.069 417.753 235.809V235.809ZM421.005 235.809C420.988 235.552 420.896 235.305 420.74 235.099C420.584 234.893 420.372 234.737 420.128 234.65C419.885 234.564 419.621 234.551 419.37 234.612C419.119 234.673 418.892 234.807 418.716 234.996C418.54 235.185 418.423 235.421 418.38 235.676C418.337 235.93 418.37 236.192 418.474 236.428C418.578 236.664 418.749 236.865 418.966 237.005C419.183 237.145 419.436 237.219 419.694 237.217C419.878 237.23 420.063 237.202 420.235 237.134C420.406 237.066 420.561 236.961 420.687 236.826C420.812 236.691 420.906 236.53 420.961 236.354C421.016 236.178 421.031 235.992 421.005 235.809V235.809Z" fill="#97C1B7"/>
<path d="M422.563 233.882H423.181V234.994C423.227 234.662 423.393 234.359 423.649 234.143C423.904 233.926 424.231 233.811 424.566 233.821C425.432 233.821 425.889 234.401 425.889 235.315C425.889 235.587 425.889 235.858 425.889 236.007H425.32C425.33 235.822 425.33 235.636 425.32 235.451C425.32 234.747 425.048 234.376 424.43 234.376C423.812 234.376 423.193 235.068 423.193 236.019V237.711H422.575L422.563 233.882Z" fill="#97C1B7"/>
<path d="M426.668 235.772C426.647 235.517 426.68 235.26 426.766 235.018C426.852 234.777 426.988 234.556 427.166 234.372C427.344 234.187 427.559 234.043 427.797 233.947C428.036 233.852 428.291 233.809 428.548 233.821C429.339 233.821 429.784 234.154 429.97 234.648V232.351H430.588V237.711H429.97C429.97 237.365 429.97 237.032 429.97 236.686C429.895 237.023 429.699 237.32 429.418 237.521C429.137 237.722 428.792 237.812 428.449 237.773C428.196 237.771 427.947 237.716 427.717 237.612C427.487 237.508 427.281 237.356 427.113 237.168C426.945 236.979 426.819 236.757 426.742 236.517C426.666 236.277 426.64 236.023 426.668 235.772V235.772ZM429.982 235.846V235.649C429.983 235.473 429.947 235.299 429.876 235.139C429.805 234.979 429.7 234.835 429.569 234.718C429.438 234.601 429.284 234.514 429.116 234.461C428.948 234.409 428.771 234.392 428.597 234.413C428.316 234.406 428.04 234.482 427.803 234.632C427.565 234.781 427.377 234.997 427.263 235.253C427.148 235.509 427.112 235.793 427.159 236.07C427.205 236.346 427.333 236.603 427.525 236.807C427.718 237.011 427.966 237.154 428.24 237.217C428.513 237.28 428.799 237.261 429.062 237.163C429.324 237.064 429.552 236.89 429.716 236.662C429.879 236.434 429.972 236.163 429.982 235.883V235.846Z" fill="#97C1B7"/>
<path d="M431.899 235.068H432.368C432.452 235.238 432.585 235.378 432.751 235.468C432.918 235.559 433.108 235.596 433.296 235.574C433.914 235.574 434.322 234.982 434.322 234.216C434.338 234.06 434.32 233.903 434.272 233.754C434.223 233.606 434.144 233.469 434.039 233.353C433.934 233.236 433.806 233.143 433.663 233.079C433.52 233.015 433.366 232.982 433.209 232.981C433.071 232.966 432.932 232.981 432.8 233.026C432.669 233.072 432.55 233.145 432.45 233.242C432.351 233.339 432.275 233.456 432.226 233.586C432.178 233.716 432.159 233.855 432.171 233.993C432.165 234.063 432.165 234.134 432.171 234.203H431.639C431.629 234.113 431.629 234.022 431.639 233.932C431.632 233.728 431.669 233.526 431.748 233.338C431.827 233.15 431.946 232.982 432.097 232.845C432.247 232.707 432.426 232.604 432.62 232.542C432.814 232.48 433.019 232.461 433.222 232.487C433.446 232.473 433.67 232.509 433.88 232.59C434.089 232.67 434.279 232.795 434.436 232.956C434.593 233.116 434.714 233.308 434.79 233.519C434.866 233.73 434.897 233.955 434.879 234.179C434.879 235.204 434.31 236.031 433.333 236.031C433.142 236.046 432.951 236.007 432.781 235.92C432.611 235.833 432.468 235.7 432.368 235.537V235.537V236.328H431.911L431.899 235.068ZM431.812 236.834H432.48V237.711H431.8L431.812 236.834Z" fill="#97C1B7"/>
<path d="M318.783 257.176H425.333C428.966 257.176 432.451 258.618 435.02 261.185C437.59 263.751 439.033 267.232 439.033 270.862C439.033 274.492 437.59 277.974 435.021 280.543C432.452 283.111 428.967 284.556 425.333 284.559H318.783C315.147 284.556 311.661 283.112 309.09 280.544C306.519 277.975 305.073 274.493 305.07 270.862V270.862C305.073 267.231 306.52 263.75 309.091 261.184C311.662 258.618 315.148 257.176 318.783 257.176V257.176Z" fill="#CB544F"/>
<path d="M318.783 257.436H425.333C428.897 257.436 432.316 258.85 434.837 261.368C437.357 263.886 438.773 267.301 438.773 270.862C438.773 274.423 437.358 277.84 434.837 280.359C432.317 282.879 428.898 284.296 425.333 284.3H318.783C315.215 284.3 311.793 282.884 309.27 280.364C306.747 277.844 305.33 274.426 305.33 270.862V270.862C305.33 269.097 305.678 267.351 306.354 265.721C307.03 264.091 308.022 262.611 309.271 261.364C310.52 260.117 312.003 259.128 313.636 258.454C315.268 257.78 317.017 257.434 318.783 257.436V257.436Z" stroke="#CB544F"/>
<path d="M351.427 271.887H352.948C352.948 272.615 353.244 273.122 354.382 273.122C355.52 273.122 355.792 272.702 355.792 272.269C355.8 272.144 355.765 272.02 355.693 271.916C355.621 271.813 355.516 271.737 355.396 271.701C354.878 271.576 354.354 271.482 353.826 271.417C353.215 271.36 352.62 271.193 352.07 270.923C351.847 270.766 351.669 270.554 351.554 270.307C351.439 270.06 351.391 269.787 351.414 269.515C351.414 268.28 352.416 267.341 354.382 267.341C356.546 267.341 357.238 268.243 357.238 269.812H355.767C355.767 269.033 355.371 268.576 354.431 268.576C353.492 268.576 353.121 268.922 353.121 269.367C353.121 269.812 353.22 269.886 353.455 269.984C353.958 270.142 354.476 270.25 355 270.306C355.607 270.369 356.199 270.527 356.756 270.775C356.998 270.912 357.196 271.115 357.327 271.359C357.459 271.604 357.518 271.881 357.498 272.158C357.498 273.319 356.843 274.344 354.419 274.344C351.996 274.344 351.427 273.134 351.427 271.887Z" fill="white"/>
<path d="M358.265 267.329H359.835V268.564H358.265V267.329ZM358.265 269.12H359.835V274.196H358.265V269.12Z" fill="white"/>
<path d="M366.265 274.641C366.265 275.814 365.226 276.432 363.458 276.432C361.69 276.432 360.589 275.938 360.589 275.086C360.588 274.964 360.61 274.842 360.656 274.729C360.702 274.616 360.771 274.513 360.857 274.427C360.944 274.341 361.046 274.272 361.16 274.226C361.273 274.18 361.394 274.158 361.517 274.159V274.159C361.368 274.075 361.245 273.953 361.16 273.805C361.076 273.658 361.032 273.49 361.034 273.319C361.026 273.115 361.083 272.913 361.196 272.742C361.309 272.572 361.473 272.441 361.665 272.368V272.368C361.402 272.223 361.184 272.007 361.035 271.746C360.887 271.484 360.814 271.187 360.824 270.886C360.824 269.738 361.714 269.058 363.223 269.058C363.731 269.043 364.235 269.149 364.694 269.367V269.367C364.606 269.297 364.533 269.21 364.482 269.109C364.431 269.009 364.402 268.899 364.398 268.787C364.398 268.367 364.818 268.107 365.473 268.107C365.665 268.102 365.856 268.123 366.042 268.169V269.157C365.94 269.144 365.836 269.144 365.733 269.157C365.399 269.157 365.238 269.305 365.238 269.54C365.252 269.702 365.294 269.861 365.362 270.009C365.53 270.289 365.616 270.61 365.609 270.936C365.609 272.084 364.719 272.751 363.211 272.751C362.924 272.754 362.639 272.729 362.357 272.677C362.297 272.774 362.263 272.884 362.258 272.998C362.258 273.233 362.456 273.369 362.765 273.369H364.41C365.523 273.295 366.265 273.801 366.265 274.641ZM364.694 274.863C364.694 274.579 364.484 274.431 364.039 274.431H362.803C362.382 274.431 362.122 274.604 362.122 274.888C362.122 275.172 362.605 275.481 363.359 275.481C364.113 275.481 364.633 275.259 364.633 274.863H364.694ZM362.308 270.862C362.29 271.045 362.329 271.229 362.418 271.391C362.508 271.552 362.644 271.682 362.809 271.765C362.974 271.848 363.16 271.878 363.342 271.854C363.525 271.829 363.696 271.749 363.833 271.626C363.97 271.502 364.066 271.34 364.109 271.161C364.152 270.981 364.139 270.793 364.073 270.621C364.007 270.449 363.891 270.301 363.739 270.196C363.587 270.091 363.407 270.035 363.223 270.034C363.102 270.007 362.976 270.009 362.856 270.038C362.735 270.068 362.623 270.125 362.529 270.205C362.434 270.286 362.359 270.387 362.31 270.5C362.261 270.614 362.239 270.738 362.246 270.862H362.308Z" fill="white"/>
<path d="M366.809 269.12H368.379V270.466C368.469 270.016 368.728 269.617 369.103 269.351C369.477 269.085 369.939 268.971 370.395 269.034C370.668 269.001 370.945 269.03 371.205 269.118C371.466 269.207 371.703 269.352 371.9 269.544C372.097 269.736 372.248 269.969 372.343 270.227C372.438 270.485 372.473 270.761 372.447 271.034V274.196H370.815V271.356C370.815 270.627 370.395 270.318 369.702 270.318C369.01 270.318 368.379 270.8 368.379 271.763V274.233H366.809V269.12Z" fill="white"/>
<path d="M375.625 267.428H377.319V274.196H375.625V267.428Z" fill="white"/>
<path d="M378.234 269.12H379.866V270.466C379.957 270.016 380.215 269.617 380.59 269.351C380.964 269.085 381.426 268.971 381.882 269.034C382.153 269.003 382.429 269.033 382.687 269.122C382.945 269.211 383.181 269.357 383.375 269.549C383.57 269.741 383.719 269.974 383.811 270.231C383.904 270.488 383.937 270.763 383.91 271.034V274.196H382.228V271.356C382.228 270.627 381.82 270.318 381.128 270.318C380.435 270.318 379.804 270.8 379.804 271.763V274.233H378.234V269.12Z" fill="white"/>
<path d="M305.849 305.482H438.773" stroke="#66C6E3" stroke-width="2"/>
<path d="M372.311 314.523C377.167 314.523 381.103 310.591 381.103 305.741C381.103 300.891 377.167 296.96 372.311 296.96C367.456 296.96 363.52 300.891 363.52 305.741C363.52 310.591 367.456 314.523 372.311 314.523Z" fill="#66C6E3"/>
<path d="M372.311 314.264C377.023 314.264 380.843 310.448 380.843 305.741C380.843 301.035 377.023 297.219 372.311 297.219C367.599 297.219 363.779 301.035 363.779 305.741C363.779 310.448 367.599 314.264 372.311 314.264Z" stroke="#66C6E3"/>
<path d="M366.858 305.235C366.839 304.688 366.983 304.148 367.273 303.684C367.563 303.22 367.985 302.854 368.485 302.631C368.986 302.409 369.541 302.341 370.08 302.436C370.619 302.532 371.118 302.786 371.511 303.166C371.905 303.547 372.175 304.036 372.288 304.571C372.401 305.107 372.35 305.663 372.144 306.17C371.938 306.677 371.584 307.11 371.129 307.414C370.674 307.719 370.139 307.88 369.591 307.878C369.23 307.917 368.865 307.877 368.521 307.759C368.178 307.641 367.865 307.449 367.604 307.197C367.343 306.945 367.141 306.638 367.012 306.299C366.883 305.96 366.831 305.597 366.858 305.235V305.235ZM371.013 305.235C371.04 305.033 371.023 304.827 370.964 304.632C370.905 304.437 370.804 304.256 370.67 304.103C370.535 303.95 370.369 303.827 370.183 303.742C369.997 303.658 369.795 303.615 369.591 303.615C369.387 303.615 369.185 303.658 368.999 303.742C368.813 303.827 368.647 303.95 368.512 304.103C368.378 304.256 368.277 304.437 368.218 304.632C368.159 304.827 368.142 305.033 368.169 305.235C368.142 305.437 368.159 305.643 368.218 305.838C368.277 306.033 368.378 306.214 368.512 306.367C368.647 306.521 368.813 306.643 368.999 306.728C369.185 306.812 369.387 306.855 369.591 306.855C369.795 306.855 369.997 306.812 370.183 306.728C370.369 306.643 370.535 306.521 370.67 306.367C370.804 306.214 370.905 306.033 370.964 305.838C371.023 305.643 371.04 305.437 371.013 305.235V305.235Z" fill="white"/>
<path d="M372.917 302.703H375.291C376.651 302.703 377.369 303.259 377.369 304.222C377.414 304.484 377.362 304.754 377.224 304.981C377.085 305.208 376.868 305.378 376.614 305.457V305.457C376.849 305.516 377.054 305.66 377.189 305.861C377.323 306.061 377.379 306.305 377.344 306.544V307.779H376.107V306.544C376.107 306.087 375.934 305.877 375.452 305.877H374.216V307.779H372.979L372.917 302.703ZM375.39 305.173C375.922 305.173 376.194 304.939 376.194 304.457C376.194 303.975 375.91 303.741 375.328 303.741H374.228V305.173H375.39Z" fill="white"/>
<path d="M318.783 328.467H425.333C428.962 328.467 432.443 329.906 435.012 332.467C437.58 335.028 439.027 338.503 439.033 342.128V342.128C439.033 345.757 437.59 349.238 435.02 351.805C432.451 354.371 428.966 355.813 425.333 355.813H318.783C315.148 355.813 311.662 354.372 309.091 351.806C306.52 349.239 305.073 345.759 305.07 342.128V342.128C305.08 338.502 306.529 335.027 309.1 332.466C311.67 329.906 315.153 328.467 318.783 328.467V328.467Z" fill="#CB544F"/>
<path d="M318.783 328.727H425.333C428.892 328.73 432.305 330.142 434.824 332.654C437.343 335.166 438.764 338.572 438.773 342.128C438.773 345.689 437.357 349.104 434.837 351.621C432.316 354.139 428.897 355.554 425.333 355.554H318.783C315.217 355.554 311.797 354.14 309.275 351.622C306.752 349.105 305.333 345.69 305.33 342.128V342.128C305.34 338.57 306.761 335.162 309.283 332.65C311.805 330.138 315.221 328.727 318.783 328.727V328.727Z" stroke="#CB544F"/>
<path d="M351.427 343.177H352.948C352.948 343.919 353.244 344.413 354.382 344.413C355.52 344.413 355.792 344.005 355.792 343.573C355.802 343.447 355.768 343.321 355.696 343.218C355.624 343.114 355.518 343.039 355.396 343.005C354.88 342.869 354.355 342.77 353.826 342.708C353.214 342.657 352.618 342.49 352.07 342.214C351.846 342.058 351.667 341.846 351.552 341.598C351.437 341.351 351.389 341.078 351.414 340.806C351.414 339.571 352.416 338.645 354.382 338.645C356.546 338.645 357.238 339.546 357.238 341.115H355.767C355.767 340.349 355.371 339.88 354.431 339.88C353.492 339.88 353.121 340.225 353.121 340.682C353.101 340.808 353.123 340.936 353.184 341.047C353.244 341.159 353.339 341.248 353.455 341.3C353.961 341.446 354.478 341.553 355 341.621C355.605 341.686 356.196 341.84 356.756 342.078C356.997 342.216 357.194 342.419 357.325 342.664C357.456 342.908 357.516 343.185 357.498 343.462C357.498 344.623 356.843 345.66 354.419 345.66C351.995 345.66 351.427 344.437 351.427 343.177Z" fill="white"/>
<path d="M358.265 338.633H359.835V339.868H358.265V338.633ZM358.265 340.411H359.835V345.512H358.265V340.411Z" fill="white"/>
<path d="M366.265 345.944C366.265 347.105 365.226 347.723 363.458 347.723C361.69 347.723 360.589 347.229 360.589 346.389C360.586 346.266 360.607 346.143 360.653 346.029C360.698 345.914 360.766 345.81 360.853 345.722C360.939 345.635 361.043 345.565 361.157 345.519C361.271 345.472 361.393 345.449 361.517 345.45V345.45C361.369 345.365 361.247 345.243 361.162 345.095C361.077 344.948 361.033 344.781 361.034 344.61C361.026 344.404 361.082 344.2 361.195 344.028C361.308 343.855 361.472 343.722 361.665 343.647C361.404 343.502 361.187 343.289 361.039 343.03C360.89 342.771 360.816 342.476 360.824 342.177C360.824 341.029 361.714 340.349 363.223 340.349C363.732 340.328 364.237 340.434 364.694 340.658C364.606 340.589 364.533 340.501 364.482 340.4C364.431 340.3 364.402 340.19 364.398 340.078C364.398 339.658 364.818 339.411 365.473 339.411C365.663 339.393 365.853 339.393 366.042 339.411V340.399H365.733C365.399 340.399 365.238 340.547 365.238 340.782C365.252 340.94 365.294 341.095 365.362 341.239C365.532 341.522 365.618 341.847 365.609 342.177C365.609 343.326 364.719 343.993 363.211 343.993C362.924 343.992 362.638 343.963 362.357 343.906C362.295 344.007 362.261 344.122 362.258 344.24C362.258 344.462 362.456 344.598 362.765 344.598H364.41C365.523 344.598 366.265 345.092 366.265 345.944ZM364.694 346.154C364.694 345.883 364.484 345.722 364.039 345.722H362.803C362.382 345.722 362.122 345.895 362.122 346.191C362.122 346.488 362.605 346.772 363.359 346.772C364.113 346.772 364.633 346.562 364.633 346.154H364.694ZM362.246 342.128C362.231 342.311 362.272 342.494 362.363 342.654C362.454 342.814 362.591 342.943 362.757 343.023C362.922 343.104 363.108 343.133 363.29 343.106C363.472 343.08 363.642 342.999 363.777 342.875C363.913 342.751 364.008 342.588 364.049 342.409C364.091 342.23 364.078 342.043 364.011 341.872C363.945 341.7 363.828 341.553 363.676 341.449C363.525 341.345 363.345 341.289 363.161 341.288C363.044 341.274 362.925 341.285 362.812 341.321C362.7 341.357 362.596 341.417 362.509 341.497C362.422 341.577 362.354 341.675 362.308 341.783C362.263 341.892 362.242 342.01 362.246 342.128V342.128Z" fill="white"/>
<path d="M366.809 340.411H368.379V341.77C368.467 341.318 368.725 340.917 369.1 340.65C369.475 340.384 369.939 340.271 370.395 340.337C370.667 340.302 370.944 340.329 371.204 340.416C371.465 340.503 371.703 340.647 371.9 340.838C372.097 341.029 372.249 341.262 372.343 341.519C372.438 341.777 372.474 342.052 372.447 342.325V345.512H370.815V342.671C370.815 341.955 370.395 341.634 369.702 341.634C369.01 341.634 368.379 342.115 368.379 343.091V345.561H366.809V340.411Z" fill="white"/>
<path d="M375.526 342.881V338.719H377.22V342.82C377.268 343.192 377.45 343.535 377.732 343.783C378.014 344.032 378.377 344.169 378.753 344.169C379.13 344.169 379.493 344.032 379.775 343.783C380.057 343.535 380.239 343.192 380.287 342.82V338.719H381.783V342.881C381.783 344.623 380.546 345.623 378.667 345.623C376.787 345.623 375.526 344.598 375.526 342.881Z" fill="white"/>
<path d="M382.624 340.411H384.194V341.461C384.308 341.105 384.541 340.799 384.854 340.595C385.167 340.39 385.541 340.299 385.913 340.337C386.235 340.327 386.556 340.386 386.854 340.508C387.153 340.63 387.422 340.814 387.645 341.047C387.867 341.28 388.038 341.557 388.147 341.86C388.255 342.163 388.299 342.486 388.275 342.807C388.312 343.145 388.279 343.488 388.178 343.813C388.077 344.138 387.91 344.439 387.687 344.696C387.464 344.954 387.19 345.162 386.883 345.309C386.576 345.456 386.241 345.538 385.9 345.549C385.542 345.594 385.179 345.52 384.867 345.339C384.554 345.159 384.309 344.881 384.169 344.549V344.549C384.169 344.895 384.169 345.401 384.169 345.586V347.513H382.599L382.624 340.411ZM386.704 342.881C386.725 342.707 386.709 342.53 386.656 342.363C386.604 342.196 386.516 342.041 386.399 341.91C386.282 341.78 386.138 341.675 385.978 341.604C385.817 341.533 385.643 341.497 385.468 341.498C385.282 341.485 385.096 341.513 384.924 341.582C384.751 341.65 384.596 341.756 384.47 341.893C384.344 342.029 384.25 342.192 384.196 342.37C384.142 342.547 384.129 342.735 384.157 342.918V343.141C384.157 343.31 384.191 343.478 384.259 343.634C384.326 343.79 384.425 343.93 384.549 344.046C384.673 344.162 384.82 344.251 384.98 344.308C385.14 344.365 385.311 344.388 385.48 344.376C386.222 344.4 386.704 343.808 386.704 342.918V342.881Z" fill="white"/>
<path d="M356.587 62.4291H348.254L345.989 67.6227H340.772L352.493 43.2292L364.088 67.6227H358.834L356.587 62.4291ZM354.776 58.3575L352.493 52.7477L350.066 58.3575H354.776Z" fill="#66C6E3"/>
<path d="M368.49 65.6142L369.233 61.072C371.113 62.7631 373.518 63.7594 376.044 63.895C378.2 63.895 379.342 62.6645 379.342 61.1444C379.342 59.8958 378.635 58.7919 376.352 58.05L374.903 57.5795C370.609 56.2042 369.106 53.5441 369.106 50.4677C369.117 49.5119 369.326 48.5686 369.719 47.697C370.112 46.8254 370.681 46.0441 371.39 45.4021C372.099 44.7601 372.933 44.2711 373.84 43.9657C374.747 43.6604 375.707 43.5452 376.66 43.6274C378.933 43.6719 381.162 44.2549 383.164 45.3284L382.458 49.762C380.718 48.5904 378.699 47.8976 376.606 47.7533C376.246 47.7074 375.881 47.7379 375.534 47.8429C375.187 47.9478 374.866 48.1249 374.593 48.3624C374.319 48.5999 374.099 48.8925 373.946 49.221C373.793 49.5495 373.712 49.9066 373.707 50.2687C373.707 51.5535 374.414 52.5669 376.842 53.3269L378.273 53.7974C382.421 55.1365 384.034 57.869 384.034 60.8549C384.034 64.6551 381.316 68.0933 376.099 68.0933C373.37 68.051 370.718 67.1869 368.49 65.6142V65.6142Z" fill="#66C6E3"/>
<path d="M404.886 63.1348L404.179 67.695H391.117V44.3691L395.9 43.8081V63.1348H404.886Z" fill="#66C6E3"/>
<path d="M321.804 83.0406V102.005H317.021V83.0406H310.825L311.532 78.5708H327.275L327.945 83.0406H321.804Z" fill="#66C6E3"/>
<path d="M331.913 90.279C331.859 87.795 332.547 85.3513 333.889 83.2595C335.232 81.1678 337.167 79.5229 339.449 78.5347C341.732 77.5465 344.257 77.2599 346.703 77.7112C349.149 78.1626 351.405 79.3316 353.183 81.0691C354.961 82.8066 356.18 85.0338 356.686 87.4665C357.191 89.8992 356.96 92.4272 356.021 94.728C355.082 97.0287 353.478 98.9979 351.414 100.384C349.349 101.771 346.919 102.511 344.431 102.512C342.8 102.548 341.179 102.258 339.661 101.66C338.144 101.061 336.762 100.166 335.595 99.0264C334.429 97.8869 333.503 96.526 332.87 95.0239C332.238 93.5218 331.912 91.9085 331.913 90.279ZM352.04 90.279C352.029 88.7781 351.574 87.3141 350.732 86.0714C349.889 84.8286 348.697 83.8629 347.306 83.296C345.914 82.7291 344.386 82.5863 342.914 82.8856C341.441 83.185 340.091 83.9131 339.032 84.9782C337.973 86.0432 337.254 87.3976 336.965 88.8704C336.676 90.3432 336.829 91.8686 337.407 93.2542C337.984 94.6398 338.96 95.8237 340.21 96.6564C341.46 97.4892 342.929 97.9336 344.431 97.9336C345.437 97.941 346.434 97.7476 347.364 97.3648C348.294 96.9821 349.139 96.4176 349.847 95.7046C350.556 94.9916 351.115 94.1444 351.492 93.2128C351.868 92.2811 352.055 91.2836 352.04 90.279V90.279Z" fill="#66C6E3"/>
<path d="M393.092 88.3248V100.286C390.622 101.723 387.815 102.478 384.958 102.476C383.337 102.502 381.728 102.206 380.224 101.605C378.719 101.004 377.35 100.11 376.194 98.9747C375.039 97.8395 374.122 96.486 373.496 94.9931C372.87 93.5002 372.548 91.8977 372.548 90.2791C372.562 88.6398 372.903 87.0197 373.55 85.5133C374.198 84.007 375.139 82.6446 376.32 81.5058C377.501 80.3669 378.897 79.4745 380.426 78.8805C381.956 78.2865 383.589 78.0029 385.229 78.0462C387.543 78.0404 389.824 78.5929 391.878 79.6567L391.172 84.1989C389.41 83.1181 387.387 82.5363 385.32 82.5159C384.284 82.4893 383.254 82.6706 382.29 83.0493C381.326 83.4279 380.448 83.9961 379.708 84.7201C378.968 85.4442 378.381 86.3093 377.982 87.2642C377.583 88.2192 377.38 89.2444 377.385 90.2791C377.375 91.2933 377.568 92.2993 377.953 93.2379C378.338 94.1766 378.906 95.0291 379.625 95.7455C380.344 96.4618 381.199 97.0276 382.139 97.4095C383.08 97.7915 384.087 97.9821 385.103 97.97C386.344 98.009 387.58 97.7807 388.726 97.3004V92.3964H383.436L384.088 88.3248H393.092Z" fill="#66C6E3"/>
<path d="M399.723 90.279C399.669 87.7942 400.357 85.3498 401.7 83.2576C403.043 81.1655 404.98 79.5206 407.263 78.5329C409.546 77.5453 412.073 77.2596 414.519 77.7125C416.966 78.1653 419.221 79.3362 420.999 81.0755C422.776 82.8148 423.994 85.0436 424.498 87.4776C425.001 89.9115 424.767 92.4401 423.825 94.7405C422.883 97.041 421.277 99.0089 419.21 100.393C417.144 101.777 414.711 102.515 412.223 102.512C410.593 102.548 408.972 102.258 407.455 101.66C405.939 101.061 404.558 100.165 403.393 99.0254C402.229 97.8856 401.304 96.5246 400.673 95.0226C400.043 93.5205 399.72 91.9077 399.723 90.279V90.279ZM419.832 90.279C419.821 88.7781 419.366 87.3141 418.523 86.0713C417.68 84.8286 416.488 83.8629 415.097 83.296C413.706 82.7291 412.178 82.5863 410.705 82.8856C409.233 83.185 407.882 83.9131 406.824 84.9782C405.765 86.0432 405.046 87.3975 404.756 88.8704C404.467 90.3432 404.621 91.8686 405.199 93.2542C405.776 94.6398 406.751 95.8236 408.001 96.6564C409.251 97.4892 410.72 97.9336 412.223 97.9336C413.229 97.941 414.226 97.7476 415.156 97.3648C416.086 96.982 416.93 96.4176 417.639 95.7046C418.348 94.9916 418.907 94.1444 419.283 93.2128C419.66 92.2811 419.846 91.2836 419.832 90.279V90.279Z" fill="#66C6E3"/>
<path d="M90.2762 192.117H81.9426L79.6781 197.31H74.4606L86.1819 172.917L97.7764 197.31H92.5226L90.2762 192.117ZM88.4645 188.045L86.1819 182.435L83.7543 188.045H88.4645Z" fill="#66C6E3"/>
<path d="M102.179 195.302L102.921 190.76C104.802 192.451 107.206 193.447 109.733 193.583C111.889 193.583 113.03 192.352 113.03 190.832C113.03 189.583 112.324 188.479 110.041 187.737L108.592 187.267C104.298 185.892 102.795 183.232 102.795 180.155C102.806 179.199 103.015 178.256 103.408 177.384C103.801 176.513 104.369 175.732 105.079 175.09C105.788 174.448 106.622 173.959 107.529 173.653C108.435 173.348 109.396 173.233 110.349 173.315C112.621 173.359 114.85 173.942 116.853 175.016L116.146 179.449C114.406 178.278 112.388 177.585 110.295 177.441C109.935 177.395 109.57 177.425 109.223 177.53C108.876 177.635 108.555 177.812 108.281 178.05C108.008 178.287 107.787 178.58 107.635 178.908C107.482 179.237 107.401 179.594 107.396 179.956C107.396 181.241 108.103 182.254 110.53 183.014L111.961 183.485C116.11 184.824 117.722 187.557 117.722 190.542C117.722 194.343 115.005 197.781 109.787 197.781C107.059 197.739 104.407 196.874 102.179 195.302V195.302Z" fill="#66C6E3"/>
<path d="M138.574 192.822L137.868 197.382H124.806V174.057L129.589 173.496V192.822H138.574Z" fill="#66C6E3"/>
<path d="M55.4927 212.728V231.693H50.71V212.728H44.5142L45.2207 208.258H60.9638L61.6341 212.728H55.4927Z" fill="#66C6E3"/>
<path d="M65.6016 219.967C65.5476 217.483 66.2356 215.039 67.5779 212.947C68.9203 210.855 70.856 209.21 73.1381 208.222C75.4203 207.234 77.9454 206.947 80.3914 207.399C82.8373 207.85 85.0932 209.019 86.8713 210.757C88.6493 212.494 89.8688 214.721 90.3743 217.154C90.8797 219.587 90.6482 222.115 89.7092 224.415C88.7703 226.716 87.1664 228.685 85.1023 230.072C83.0382 231.458 80.6074 232.199 78.12 232.199C76.489 232.236 74.8672 231.946 73.3499 231.347C71.8326 230.749 70.4502 229.853 69.2841 228.714C68.1179 227.574 67.1915 226.214 66.5591 224.711C65.9267 223.209 65.6012 221.596 65.6016 219.967ZM85.7289 219.967C85.7182 218.466 85.2628 217.002 84.4202 215.759C83.5776 214.516 82.3856 213.55 80.9943 212.984C79.6031 212.417 78.0749 212.274 76.6026 212.573C75.1302 212.873 73.7795 213.601 72.7208 214.666C71.6621 215.731 70.9428 217.085 70.6536 218.558C70.3644 220.031 70.5182 221.556 71.0957 222.942C71.6731 224.327 72.6484 225.511 73.8984 226.344C75.1485 227.177 76.6174 227.621 78.12 227.621C79.1259 227.628 80.123 227.435 81.0531 227.052C81.9831 226.67 82.8272 226.105 83.536 225.392C84.2447 224.679 84.8037 223.832 85.1803 222.9C85.5569 221.969 85.7434 220.971 85.7289 219.967V219.967Z" fill="#66C6E3"/>
<path d="M126.781 218.012V229.974C124.311 231.41 121.504 232.166 118.646 232.163C117.026 232.19 115.417 231.894 113.912 231.293C112.408 230.692 111.038 229.797 109.883 228.662C108.728 227.527 107.811 226.173 107.185 224.681C106.559 223.188 106.236 221.585 106.237 219.967C106.251 218.327 106.591 216.707 107.239 215.201C107.887 213.694 108.828 212.332 110.009 211.193C111.189 210.054 112.585 209.162 114.115 208.568C115.645 207.974 117.278 207.69 118.918 207.734C121.232 207.728 123.513 208.28 125.567 209.344L124.86 213.886C123.099 212.806 121.076 212.224 119.009 212.203C117.973 212.177 116.943 212.358 115.979 212.737C115.015 213.115 114.137 213.684 113.396 214.408C112.656 215.132 112.069 215.997 111.67 216.952C111.271 217.907 111.069 218.932 111.074 219.967C111.064 220.981 111.257 221.987 111.642 222.925C112.026 223.864 112.595 224.717 113.314 225.433C114.032 226.149 114.887 226.715 115.828 227.097C116.769 227.479 117.776 227.67 118.791 227.657C120.033 227.697 121.269 227.468 122.415 226.988V222.084H117.125L117.777 218.012H126.781Z" fill="#66C6E3"/>
<path d="M133.411 219.966C133.357 217.482 134.046 215.037 135.389 212.945C136.732 210.853 138.669 209.208 140.952 208.22C143.235 207.233 145.761 206.947 148.208 207.4C150.654 207.853 152.91 209.024 154.687 210.763C156.465 212.502 157.683 214.731 158.186 217.165C158.69 219.599 158.456 222.128 157.514 224.428C156.572 226.728 154.965 228.696 152.899 230.081C150.832 231.465 148.4 232.202 145.912 232.199C144.281 232.236 142.661 231.946 141.144 231.347C139.628 230.748 138.247 229.853 137.082 228.713C135.917 227.573 134.993 226.212 134.362 224.71C133.732 223.208 133.408 221.595 133.411 219.966V219.966ZM153.52 219.966C153.51 218.466 153.054 217.002 152.212 215.759C151.369 214.516 150.177 213.55 148.786 212.984C147.395 212.417 145.867 212.274 144.394 212.573C142.922 212.873 141.571 213.601 140.512 214.666C139.454 215.731 138.734 217.085 138.445 218.558C138.156 220.031 138.31 221.556 138.887 222.942C139.465 224.327 140.44 225.511 141.69 226.344C142.94 227.177 144.409 227.621 145.912 227.621C146.917 227.628 147.915 227.435 148.845 227.052C149.775 226.67 150.619 226.105 151.328 225.392C152.036 224.679 152.595 223.832 152.972 222.9C153.348 221.969 153.535 220.971 153.52 219.966V219.966Z" fill="#66C6E3"/>
</g>
<mask id="mask1" mask-type="alpha" maskUnits="userSpaceOnUse" x="8" y="9" width="199" height="395">
<path d="M173.976 9.79774H172.987V12.7654C172.987 17.2168 169.401 20.8026 164.95 20.8026H49.2128C44.7614 20.8026 41.1756 17.2168 41.1756 12.7654V9.79774C23.1226 9.79774 8.65552 24.3885 8.65552 42.3178V371.475C8.65552 389.528 23.2463 403.995 41.1756 403.995H174.1C192.153 403.995 206.62 389.404 206.62 371.475V42.4414C206.496 24.3885 191.905 9.79774 173.976 9.79774Z" fill="#234866"/>
</mask>
<g mask="url(#mask1)">
<path d="M9.94812 398.202C42.8441 398.202 69.5116 372.898 69.5116 341.685C69.5116 310.471 42.8441 285.167 9.94812 285.167C-22.9479 285.167 -49.6154 310.471 -49.6154 341.685C-49.6154 372.898 -22.9479 398.202 9.94812 398.202Z" fill="#66C6E3"/>
<path d="M79.6645 434.753C107.327 434.753 129.752 412.328 129.752 384.665C129.752 357.003 107.327 334.578 79.6645 334.578C52.0019 334.578 29.577 357.003 29.577 384.665C29.577 412.328 52.0019 434.753 79.6645 434.753Z" fill="#CB544F"/>
<path d="M22.47 553.88C73.1223 553.88 114.184 513.575 114.184 463.858C114.184 414.14 73.1223 373.836 22.47 373.836C-28.1824 373.836 -69.2443 414.14 -69.2443 463.858C-69.2443 513.575 -28.1824 553.88 22.47 553.88Z" fill="#97C1B7"/>
<path d="M22.47 553.541C72.9355 553.541 113.846 513.388 113.846 463.857C113.846 414.327 72.9355 374.174 22.47 374.174C-27.9954 374.174 -68.9058 414.327 -68.9058 463.857C-68.9058 513.388 -27.9954 553.541 22.47 553.541Z" stroke="#97C1B7"/>
</g>
<defs>
<clipPath id="clip0">
<rect width="481" height="415" fill="white"/>
</clipPath>
</defs>
</svg>
