<svg width="116" height="116" viewBox="0 0 116 116" fill="none" xmlns="http://www.w3.org/2000/svg">
<path d="M51.8375 5.78454L61.3951 24.454L74.9018 8.40824L75.4125 29.3758L94.5436 20.7793L85.9063 39.892L106.873 40.4476L90.798 53.9199L109.447 63.5174L89.1189 68.6811L101.757 85.4196L81.2014 81.2518L85.3252 101.816L68.6137 89.1425L63.4066 109.46L53.849 90.79L40.3423 106.836L39.8316 85.8683L20.7005 94.4647L29.3378 75.3521L8.37141 74.7965L24.4461 61.3242L5.79704 51.7266L26.1252 46.563L13.4873 29.8244L34.0427 33.9922L29.9189 13.4279L46.6304 26.1016L51.8375 5.78454Z" fill="#E57A44"/>
<path d="M46.76 61.079L48.2543 56.9639C46.4138 56.2956 46.4364 56.2335 46.8644 55.0548L46.932 54.8687C49.3391 53.5895 51.3932 53.0247 52.568 53.0768L54.0548 48.9824L48.8437 47.0901L47.3569 51.1845C48.1184 51.6015 48.4494 52.2366 48.2317 52.8363C48.029 53.3946 47.2285 53.9232 46.1479 54.2563L45.2373 52.3809C44.9664 51.8379 44.9831 51.4695 45.0808 51.2006C45.2384 50.7664 45.6669 50.6177 46.2403 50.7791L47.727 46.6846L40.4274 44.034L38.9406 48.1284C39.7284 48.6017 40.3658 49.2311 40.8758 50.4695L41.8806 52.9877L41.798 53.2152C41.37 54.3939 41.3475 54.4559 39.5484 53.8026L38.0542 57.9177L46.76 61.079ZM63.1997 61.0567C62.9293 61.8011 61.9727 61.9218 60.1116 61.2461C57.7128 60.375 57.4325 59.6647 58.0407 57.9897L58.5212 56.6662C58.9417 55.5082 58.9643 55.4462 60.2257 55.9042L61.7274 51.7684L54.4691 49.1328L52.9824 53.2272C54.2438 53.6853 54.1799 53.7323 53.7594 54.8903L52.6706 57.8888C51.3678 61.3478 52.2277 63.2984 56.5496 64.8678C60.6026 66.3395 62.7147 65.1638 63.8861 61.9379L64.9824 58.9188C65.3654 57.8641 65.5213 57.7569 66.6173 58.1549L68.0965 54.0812L62.9889 52.2265L61.4871 56.3623C60.7212 58.4715 63.7178 59.6298 63.1997 61.0567ZM75.0749 61.2494C76.4604 61.7525 76.7557 62.164 76.3652 63.2393C76.0273 64.1698 75.4861 64.3712 73.9972 63.8306L72.4256 63.2599L73.3792 60.6337L75.0749 61.2494ZM75.9514 66.7637C77.7919 67.432 79.8744 67.369 81.1359 63.895C82.3974 60.4209 81.2144 58.8445 77.3061 57.4253L69.0966 54.4443L67.6098 58.5387C69.0367 59.0568 69.048 59.1545 68.5599 60.4987L67.7715 62.67C67.351 63.828 67.2871 63.875 65.8603 63.3569L64.366 67.472L72.5962 70.4605L73.9403 66.759C71.6242 65.918 71.4945 65.8241 71.9 64.7074L72.2003 63.8803L72.3864 63.9478C72.9358 65.0133 74.1317 66.1029 75.9514 66.7637Z" fill="white"/>
</svg>
