<svg width="44" height="27" viewBox="0 0 44 27" fill="none" xmlns="http://www.w3.org/2000/svg">
<path d="M8.76 17.079L10.2543 12.9639C8.41384 12.2956 8.43637 12.2335 8.86437 11.0548L8.93195 10.8687C11.3391 9.58951 13.3932 9.02469 14.568 9.07678L16.0548 4.98235L10.8437 3.09012L9.35693 7.18455C10.1184 7.60146 10.4494 8.23661 10.2317 8.8363C10.029 9.39463 9.22849 9.92316 8.14788 10.2563L7.2373 8.38094C6.96639 7.83786 6.98314 7.46945 7.08075 7.20063C7.23844 6.76637 7.66692 6.61769 8.24026 6.77907L9.72702 2.68464L2.42736 0.0340189L0.940611 4.12844C1.72838 4.60174 2.36584 5.23111 2.87578 6.46952L3.88064 8.98771L3.79804 9.21517C3.37004 10.3939 3.34751 10.4559 1.54844 9.80264L0.0541819 13.9177L8.76 17.079ZM25.1997 17.0567C24.9293 17.8011 23.9727 17.9218 22.1116 17.2461C19.7128 16.375 19.4325 15.6647 20.0407 13.9897L20.5212 12.6662C20.9417 11.5082 20.9643 11.4462 22.2257 11.9042L23.7274 7.76843L16.4691 5.13282L14.9824 9.22725C16.2438 9.68529 16.1799 9.73231 15.7594 10.8903L14.6706 13.8888C13.3678 17.3478 14.2277 19.2984 18.5496 20.8678C22.6026 22.3395 24.7147 21.1638 25.8861 17.9379L26.9824 14.9188C27.3654 13.8641 27.5213 13.7569 28.6173 14.1549L30.0965 10.0812L24.9889 8.22647L23.4871 12.3623C22.7212 14.4715 25.7178 15.6298 25.1997 17.0567ZM37.0749 17.2494C38.4604 17.7525 38.7557 18.164 38.3652 19.2393C38.0273 20.1698 37.4861 20.3712 35.9972 19.8306L34.4256 19.2599L35.3792 16.6337L37.0749 17.2494ZM37.9514 22.7637C39.7919 23.432 41.8744 23.369 43.1359 19.895C44.3974 16.4209 43.2144 14.8445 39.3061 13.4253L31.0966 10.4443L29.6098 14.5387C31.0367 15.0568 31.048 15.1545 30.5599 16.4987L29.7715 18.67C29.351 19.828 29.2871 19.875 27.8603 19.3569L26.366 23.472L34.5962 26.4605L35.9403 22.759C33.6242 21.918 33.4945 21.8241 33.9 20.7074L34.2003 19.8803L34.3864 19.9478C34.9358 21.0133 36.1317 22.1029 37.9514 22.7637Z" fill="white"/>
</svg>
